%TF.GenerationSoftware,KiCad,Pcbnew,9.0.4*%
%TF.CreationDate,2025-11-14T19:48:18-06:00*%
%TF.ProjectId,instrument_amplifier,696e7374-7275-46d6-956e-745f616d706c,rev?*%
%TF.SameCoordinates,Original*%
%TF.FileFunction,Copper,L2,Bot*%
%TF.FilePolarity,Positive*%
%FSLAX46Y46*%
G04 Gerber Fmt 4.6, Leading zero omitted, Abs format (unit mm)*
G04 Created by KiCad (PCBNEW 9.0.4) date 2025-11-14 19:48:18*
%MOMM*%
%LPD*%
G01*
G04 APERTURE LIST*
G04 Aperture macros list*
%AMRoundRect*
0 Rectangle with rounded corners*
0 $1 Rounding radius*
0 $2 $3 $4 $5 $6 $7 $8 $9 X,Y pos of 4 corners*
0 Add a 4 corners polygon primitive as box body*
4,1,4,$2,$3,$4,$5,$6,$7,$8,$9,$2,$3,0*
0 Add four circle primitives for the rounded corners*
1,1,$1+$1,$2,$3*
1,1,$1+$1,$4,$5*
1,1,$1+$1,$6,$7*
1,1,$1+$1,$8,$9*
0 Add four rect primitives between the rounded corners*
20,1,$1+$1,$2,$3,$4,$5,0*
20,1,$1+$1,$4,$5,$6,$7,0*
20,1,$1+$1,$6,$7,$8,$9,0*
20,1,$1+$1,$8,$9,$2,$3,0*%
G04 Aperture macros list end*
%TA.AperFunction,ComponentPad*%
%ADD10R,1.700000X1.700000*%
%TD*%
%TA.AperFunction,ComponentPad*%
%ADD11C,1.700000*%
%TD*%
%TA.AperFunction,ComponentPad*%
%ADD12C,1.600000*%
%TD*%
%TA.AperFunction,ComponentPad*%
%ADD13RoundRect,0.250000X-0.550000X-0.550000X0.550000X-0.550000X0.550000X0.550000X-0.550000X0.550000X0*%
%TD*%
%TA.AperFunction,ComponentPad*%
%ADD14C,5.000000*%
%TD*%
%TA.AperFunction,ViaPad*%
%ADD15C,0.600000*%
%TD*%
%TA.AperFunction,Conductor*%
%ADD16C,0.400000*%
%TD*%
%TA.AperFunction,Conductor*%
%ADD17C,0.200000*%
%TD*%
G04 APERTURE END LIST*
D10*
%TO.P,J1,1,Pin_1*%
%TO.N,GND*%
X61780000Y-63390000D03*
D11*
%TO.P,J1,2,Pin_2*%
%TO.N,+5V*%
X61780000Y-60850000D03*
%TO.P,J1,3,Pin_3*%
%TO.N,/E-*%
X61780000Y-58310000D03*
%TO.P,J1,4,Pin_4*%
%TO.N,/E+*%
X61780000Y-55770000D03*
%TO.P,J1,5,Pin_5*%
%TO.N,/EREF*%
X61780000Y-53230000D03*
%TO.P,J1,6,Pin_6*%
%TO.N,/OUT_F*%
X61780000Y-50690000D03*
%TD*%
D12*
%TO.P,U2,14*%
%TO.N,N/C*%
X109935000Y-49790000D03*
%TO.P,U2,13*%
X109935000Y-52330000D03*
%TO.P,U2,12*%
X109935000Y-54870000D03*
%TO.P,U2,11,V-*%
%TO.N,GND*%
X109935000Y-57410000D03*
%TO.P,U2,10*%
%TO.N,N/C*%
X109935000Y-59950000D03*
%TO.P,U2,9*%
X109935000Y-62490000D03*
%TO.P,U2,8*%
X109935000Y-65030000D03*
%TO.P,U2,7*%
%TO.N,Net-(U2B--)*%
X102315000Y-65030000D03*
%TO.P,U2,6,-*%
X102315000Y-62490000D03*
%TO.P,U2,5,+*%
%TO.N,Net-(U2B-+)*%
X102315000Y-59950000D03*
%TO.P,U2,4,V+*%
%TO.N,+5V*%
X102315000Y-57410000D03*
%TO.P,U2,3,+*%
%TO.N,Net-(U2A-+)*%
X102315000Y-54870000D03*
%TO.P,U2,2,-*%
%TO.N,Net-(U2A--)*%
X102315000Y-52330000D03*
D13*
%TO.P,U2,1*%
X102315000Y-49790000D03*
%TD*%
D14*
%TO.P,H4,1,1*%
%TO.N,GND*%
X54800000Y-77370000D03*
%TD*%
%TO.P,H3,1,1*%
%TO.N,GND*%
X120370000Y-77410000D03*
%TD*%
%TO.P,H2,1,1*%
%TO.N,GND*%
X120390000Y-43840000D03*
%TD*%
%TO.P,H1,1,1*%
%TO.N,GND*%
X54810000Y-43780000D03*
%TD*%
D12*
%TO.P,R3,2*%
%TO.N,Net-(U1B--)*%
X66190000Y-63490000D03*
%TO.P,R3,1*%
%TO.N,Net-(R3-Pad1)*%
X66190000Y-71110000D03*
%TD*%
%TO.P,R5,2*%
%TO.N,Net-(R3-Pad1)*%
X69820000Y-63500000D03*
%TO.P,R5,1*%
%TO.N,Net-(U1C--)*%
X69820000Y-71120000D03*
%TD*%
%TO.P,R2,1*%
%TO.N,Net-(R2-Pad1)*%
X69810000Y-51370000D03*
%TO.P,R2,2*%
%TO.N,Net-(U1A--)*%
X69810000Y-58990000D03*
%TD*%
%TO.P,R7,1*%
%TO.N,/EREF*%
X88795000Y-49890000D03*
%TO.P,R7,2*%
%TO.N,Net-(U1C--)*%
X88795000Y-57510000D03*
%TD*%
%TO.P,R1,1*%
%TO.N,Net-(U1A--)*%
X66190000Y-51320000D03*
%TO.P,R1,2*%
%TO.N,Net-(U1B--)*%
X66190000Y-58940000D03*
%TD*%
%TO.P,R4,1*%
%TO.N,Net-(U1C-+)*%
X92590000Y-59660000D03*
%TO.P,R4,2*%
%TO.N,Net-(R2-Pad1)*%
X92590000Y-67280000D03*
%TD*%
%TO.P,R10,1*%
%TO.N,/OUT*%
X88770000Y-71030000D03*
%TO.P,R10,2*%
%TO.N,Net-(U2A-+)*%
X96390000Y-71030000D03*
%TD*%
%TO.P,R6,1*%
%TO.N,/OUT*%
X88860000Y-67300000D03*
%TO.P,R6,2*%
%TO.N,Net-(U1C-+)*%
X88860000Y-59680000D03*
%TD*%
%TO.P,C3,1*%
%TO.N,Net-(U2B-+)*%
X115020000Y-59770000D03*
%TO.P,C3,2*%
%TO.N,GND*%
X118520000Y-59770000D03*
%TD*%
%TO.P,C1,1*%
%TO.N,Net-(U2A-+)*%
X93410000Y-47800000D03*
%TO.P,C1,2*%
%TO.N,GND*%
X96910000Y-47800000D03*
%TD*%
%TO.P,R9,1*%
%TO.N,Net-(U1D-+)*%
X75100000Y-73550000D03*
%TO.P,R9,2*%
%TO.N,GND*%
X82720000Y-73550000D03*
%TD*%
%TO.P,R12,1*%
%TO.N,Net-(R11-Pad2)*%
X100240000Y-70920000D03*
%TO.P,R12,2*%
%TO.N,Net-(U2B-+)*%
X107860000Y-70920000D03*
%TD*%
%TO.P,C2,1*%
%TO.N,Net-(U2B-+)*%
X115020000Y-50370000D03*
%TO.P,C2,2*%
%TO.N,Net-(U2B--)*%
X118520000Y-50370000D03*
%TD*%
%TO.P,R11,1*%
%TO.N,Net-(U2A--)*%
X97290000Y-53980000D03*
%TO.P,R11,2*%
%TO.N,Net-(R11-Pad2)*%
X97290000Y-61600000D03*
%TD*%
D13*
%TO.P,U1,1*%
%TO.N,Net-(R2-Pad1)*%
X75175000Y-49790000D03*
D12*
%TO.P,U1,2,-*%
%TO.N,Net-(U1A--)*%
X75175000Y-52330000D03*
%TO.P,U1,3,+*%
%TO.N,/E+*%
X75175000Y-54870000D03*
%TO.P,U1,4,V+*%
%TO.N,+5V*%
X75175000Y-57410000D03*
%TO.P,U1,5,+*%
%TO.N,/E-*%
X75175000Y-59950000D03*
%TO.P,U1,6,-*%
%TO.N,Net-(U1B--)*%
X75175000Y-62490000D03*
%TO.P,U1,7*%
%TO.N,Net-(R3-Pad1)*%
X75175000Y-65030000D03*
%TO.P,U1,8*%
%TO.N,/OUT*%
X82795000Y-65030000D03*
%TO.P,U1,9,-*%
%TO.N,Net-(U1C--)*%
X82795000Y-62490000D03*
%TO.P,U1,10,+*%
%TO.N,Net-(U1C-+)*%
X82795000Y-59950000D03*
%TO.P,U1,11,V-*%
%TO.N,GND*%
X82795000Y-57410000D03*
%TO.P,U1,12,+*%
%TO.N,Net-(U1D-+)*%
X82795000Y-54870000D03*
%TO.P,U1,13,-*%
%TO.N,/EREF*%
X82795000Y-52330000D03*
%TO.P,U1,14*%
X82795000Y-49790000D03*
%TD*%
%TO.P,R8,1*%
%TO.N,+5V*%
X75000000Y-69230000D03*
%TO.P,R8,2*%
%TO.N,Net-(U1D-+)*%
X82620000Y-69230000D03*
%TD*%
%TO.P,C4,1*%
%TO.N,/OUT_F*%
X115020000Y-69170000D03*
%TO.P,C4,2*%
%TO.N,Net-(U2B--)*%
X118520000Y-69170000D03*
%TD*%
%TO.P,R13,1*%
%TO.N,GND*%
X100190000Y-74770000D03*
%TO.P,R13,2*%
%TO.N,/OUT_F*%
X107810000Y-74770000D03*
%TD*%
D15*
%TO.N,GND*%
X72610000Y-63490000D03*
X72070000Y-59480000D03*
%TO.N,+5V*%
X58880000Y-52160000D03*
%TD*%
D16*
%TO.N,Net-(U1C-+)*%
X92570000Y-59680000D02*
X92590000Y-59660000D01*
X88860000Y-59680000D02*
X92570000Y-59680000D01*
%TO.N,+5V*%
X78320000Y-44900000D02*
X103960000Y-44900000D01*
%TO.N,/OUT_F*%
X61780000Y-50690000D02*
X54320000Y-58150000D01*
X54320000Y-58150000D02*
X54320000Y-71680000D01*
%TO.N,+5V*%
X61250000Y-69230000D02*
X75000000Y-69230000D01*
X59760000Y-67740000D02*
X61250000Y-69230000D01*
X59760000Y-61230000D02*
X59760000Y-67740000D01*
X60140000Y-60850000D02*
X59760000Y-61230000D01*
X61780000Y-60850000D02*
X60140000Y-60850000D01*
D17*
%TO.N,/E+*%
X61780000Y-56682240D02*
X61780000Y-55770000D01*
D16*
%TO.N,Net-(U1C--)*%
X81100000Y-62490000D02*
X82795000Y-62490000D01*
X80070000Y-68950000D02*
X80070000Y-63520000D01*
X70630000Y-71930000D02*
X77090000Y-71930000D01*
X69820000Y-71120000D02*
X70630000Y-71930000D01*
X77090000Y-71930000D02*
X80070000Y-68950000D01*
X80070000Y-63520000D02*
X81100000Y-62490000D01*
%TO.N,+5V*%
X105280000Y-54445000D02*
X102315000Y-57410000D01*
X103960000Y-44900000D02*
X105280000Y-46220000D01*
X58880000Y-49630000D02*
X63610000Y-44900000D01*
X58880000Y-52160000D02*
X58880000Y-49630000D01*
X63610000Y-44900000D02*
X78320000Y-44900000D01*
X105280000Y-46220000D02*
X105280000Y-54445000D01*
%TO.N,/EREF*%
X78530000Y-48065000D02*
X82795000Y-52330000D01*
X64040000Y-50980000D02*
X66955000Y-48065000D01*
X64030000Y-50980000D02*
X64040000Y-50980000D01*
X66955000Y-48065000D02*
X78530000Y-48065000D01*
X61780000Y-53230000D02*
X64030000Y-50980000D01*
%TO.N,Net-(U2A-+)*%
X94960000Y-52220000D02*
X94960000Y-69600000D01*
X94960000Y-69600000D02*
X96390000Y-71030000D01*
X93410000Y-50670000D02*
X93410000Y-47800000D01*
X94960000Y-52220000D02*
X93410000Y-50670000D01*
%TO.N,Net-(U2B--)*%
X118520000Y-67806667D02*
X118520000Y-69170000D01*
X120130000Y-66196667D02*
X118520000Y-67806667D01*
%TO.N,/OUT_F*%
X61420000Y-78780000D02*
X54320000Y-71680000D01*
X106170000Y-78780000D02*
X61420000Y-78780000D01*
X107810000Y-77140000D02*
X106170000Y-78780000D01*
X107810000Y-74770000D02*
X107810000Y-77140000D01*
X109420000Y-74770000D02*
X115020000Y-69170000D01*
X107810000Y-74770000D02*
X109420000Y-74770000D01*
%TO.N,Net-(U2B--)*%
X118520000Y-50370000D02*
X119350000Y-50370000D01*
X119350000Y-50370000D02*
X120130000Y-51150000D01*
%TO.N,Net-(U2B-+)*%
X115020000Y-59770000D02*
X115020000Y-53980000D01*
X115020000Y-53980000D02*
X115020000Y-50370000D01*
X115020000Y-54733333D02*
X115020000Y-53980000D01*
X112280000Y-57473333D02*
X115020000Y-54733333D01*
%TO.N,Net-(U1C--)*%
X69710000Y-71010000D02*
X69820000Y-71120000D01*
%TO.N,/EREF*%
X88695000Y-49790000D02*
X88795000Y-49890000D01*
X82795000Y-49790000D02*
X88695000Y-49790000D01*
X82795000Y-52330000D02*
X82795000Y-49790000D01*
%TO.N,Net-(U2B--)*%
X120130000Y-51150000D02*
X120130000Y-66196667D01*
%TO.N,Net-(U2B-+)*%
X112280000Y-66500000D02*
X107860000Y-70920000D01*
X112280000Y-57473333D02*
X112280000Y-66500000D01*
X107860000Y-65495000D02*
X102315000Y-59950000D01*
X107860000Y-70920000D02*
X107860000Y-65495000D01*
%TO.N,Net-(R11-Pad2)*%
X97290000Y-67970000D02*
X100240000Y-70920000D01*
X97290000Y-61600000D02*
X97290000Y-67970000D01*
%TO.N,Net-(U2A--)*%
X102315000Y-49790000D02*
X102315000Y-52330000D01*
X100665000Y-53980000D02*
X102315000Y-52330000D01*
X97290000Y-53980000D02*
X100665000Y-53980000D01*
%TO.N,Net-(U1A--)*%
X69810000Y-56070000D02*
X69810000Y-58990000D01*
X75175000Y-52330000D02*
X73550000Y-52330000D01*
X73550000Y-52330000D02*
X69810000Y-56070000D01*
%TO.N,Net-(R2-Pad1)*%
X75175000Y-49790000D02*
X71390000Y-49790000D01*
X71390000Y-49790000D02*
X69810000Y-51370000D01*
%TO.N,Net-(U1C--)*%
X87290000Y-57510000D02*
X88795000Y-57510000D01*
X86680000Y-58120000D02*
X87290000Y-57510000D01*
X86680000Y-60610000D02*
X86680000Y-58120000D01*
X84800000Y-62490000D02*
X86680000Y-60610000D01*
X82795000Y-62490000D02*
X84800000Y-62490000D01*
%TO.N,/OUT*%
X87320000Y-67300000D02*
X88860000Y-67300000D01*
X85050000Y-65030000D02*
X87320000Y-67300000D01*
X82795000Y-65030000D02*
X85050000Y-65030000D01*
%TO.N,Net-(U1D-+)*%
X81160000Y-69230000D02*
X82620000Y-69230000D01*
X76840000Y-73550000D02*
X81160000Y-69230000D01*
X75100000Y-73550000D02*
X76840000Y-73550000D01*
%TD*%
%TA.AperFunction,Conductor*%
%TO.N,GND*%
G36*
X73847206Y-48773522D02*
G01*
X73875241Y-48778543D01*
X73880299Y-48783240D01*
X73886922Y-48785185D01*
X73905569Y-48806704D01*
X73926441Y-48826086D01*
X73928157Y-48832772D01*
X73932677Y-48837989D01*
X73936729Y-48866174D01*
X73943810Y-48893762D01*
X73942083Y-48903406D01*
X73942621Y-48907147D01*
X73937589Y-48928504D01*
X73912405Y-49004504D01*
X73872632Y-49061949D01*
X73808116Y-49088772D01*
X73794699Y-49089500D01*
X71321003Y-49089500D01*
X71225048Y-49108586D01*
X71225042Y-49108588D01*
X71212591Y-49111065D01*
X71185671Y-49116420D01*
X71132866Y-49138292D01*
X71058189Y-49169225D01*
X71027110Y-49189992D01*
X71017358Y-49196507D01*
X71017353Y-49196510D01*
X70943461Y-49245883D01*
X70943453Y-49245889D01*
X70136148Y-50053194D01*
X70074825Y-50086679D01*
X70029069Y-50087986D01*
X69968613Y-50078410D01*
X69912352Y-50069500D01*
X69707648Y-50069500D01*
X69683329Y-50073351D01*
X69505465Y-50101522D01*
X69310776Y-50164781D01*
X69128386Y-50257715D01*
X68962786Y-50378028D01*
X68818028Y-50522786D01*
X68697715Y-50688386D01*
X68604781Y-50870776D01*
X68541522Y-51065465D01*
X68510400Y-51261968D01*
X68509500Y-51267648D01*
X68509500Y-51472352D01*
X68511074Y-51482287D01*
X68541522Y-51674534D01*
X68604781Y-51869223D01*
X68633971Y-51926510D01*
X68696142Y-52048527D01*
X68697715Y-52051613D01*
X68818028Y-52217213D01*
X68962786Y-52361971D01*
X69116761Y-52473838D01*
X69128390Y-52482287D01*
X69244607Y-52541503D01*
X69310776Y-52575218D01*
X69310778Y-52575218D01*
X69310781Y-52575220D01*
X69415137Y-52609127D01*
X69505465Y-52638477D01*
X69606557Y-52654488D01*
X69707648Y-52670500D01*
X69707649Y-52670500D01*
X69912351Y-52670500D01*
X69912352Y-52670500D01*
X70114534Y-52638477D01*
X70309219Y-52575220D01*
X70491610Y-52482287D01*
X70584590Y-52414732D01*
X70657213Y-52361971D01*
X70657215Y-52361968D01*
X70657219Y-52361966D01*
X70801966Y-52217219D01*
X70801968Y-52217215D01*
X70801971Y-52217213D01*
X70854732Y-52144590D01*
X70922287Y-52051610D01*
X71015220Y-51869219D01*
X71078477Y-51674534D01*
X71110500Y-51472352D01*
X71110500Y-51267648D01*
X71092012Y-51150926D01*
X71100966Y-51081637D01*
X71126801Y-51043853D01*
X71643837Y-50526819D01*
X71705160Y-50493334D01*
X71731518Y-50490500D01*
X73794699Y-50490500D01*
X73861738Y-50510185D01*
X73907493Y-50562989D01*
X73912403Y-50575492D01*
X73940186Y-50659334D01*
X74032288Y-50808656D01*
X74156344Y-50932712D01*
X74305666Y-51024814D01*
X74387570Y-51051954D01*
X74445015Y-51091727D01*
X74471838Y-51156243D01*
X74459523Y-51225018D01*
X74421451Y-51269978D01*
X74327787Y-51338028D01*
X74327782Y-51338032D01*
X74183030Y-51482784D01*
X74113575Y-51578384D01*
X74058245Y-51621051D01*
X74013256Y-51629500D01*
X73481004Y-51629500D01*
X73345677Y-51656418D01*
X73345667Y-51656421D01*
X73218192Y-51709222D01*
X73103454Y-51785887D01*
X69265887Y-55623454D01*
X69189222Y-55738192D01*
X69136421Y-55865667D01*
X69136418Y-55865679D01*
X69113224Y-55982285D01*
X69113224Y-55982289D01*
X69109500Y-56001007D01*
X69109500Y-57828255D01*
X69089815Y-57895294D01*
X69058385Y-57928573D01*
X68962787Y-57998028D01*
X68962782Y-57998032D01*
X68818028Y-58142786D01*
X68697715Y-58308386D01*
X68604781Y-58490776D01*
X68541522Y-58685465D01*
X68509500Y-58887648D01*
X68509500Y-59092351D01*
X68541522Y-59294534D01*
X68604781Y-59489223D01*
X68649837Y-59577648D01*
X68695694Y-59667648D01*
X68697715Y-59671613D01*
X68818028Y-59837213D01*
X68962786Y-59981971D01*
X69090030Y-60074417D01*
X69128390Y-60102287D01*
X69212647Y-60145218D01*
X69310776Y-60195218D01*
X69310778Y-60195218D01*
X69310781Y-60195220D01*
X69371119Y-60214825D01*
X69505465Y-60258477D01*
X69572100Y-60269031D01*
X69707648Y-60290500D01*
X69707649Y-60290500D01*
X69912351Y-60290500D01*
X69912352Y-60290500D01*
X70114534Y-60258477D01*
X70309219Y-60195220D01*
X70491610Y-60102287D01*
X70610917Y-60015606D01*
X70657213Y-59981971D01*
X70657215Y-59981968D01*
X70657219Y-59981966D01*
X70801966Y-59837219D01*
X70801968Y-59837215D01*
X70801971Y-59837213D01*
X70889063Y-59717339D01*
X70922287Y-59671610D01*
X71015220Y-59489219D01*
X71078477Y-59294534D01*
X71110500Y-59092352D01*
X71110500Y-58887648D01*
X71082407Y-58710279D01*
X71078477Y-58685465D01*
X71033718Y-58547713D01*
X71015220Y-58490781D01*
X71015218Y-58490778D01*
X71015218Y-58490776D01*
X70970920Y-58403837D01*
X70922287Y-58308390D01*
X70888304Y-58261616D01*
X70801971Y-58142786D01*
X70657217Y-57998032D01*
X70657212Y-57998028D01*
X70561615Y-57928573D01*
X70518949Y-57873243D01*
X70510500Y-57828255D01*
X70510500Y-56411519D01*
X70530185Y-56344480D01*
X70546819Y-56323838D01*
X73803838Y-53066819D01*
X73830765Y-53052115D01*
X73856584Y-53035523D01*
X73862784Y-53034631D01*
X73865161Y-53033334D01*
X73891519Y-53030500D01*
X74013256Y-53030500D01*
X74080295Y-53050185D01*
X74113575Y-53081616D01*
X74183030Y-53177215D01*
X74327786Y-53321971D01*
X74482749Y-53434556D01*
X74493390Y-53442287D01*
X74568929Y-53480776D01*
X74586080Y-53489515D01*
X74636876Y-53537490D01*
X74653671Y-53605311D01*
X74631134Y-53671446D01*
X74586080Y-53710485D01*
X74493386Y-53757715D01*
X74327786Y-53878028D01*
X74183028Y-54022786D01*
X74062715Y-54188386D01*
X73969781Y-54370776D01*
X73906522Y-54565465D01*
X73874500Y-54767648D01*
X73874500Y-54972351D01*
X73906522Y-55174534D01*
X73969781Y-55369223D01*
X74062715Y-55551613D01*
X74183028Y-55717213D01*
X74327786Y-55861971D01*
X74482749Y-55974556D01*
X74493390Y-55982287D01*
X74584840Y-56028883D01*
X74586080Y-56029515D01*
X74636876Y-56077490D01*
X74653671Y-56145311D01*
X74631134Y-56211446D01*
X74586080Y-56250485D01*
X74493386Y-56297715D01*
X74327786Y-56418028D01*
X74183028Y-56562786D01*
X74062715Y-56728386D01*
X73969781Y-56910776D01*
X73906522Y-57105465D01*
X73874500Y-57307648D01*
X73874500Y-57512351D01*
X73906522Y-57714534D01*
X73969781Y-57909223D01*
X74033691Y-58034653D01*
X74062585Y-58091359D01*
X74062715Y-58091613D01*
X74183028Y-58257213D01*
X74327786Y-58401971D01*
X74465479Y-58502009D01*
X74493390Y-58522287D01*
X74577698Y-58565244D01*
X74586080Y-58569515D01*
X74636876Y-58617490D01*
X74653671Y-58685311D01*
X74631134Y-58751446D01*
X74586080Y-58790485D01*
X74493386Y-58837715D01*
X74327786Y-58958028D01*
X74183028Y-59102786D01*
X74062715Y-59268386D01*
X73969781Y-59450776D01*
X73906522Y-59645465D01*
X73874500Y-59847648D01*
X73874500Y-60052351D01*
X73906522Y-60254534D01*
X73969781Y-60449223D01*
X74009520Y-60527213D01*
X74055380Y-60617219D01*
X74062715Y-60631613D01*
X74183028Y-60797213D01*
X74327786Y-60941971D01*
X74460618Y-61038477D01*
X74493390Y-61062287D01*
X74568929Y-61100776D01*
X74586080Y-61109515D01*
X74636876Y-61157490D01*
X74653671Y-61225311D01*
X74631134Y-61291446D01*
X74586080Y-61330485D01*
X74493386Y-61377715D01*
X74327786Y-61498028D01*
X74183028Y-61642786D01*
X74062715Y-61808386D01*
X73969781Y-61990776D01*
X73906522Y-62185465D01*
X73874500Y-62387648D01*
X73874500Y-62592351D01*
X73906522Y-62794534D01*
X73969781Y-62989223D01*
X73992655Y-63034114D01*
X74058620Y-63163578D01*
X74062715Y-63171613D01*
X74183028Y-63337213D01*
X74327786Y-63481971D01*
X74482749Y-63594556D01*
X74493390Y-63602287D01*
X74567406Y-63640000D01*
X74586080Y-63649515D01*
X74636876Y-63697490D01*
X74653671Y-63765311D01*
X74631134Y-63831446D01*
X74586080Y-63870485D01*
X74493386Y-63917715D01*
X74327786Y-64038028D01*
X74183028Y-64182786D01*
X74062715Y-64348386D01*
X73969781Y-64530776D01*
X73906522Y-64725465D01*
X73874500Y-64927648D01*
X73874500Y-65132351D01*
X73906522Y-65334534D01*
X73969781Y-65529223D01*
X74062715Y-65711613D01*
X74183028Y-65877213D01*
X74327786Y-66021971D01*
X74473275Y-66127673D01*
X74493390Y-66142287D01*
X74609607Y-66201503D01*
X74675776Y-66235218D01*
X74675778Y-66235218D01*
X74675781Y-66235220D01*
X74769469Y-66265661D01*
X74870465Y-66298477D01*
X74971557Y-66314488D01*
X75072648Y-66330500D01*
X75072649Y-66330500D01*
X75277351Y-66330500D01*
X75277352Y-66330500D01*
X75479534Y-66298477D01*
X75674219Y-66235220D01*
X75856610Y-66142287D01*
X75949590Y-66074732D01*
X76022213Y-66021971D01*
X76022215Y-66021968D01*
X76022219Y-66021966D01*
X76166966Y-65877219D01*
X76166968Y-65877215D01*
X76166971Y-65877213D01*
X76236425Y-65781616D01*
X76287287Y-65711610D01*
X76380220Y-65529219D01*
X76443477Y-65334534D01*
X76475500Y-65132352D01*
X76475500Y-64927648D01*
X76443477Y-64725465D01*
X76403453Y-64602284D01*
X76380220Y-64530781D01*
X76380218Y-64530778D01*
X76380218Y-64530776D01*
X76318284Y-64409225D01*
X76287287Y-64348390D01*
X76259261Y-64309815D01*
X76166971Y-64182786D01*
X76022213Y-64038028D01*
X75856614Y-63917715D01*
X75802220Y-63890000D01*
X75763917Y-63870483D01*
X75713123Y-63822511D01*
X75696328Y-63754690D01*
X75718865Y-63688555D01*
X75763917Y-63649516D01*
X75856610Y-63602287D01*
X75978128Y-63514000D01*
X76022213Y-63481971D01*
X76022215Y-63481968D01*
X76022219Y-63481966D01*
X76166966Y-63337219D01*
X76166968Y-63337215D01*
X76166971Y-63337213D01*
X76236425Y-63241616D01*
X76287287Y-63171610D01*
X76380220Y-62989219D01*
X76443477Y-62794534D01*
X76475500Y-62592352D01*
X76475500Y-62387648D01*
X76459207Y-62284780D01*
X76443477Y-62185465D01*
X76397555Y-62044133D01*
X76380220Y-61990781D01*
X76380218Y-61990778D01*
X76380218Y-61990776D01*
X76323827Y-61880104D01*
X76287287Y-61808390D01*
X76247176Y-61753181D01*
X76166971Y-61642786D01*
X76022213Y-61498028D01*
X75856614Y-61377715D01*
X75838356Y-61368412D01*
X75763917Y-61330483D01*
X75713123Y-61282511D01*
X75696328Y-61214690D01*
X75718865Y-61148555D01*
X75763917Y-61109516D01*
X75856610Y-61062287D01*
X75907014Y-61025667D01*
X76022213Y-60941971D01*
X76022215Y-60941968D01*
X76022219Y-60941966D01*
X76166966Y-60797219D01*
X76166968Y-60797215D01*
X76166971Y-60797213D01*
X76219732Y-60724590D01*
X76287287Y-60631610D01*
X76380220Y-60449219D01*
X76443477Y-60254534D01*
X76475500Y-60052352D01*
X76475500Y-59847648D01*
X76471104Y-59819896D01*
X76443477Y-59645465D01*
X76398013Y-59505542D01*
X76380220Y-59450781D01*
X76380218Y-59450778D01*
X76380218Y-59450776D01*
X76336621Y-59365214D01*
X76287287Y-59268390D01*
X76230183Y-59189792D01*
X76166971Y-59102786D01*
X76022213Y-58958028D01*
X75856614Y-58837715D01*
X75771717Y-58794458D01*
X75763917Y-58790483D01*
X75713123Y-58742511D01*
X75696328Y-58674690D01*
X75718865Y-58608555D01*
X75763917Y-58569516D01*
X75856610Y-58522287D01*
X75913465Y-58480980D01*
X76022213Y-58401971D01*
X76022215Y-58401968D01*
X76022219Y-58401966D01*
X76166966Y-58257219D01*
X76166968Y-58257215D01*
X76166971Y-58257213D01*
X76219732Y-58184590D01*
X76287287Y-58091610D01*
X76380220Y-57909219D01*
X76443477Y-57714534D01*
X76475500Y-57512352D01*
X76475500Y-57307648D01*
X76471104Y-57279896D01*
X76443477Y-57105465D01*
X76386305Y-56929510D01*
X76380220Y-56910781D01*
X76380218Y-56910778D01*
X76380218Y-56910776D01*
X76339603Y-56831066D01*
X76287287Y-56728390D01*
X76255092Y-56684077D01*
X76166971Y-56562786D01*
X76022213Y-56418028D01*
X75856614Y-56297715D01*
X75838356Y-56288412D01*
X75763917Y-56250483D01*
X75713123Y-56202511D01*
X75696328Y-56134690D01*
X75718865Y-56068555D01*
X75763917Y-56029516D01*
X75856610Y-55982287D01*
X76002508Y-55876287D01*
X76022213Y-55861971D01*
X76022215Y-55861968D01*
X76022219Y-55861966D01*
X76166966Y-55717219D01*
X76166968Y-55717215D01*
X76166971Y-55717213D01*
X76219732Y-55644590D01*
X76287287Y-55551610D01*
X76380220Y-55369219D01*
X76443477Y-55174534D01*
X76475500Y-54972352D01*
X76475500Y-54767648D01*
X76471104Y-54739896D01*
X76443477Y-54565465D01*
X76408836Y-54458852D01*
X76380220Y-54370781D01*
X76380218Y-54370778D01*
X76380218Y-54370776D01*
X76336275Y-54284534D01*
X76287287Y-54188390D01*
X76230183Y-54109792D01*
X76166971Y-54022786D01*
X76022213Y-53878028D01*
X75856614Y-53757715D01*
X75838356Y-53748412D01*
X75763917Y-53710483D01*
X75713123Y-53662511D01*
X75696328Y-53594690D01*
X75718865Y-53528555D01*
X75763917Y-53489516D01*
X75856610Y-53442287D01*
X76002508Y-53336287D01*
X76022213Y-53321971D01*
X76022215Y-53321968D01*
X76022219Y-53321966D01*
X76166966Y-53177219D01*
X76166968Y-53177215D01*
X76166971Y-53177213D01*
X76236425Y-53081616D01*
X76287287Y-53011610D01*
X76380220Y-52829219D01*
X76443477Y-52634534D01*
X76475500Y-52432352D01*
X76475500Y-52227648D01*
X76443477Y-52025466D01*
X76440296Y-52015677D01*
X76398872Y-51888187D01*
X76380220Y-51830781D01*
X76380218Y-51830778D01*
X76380218Y-51830776D01*
X76324103Y-51720646D01*
X76287287Y-51648390D01*
X76251752Y-51599480D01*
X76166971Y-51482786D01*
X76022219Y-51338034D01*
X75968977Y-51299352D01*
X75928547Y-51269978D01*
X75885882Y-51214649D01*
X75879903Y-51145036D01*
X75912508Y-51083240D01*
X75962426Y-51051955D01*
X76044334Y-51024814D01*
X76193656Y-50932712D01*
X76317712Y-50808656D01*
X76409814Y-50659334D01*
X76464999Y-50492797D01*
X76475500Y-50390009D01*
X76475499Y-49189992D01*
X76474831Y-49183457D01*
X76464999Y-49087203D01*
X76464998Y-49087200D01*
X76412411Y-48928504D01*
X76410009Y-48858676D01*
X76445741Y-48798634D01*
X76508261Y-48767441D01*
X76530117Y-48765500D01*
X78188481Y-48765500D01*
X78255520Y-48785185D01*
X78276162Y-48801819D01*
X81478194Y-52003851D01*
X81511679Y-52065174D01*
X81512986Y-52110929D01*
X81494500Y-52227647D01*
X81494500Y-52432351D01*
X81526522Y-52634534D01*
X81589781Y-52829223D01*
X81628875Y-52905948D01*
X81670700Y-52988034D01*
X81682715Y-53011613D01*
X81803028Y-53177213D01*
X81947786Y-53321971D01*
X82102749Y-53434556D01*
X82113390Y-53442287D01*
X82188929Y-53480776D01*
X82206080Y-53489515D01*
X82256876Y-53537490D01*
X82273671Y-53605311D01*
X82251134Y-53671446D01*
X82206080Y-53710485D01*
X82113386Y-53757715D01*
X81947786Y-53878028D01*
X81803028Y-54022786D01*
X81682715Y-54188386D01*
X81589781Y-54370776D01*
X81526522Y-54565465D01*
X81494500Y-54767648D01*
X81494500Y-54972351D01*
X81526522Y-55174534D01*
X81589781Y-55369223D01*
X81682715Y-55551613D01*
X81803028Y-55717213D01*
X81947786Y-55861971D01*
X82113385Y-55982284D01*
X82113387Y-55982285D01*
X82113390Y-55982287D01*
X82206080Y-56029515D01*
X82206630Y-56029795D01*
X82257426Y-56077770D01*
X82274221Y-56145591D01*
X82251684Y-56211725D01*
X82206630Y-56250765D01*
X82113644Y-56298143D01*
X82069077Y-56330523D01*
X82069077Y-56330524D01*
X82748554Y-57010000D01*
X82742339Y-57010000D01*
X82640606Y-57037259D01*
X82549394Y-57089920D01*
X82474920Y-57164394D01*
X82422259Y-57255606D01*
X82395000Y-57357339D01*
X82395000Y-57363553D01*
X81715524Y-56684077D01*
X81715523Y-56684077D01*
X81683143Y-56728644D01*
X81590244Y-56910968D01*
X81527009Y-57105582D01*
X81495000Y-57307682D01*
X81495000Y-57512317D01*
X81527009Y-57714417D01*
X81590244Y-57909031D01*
X81683141Y-58091350D01*
X81683147Y-58091359D01*
X81715523Y-58135921D01*
X81715524Y-58135922D01*
X82395000Y-57456446D01*
X82395000Y-57462661D01*
X82422259Y-57564394D01*
X82474920Y-57655606D01*
X82549394Y-57730080D01*
X82640606Y-57782741D01*
X82742339Y-57810000D01*
X82748553Y-57810000D01*
X82069076Y-58489474D01*
X82113652Y-58521861D01*
X82206628Y-58569234D01*
X82257425Y-58617208D01*
X82274220Y-58685029D01*
X82251683Y-58751164D01*
X82206630Y-58790203D01*
X82113388Y-58837713D01*
X81947786Y-58958028D01*
X81803028Y-59102786D01*
X81682715Y-59268386D01*
X81589781Y-59450776D01*
X81526522Y-59645465D01*
X81494500Y-59847648D01*
X81494500Y-60052351D01*
X81526522Y-60254534D01*
X81589781Y-60449223D01*
X81629520Y-60527213D01*
X81675380Y-60617219D01*
X81682715Y-60631613D01*
X81803028Y-60797213D01*
X81947786Y-60941971D01*
X82080618Y-61038477D01*
X82113390Y-61062287D01*
X82188929Y-61100776D01*
X82206080Y-61109515D01*
X82256876Y-61157490D01*
X82273671Y-61225311D01*
X82251134Y-61291446D01*
X82206080Y-61330485D01*
X82113386Y-61377715D01*
X81947786Y-61498028D01*
X81803030Y-61642784D01*
X81733575Y-61738384D01*
X81678245Y-61781051D01*
X81633256Y-61789500D01*
X81031004Y-61789500D01*
X80895677Y-61816418D01*
X80895667Y-61816421D01*
X80768192Y-61869222D01*
X80653454Y-61945887D01*
X79525887Y-63073454D01*
X79449222Y-63188192D01*
X79396421Y-63315667D01*
X79396420Y-63315671D01*
X79396420Y-63315672D01*
X79379386Y-63401309D01*
X79379386Y-63401310D01*
X79369500Y-63451006D01*
X79369500Y-68608481D01*
X79349815Y-68675520D01*
X79333181Y-68696162D01*
X76836162Y-71193181D01*
X76774839Y-71226666D01*
X76748481Y-71229500D01*
X71244500Y-71229500D01*
X71177461Y-71209815D01*
X71131706Y-71157011D01*
X71120500Y-71105500D01*
X71120500Y-71017648D01*
X71088477Y-70815465D01*
X71025218Y-70620776D01*
X70991503Y-70554607D01*
X70932287Y-70438390D01*
X70886392Y-70375220D01*
X70811971Y-70272786D01*
X70681366Y-70142181D01*
X70647881Y-70080858D01*
X70652865Y-70011166D01*
X70694737Y-69955233D01*
X70760201Y-69930816D01*
X70769047Y-69930500D01*
X73838256Y-69930500D01*
X73905295Y-69950185D01*
X73938575Y-69981616D01*
X74008030Y-70077215D01*
X74152786Y-70221971D01*
X74235806Y-70282287D01*
X74318390Y-70342287D01*
X74383021Y-70375218D01*
X74500776Y-70435218D01*
X74500778Y-70435218D01*
X74500781Y-70435220D01*
X74605137Y-70469127D01*
X74695465Y-70498477D01*
X74796557Y-70514488D01*
X74897648Y-70530500D01*
X74897649Y-70530500D01*
X75102351Y-70530500D01*
X75102352Y-70530500D01*
X75304534Y-70498477D01*
X75499219Y-70435220D01*
X75681610Y-70342287D01*
X75791042Y-70262781D01*
X75847213Y-70221971D01*
X75847215Y-70221968D01*
X75847219Y-70221966D01*
X75991966Y-70077219D01*
X75991968Y-70077215D01*
X75991971Y-70077213D01*
X76061425Y-69981616D01*
X76112287Y-69911610D01*
X76205220Y-69729219D01*
X76268477Y-69534534D01*
X76300500Y-69332352D01*
X76300500Y-69127648D01*
X76287515Y-69045663D01*
X76268477Y-68925465D01*
X76205218Y-68730776D01*
X76143284Y-68609225D01*
X76112287Y-68548390D01*
X76084261Y-68509815D01*
X75991971Y-68382786D01*
X75847213Y-68238028D01*
X75681613Y-68117715D01*
X75681612Y-68117714D01*
X75681610Y-68117713D01*
X75611755Y-68082120D01*
X75499223Y-68024781D01*
X75304534Y-67961522D01*
X75129995Y-67933878D01*
X75102352Y-67929500D01*
X74897648Y-67929500D01*
X74873329Y-67933351D01*
X74695465Y-67961522D01*
X74500776Y-68024781D01*
X74318386Y-68117715D01*
X74152786Y-68238028D01*
X74008030Y-68382784D01*
X73938575Y-68478384D01*
X73883245Y-68521051D01*
X73838256Y-68529500D01*
X61591519Y-68529500D01*
X61524480Y-68509815D01*
X61503838Y-68493181D01*
X60496819Y-67486162D01*
X60463334Y-67424839D01*
X60460500Y-67398481D01*
X60460500Y-64760835D01*
X60480185Y-64693796D01*
X60532989Y-64648041D01*
X60602147Y-64638097D01*
X60658812Y-64661569D01*
X60687910Y-64683352D01*
X60687913Y-64683354D01*
X60822620Y-64733596D01*
X60822627Y-64733598D01*
X60882155Y-64739999D01*
X60882172Y-64740000D01*
X61530000Y-64740000D01*
X61530000Y-63823012D01*
X61587007Y-63855925D01*
X61714174Y-63890000D01*
X61845826Y-63890000D01*
X61972993Y-63855925D01*
X62030000Y-63823012D01*
X62030000Y-64740000D01*
X62677828Y-64740000D01*
X62677844Y-64739999D01*
X62737372Y-64733598D01*
X62737379Y-64733596D01*
X62872086Y-64683354D01*
X62872093Y-64683350D01*
X62987187Y-64597190D01*
X62987190Y-64597187D01*
X63073350Y-64482093D01*
X63073354Y-64482086D01*
X63123596Y-64347379D01*
X63123598Y-64347372D01*
X63129999Y-64287844D01*
X63130000Y-64287827D01*
X63130000Y-63640000D01*
X62213012Y-63640000D01*
X62245925Y-63582993D01*
X62280000Y-63455826D01*
X62280000Y-63387648D01*
X64889500Y-63387648D01*
X64889500Y-63592351D01*
X64921522Y-63794534D01*
X64984781Y-63989223D01*
X65077715Y-64171613D01*
X65198028Y-64337213D01*
X65342786Y-64481971D01*
X65497749Y-64594556D01*
X65508390Y-64602287D01*
X65624607Y-64661503D01*
X65690776Y-64695218D01*
X65690778Y-64695218D01*
X65690781Y-64695220D01*
X65783866Y-64725465D01*
X65885465Y-64758477D01*
X65948602Y-64768477D01*
X66087648Y-64790500D01*
X66087649Y-64790500D01*
X66292351Y-64790500D01*
X66292352Y-64790500D01*
X66494534Y-64758477D01*
X66689219Y-64695220D01*
X66871610Y-64602287D01*
X66970037Y-64530776D01*
X67037213Y-64481971D01*
X67037215Y-64481968D01*
X67037219Y-64481966D01*
X67181966Y-64337219D01*
X67181968Y-64337215D01*
X67181971Y-64337213D01*
X67294167Y-64182786D01*
X67302287Y-64171610D01*
X67395220Y-63989219D01*
X67458477Y-63794534D01*
X67490500Y-63592352D01*
X67490500Y-63397648D01*
X68519500Y-63397648D01*
X68519500Y-63602351D01*
X68551522Y-63804534D01*
X68614781Y-63999223D01*
X68634557Y-64038034D01*
X68702619Y-64171613D01*
X68707715Y-64181613D01*
X68828028Y-64347213D01*
X68972786Y-64491971D01*
X69124622Y-64602284D01*
X69138390Y-64612287D01*
X69254607Y-64671503D01*
X69320776Y-64705218D01*
X69320778Y-64705218D01*
X69320781Y-64705220D01*
X69425137Y-64739127D01*
X69515465Y-64768477D01*
X69616557Y-64784488D01*
X69717648Y-64800500D01*
X69717649Y-64800500D01*
X69922351Y-64800500D01*
X69922352Y-64800500D01*
X70124534Y-64768477D01*
X70319219Y-64705220D01*
X70501610Y-64612287D01*
X70594590Y-64544732D01*
X70667213Y-64491971D01*
X70667215Y-64491968D01*
X70667219Y-64491966D01*
X70811966Y-64347219D01*
X70811968Y-64347215D01*
X70811971Y-64347213D01*
X70864732Y-64274590D01*
X70932287Y-64181610D01*
X71025220Y-63999219D01*
X71088477Y-63804534D01*
X71120500Y-63602352D01*
X71120500Y-63397648D01*
X71088477Y-63195466D01*
X71087784Y-63193334D01*
X71048833Y-63073454D01*
X71025220Y-63000781D01*
X71025218Y-63000778D01*
X71025218Y-63000776D01*
X70968774Y-62890000D01*
X70932287Y-62818390D01*
X70891132Y-62761744D01*
X70811971Y-62652786D01*
X70667213Y-62508028D01*
X70501613Y-62387715D01*
X70501612Y-62387714D01*
X70501610Y-62387713D01*
X70444653Y-62358691D01*
X70319223Y-62294781D01*
X70124534Y-62231522D01*
X69949995Y-62203878D01*
X69922352Y-62199500D01*
X69717648Y-62199500D01*
X69693329Y-62203351D01*
X69515465Y-62231522D01*
X69320776Y-62294781D01*
X69138386Y-62387715D01*
X68972786Y-62508028D01*
X68828028Y-62652786D01*
X68707715Y-62818386D01*
X68614781Y-63000776D01*
X68551522Y-63195465D01*
X68519500Y-63397648D01*
X67490500Y-63397648D01*
X67490500Y-63387648D01*
X67470916Y-63264000D01*
X67458477Y-63185465D01*
X67398469Y-63000781D01*
X67395220Y-62990781D01*
X67395218Y-62990778D01*
X67395218Y-62990776D01*
X67343869Y-62890000D01*
X67302287Y-62808390D01*
X67268397Y-62761744D01*
X67181971Y-62642786D01*
X67037213Y-62498028D01*
X66871613Y-62377715D01*
X66871612Y-62377714D01*
X66871610Y-62377713D01*
X66814653Y-62348691D01*
X66689223Y-62284781D01*
X66494534Y-62221522D01*
X66319995Y-62193878D01*
X66292352Y-62189500D01*
X66087648Y-62189500D01*
X66063329Y-62193351D01*
X65885465Y-62221522D01*
X65690776Y-62284781D01*
X65508386Y-62377715D01*
X65342786Y-62498028D01*
X65198028Y-62642786D01*
X65077715Y-62808386D01*
X64984781Y-62990776D01*
X64921522Y-63185465D01*
X64889500Y-63387648D01*
X62280000Y-63387648D01*
X62280000Y-63324174D01*
X62245925Y-63197007D01*
X62213012Y-63140000D01*
X63130000Y-63140000D01*
X63130000Y-62492172D01*
X63129999Y-62492155D01*
X63123598Y-62432627D01*
X63123596Y-62432620D01*
X63073354Y-62297913D01*
X63073350Y-62297906D01*
X62987190Y-62182812D01*
X62987187Y-62182809D01*
X62872093Y-62096649D01*
X62872088Y-62096646D01*
X62740528Y-62047577D01*
X62684595Y-62005705D01*
X62660178Y-61940241D01*
X62675030Y-61871968D01*
X62696175Y-61843720D01*
X62810104Y-61729792D01*
X62822229Y-61713104D01*
X62893402Y-61615141D01*
X62935051Y-61557816D01*
X63031557Y-61368412D01*
X63097246Y-61166243D01*
X63130500Y-60956287D01*
X63130500Y-60743713D01*
X63097246Y-60533757D01*
X63031557Y-60331588D01*
X62935051Y-60142184D01*
X62935049Y-60142181D01*
X62935048Y-60142179D01*
X62810109Y-59970213D01*
X62659786Y-59819890D01*
X62487820Y-59694951D01*
X62487115Y-59694591D01*
X62479054Y-59690485D01*
X62428259Y-59642512D01*
X62411463Y-59574692D01*
X62433999Y-59508556D01*
X62479054Y-59469515D01*
X62487816Y-59465051D01*
X62509789Y-59449086D01*
X62659786Y-59340109D01*
X62659788Y-59340106D01*
X62659792Y-59340104D01*
X62810104Y-59189792D01*
X62810106Y-59189788D01*
X62810109Y-59189786D01*
X62935048Y-59017820D01*
X62935047Y-59017820D01*
X62935051Y-59017816D01*
X63026851Y-58837648D01*
X64889500Y-58837648D01*
X64889500Y-59042351D01*
X64921522Y-59244534D01*
X64984781Y-59439223D01*
X65077715Y-59621613D01*
X65198028Y-59787213D01*
X65342786Y-59931971D01*
X65469819Y-60024264D01*
X65508390Y-60052287D01*
X65624607Y-60111503D01*
X65690776Y-60145218D01*
X65690778Y-60145218D01*
X65690781Y-60145220D01*
X65733878Y-60159223D01*
X65885465Y-60208477D01*
X65986557Y-60224488D01*
X66087648Y-60240500D01*
X66087649Y-60240500D01*
X66292351Y-60240500D01*
X66292352Y-60240500D01*
X66494534Y-60208477D01*
X66689219Y-60145220D01*
X66871610Y-60052287D01*
X66964865Y-59984534D01*
X67037213Y-59931971D01*
X67037215Y-59931968D01*
X67037219Y-59931966D01*
X67181966Y-59787219D01*
X67181968Y-59787215D01*
X67181971Y-59787213D01*
X67249002Y-59694951D01*
X67302287Y-59621610D01*
X67395220Y-59439219D01*
X67458477Y-59244534D01*
X67490500Y-59042352D01*
X67490500Y-58837648D01*
X67475387Y-58742229D01*
X67458477Y-58635465D01*
X67415114Y-58502009D01*
X67395220Y-58440781D01*
X67395218Y-58440778D01*
X67395218Y-58440776D01*
X67327761Y-58308386D01*
X67302287Y-58258390D01*
X67273173Y-58218318D01*
X67181971Y-58092786D01*
X67037213Y-57948028D01*
X66871613Y-57827715D01*
X66871612Y-57827714D01*
X66871610Y-57827713D01*
X66783348Y-57782741D01*
X66689223Y-57734781D01*
X66494534Y-57671522D01*
X66319995Y-57643878D01*
X66292352Y-57639500D01*
X66087648Y-57639500D01*
X66063329Y-57643351D01*
X65885465Y-57671522D01*
X65690776Y-57734781D01*
X65508386Y-57827715D01*
X65342786Y-57948028D01*
X65198028Y-58092786D01*
X65077715Y-58258386D01*
X64984781Y-58440776D01*
X64921522Y-58635465D01*
X64889500Y-58837648D01*
X63026851Y-58837648D01*
X63031557Y-58828412D01*
X63097246Y-58626243D01*
X63130500Y-58416287D01*
X63130500Y-58203713D01*
X63097246Y-57993757D01*
X63031557Y-57791588D01*
X62935051Y-57602184D01*
X62935049Y-57602181D01*
X62935048Y-57602179D01*
X62810109Y-57430213D01*
X62659786Y-57279890D01*
X62487815Y-57154948D01*
X62487812Y-57154946D01*
X62479050Y-57150481D01*
X62428256Y-57102505D01*
X62411463Y-57034683D01*
X62434003Y-56968549D01*
X62479060Y-56929512D01*
X62487816Y-56925051D01*
X62537128Y-56889224D01*
X62659786Y-56800109D01*
X62659788Y-56800106D01*
X62659792Y-56800104D01*
X62810104Y-56649792D01*
X62810106Y-56649788D01*
X62810109Y-56649786D01*
X62935048Y-56477820D01*
X62935047Y-56477820D01*
X62935051Y-56477816D01*
X63031557Y-56288412D01*
X63097246Y-56086243D01*
X63130500Y-55876287D01*
X63130500Y-55663713D01*
X63097246Y-55453757D01*
X63031557Y-55251588D01*
X62935051Y-55062184D01*
X62935049Y-55062181D01*
X62935048Y-55062179D01*
X62810109Y-54890213D01*
X62659786Y-54739890D01*
X62487820Y-54614951D01*
X62487115Y-54614591D01*
X62479054Y-54610485D01*
X62428259Y-54562512D01*
X62411463Y-54494692D01*
X62433999Y-54428556D01*
X62479054Y-54389515D01*
X62487816Y-54385051D01*
X62626167Y-54284534D01*
X62659786Y-54260109D01*
X62659788Y-54260106D01*
X62659792Y-54260104D01*
X62810104Y-54109792D01*
X62810106Y-54109788D01*
X62810109Y-54109786D01*
X62935048Y-53937820D01*
X62935047Y-53937820D01*
X62935051Y-53937816D01*
X63031557Y-53748412D01*
X63097246Y-53546243D01*
X63130500Y-53336287D01*
X63130500Y-53123713D01*
X63115736Y-53030500D01*
X63105715Y-52967227D01*
X63114670Y-52897933D01*
X63140504Y-52860151D01*
X64447771Y-51552884D01*
X64466559Y-51537466D01*
X64475123Y-51531744D01*
X64486543Y-51524114D01*
X64677820Y-51332836D01*
X64739142Y-51299352D01*
X64808833Y-51304336D01*
X64864767Y-51346207D01*
X64889184Y-51411672D01*
X64889500Y-51420518D01*
X64889500Y-51422351D01*
X64921522Y-51624534D01*
X64984781Y-51819223D01*
X65077715Y-52001613D01*
X65198028Y-52167213D01*
X65342786Y-52311971D01*
X65455005Y-52393501D01*
X65508390Y-52432287D01*
X65624607Y-52491503D01*
X65690776Y-52525218D01*
X65690778Y-52525218D01*
X65690781Y-52525220D01*
X65764181Y-52549069D01*
X65885465Y-52588477D01*
X65986557Y-52604488D01*
X66087648Y-52620500D01*
X66087649Y-52620500D01*
X66292351Y-52620500D01*
X66292352Y-52620500D01*
X66494534Y-52588477D01*
X66689219Y-52525220D01*
X66871610Y-52432287D01*
X66964590Y-52364732D01*
X67037213Y-52311971D01*
X67037215Y-52311968D01*
X67037219Y-52311966D01*
X67181966Y-52167219D01*
X67181968Y-52167215D01*
X67181971Y-52167213D01*
X67268200Y-52048527D01*
X67302287Y-52001610D01*
X67395220Y-51819219D01*
X67458477Y-51624534D01*
X67490500Y-51422352D01*
X67490500Y-51217648D01*
X67470556Y-51091727D01*
X67458477Y-51015465D01*
X67412618Y-50874328D01*
X67395220Y-50820781D01*
X67395218Y-50820778D01*
X67395218Y-50820776D01*
X67339103Y-50710646D01*
X67302287Y-50638390D01*
X67266752Y-50589480D01*
X67181971Y-50472786D01*
X67037213Y-50328028D01*
X66871613Y-50207715D01*
X66871612Y-50207714D01*
X66871610Y-50207713D01*
X66800705Y-50171585D01*
X66689223Y-50114781D01*
X66494534Y-50051522D01*
X66319995Y-50023878D01*
X66292352Y-50019500D01*
X66290518Y-50019500D01*
X66289845Y-50019302D01*
X66287489Y-50019117D01*
X66287527Y-50018622D01*
X66223479Y-49999815D01*
X66177724Y-49947011D01*
X66167780Y-49877853D01*
X66196805Y-49814297D01*
X66202837Y-49807819D01*
X66619876Y-49390781D01*
X67208838Y-48801819D01*
X67270161Y-48768334D01*
X67296519Y-48765500D01*
X73819883Y-48765500D01*
X73847206Y-48773522D01*
G37*
%TD.AperFunction*%
%TA.AperFunction,Conductor*%
G36*
X123113039Y-40999685D02*
G01*
X123158794Y-41052489D01*
X123170000Y-41104000D01*
X123170000Y-80016000D01*
X123150315Y-80083039D01*
X123097511Y-80128794D01*
X123046000Y-80140000D01*
X52134000Y-80140000D01*
X52066961Y-80120315D01*
X52021206Y-80067511D01*
X52010000Y-80016000D01*
X52010000Y-71748996D01*
X53619499Y-71748996D01*
X53646418Y-71884322D01*
X53646421Y-71884332D01*
X53699222Y-72011807D01*
X53775887Y-72126545D01*
X53775888Y-72126546D01*
X57411309Y-75761966D01*
X60973457Y-79324114D01*
X61019412Y-79354819D01*
X61088189Y-79400775D01*
X61178332Y-79438113D01*
X61215671Y-79453580D01*
X61242591Y-79458934D01*
X61332937Y-79476905D01*
X61351006Y-79480500D01*
X61351007Y-79480500D01*
X106238996Y-79480500D01*
X106347432Y-79458930D01*
X106374328Y-79453580D01*
X106438069Y-79427177D01*
X106501807Y-79400777D01*
X106501808Y-79400776D01*
X106501811Y-79400775D01*
X106616543Y-79324114D01*
X108354114Y-77586543D01*
X108430775Y-77471811D01*
X108483580Y-77344329D01*
X108483580Y-77344325D01*
X108483582Y-77344322D01*
X108488934Y-77317411D01*
X108488934Y-77317409D01*
X108510500Y-77208993D01*
X108510500Y-75931744D01*
X108530185Y-75864705D01*
X108561615Y-75831426D01*
X108657215Y-75761969D01*
X108657215Y-75761968D01*
X108657219Y-75761966D01*
X108801966Y-75617219D01*
X108871425Y-75521615D01*
X108926755Y-75478949D01*
X108971744Y-75470500D01*
X109488996Y-75470500D01*
X109585271Y-75451349D01*
X109624328Y-75443580D01*
X109688069Y-75417177D01*
X109751807Y-75390777D01*
X109751808Y-75390776D01*
X109751811Y-75390775D01*
X109866543Y-75314114D01*
X114693852Y-70486803D01*
X114755173Y-70453320D01*
X114800929Y-70452013D01*
X114855395Y-70460639D01*
X114917648Y-70470500D01*
X114917649Y-70470500D01*
X115122351Y-70470500D01*
X115122352Y-70470500D01*
X115324534Y-70438477D01*
X115519219Y-70375220D01*
X115701610Y-70282287D01*
X115794590Y-70214732D01*
X115867213Y-70161971D01*
X115867215Y-70161968D01*
X115867219Y-70161966D01*
X116011966Y-70017219D01*
X116011968Y-70017215D01*
X116011971Y-70017213D01*
X116074741Y-69930816D01*
X116132287Y-69851610D01*
X116225220Y-69669219D01*
X116288477Y-69474534D01*
X116320500Y-69272352D01*
X116320500Y-69067648D01*
X116288477Y-68865466D01*
X116225220Y-68670781D01*
X116225218Y-68670778D01*
X116225218Y-68670776D01*
X116166949Y-68556418D01*
X116132287Y-68488390D01*
X116080090Y-68416546D01*
X116011971Y-68322786D01*
X115867213Y-68178028D01*
X115701613Y-68057715D01*
X115701612Y-68057714D01*
X115701610Y-68057713D01*
X115644653Y-68028691D01*
X115519223Y-67964781D01*
X115324534Y-67901522D01*
X115149995Y-67873878D01*
X115122352Y-67869500D01*
X114917648Y-67869500D01*
X114893329Y-67873351D01*
X114715465Y-67901522D01*
X114520776Y-67964781D01*
X114338386Y-68057715D01*
X114172786Y-68178028D01*
X114028028Y-68322786D01*
X113907715Y-68488386D01*
X113814781Y-68670776D01*
X113751522Y-68865465D01*
X113719500Y-69067648D01*
X113719500Y-69272351D01*
X113737986Y-69389068D01*
X113729031Y-69458362D01*
X113703194Y-69496147D01*
X109166162Y-74033181D01*
X109139234Y-74047884D01*
X109113416Y-74064477D01*
X109107215Y-74065368D01*
X109104839Y-74066666D01*
X109078481Y-74069500D01*
X108971744Y-74069500D01*
X108904705Y-74049815D01*
X108871425Y-74018384D01*
X108801969Y-73922784D01*
X108657213Y-73778028D01*
X108491613Y-73657715D01*
X108491612Y-73657714D01*
X108491610Y-73657713D01*
X108383565Y-73602661D01*
X108309223Y-73564781D01*
X108114534Y-73501522D01*
X107939995Y-73473878D01*
X107912352Y-73469500D01*
X107707648Y-73469500D01*
X107683329Y-73473351D01*
X107505465Y-73501522D01*
X107310776Y-73564781D01*
X107128386Y-73657715D01*
X106962786Y-73778028D01*
X106818028Y-73922786D01*
X106697715Y-74088386D01*
X106604781Y-74270776D01*
X106541522Y-74465465D01*
X106509500Y-74667648D01*
X106509500Y-74872351D01*
X106541522Y-75074534D01*
X106604781Y-75269223D01*
X106627655Y-75314114D01*
X106697585Y-75451359D01*
X106697715Y-75451613D01*
X106818028Y-75617213D01*
X106962784Y-75761969D01*
X107058385Y-75831426D01*
X107101051Y-75886755D01*
X107109500Y-75931744D01*
X107109500Y-76798481D01*
X107089815Y-76865520D01*
X107073181Y-76886162D01*
X105916162Y-78043181D01*
X105854839Y-78076666D01*
X105828481Y-78079500D01*
X61761519Y-78079500D01*
X61694480Y-78059815D01*
X61673838Y-78043181D01*
X55056819Y-71426162D01*
X55023334Y-71364839D01*
X55020500Y-71338481D01*
X55020500Y-58491518D01*
X55040185Y-58424479D01*
X55056814Y-58403842D01*
X60217819Y-53242836D01*
X60279142Y-53209352D01*
X60348834Y-53214336D01*
X60404767Y-53256208D01*
X60429184Y-53321672D01*
X60429500Y-53330518D01*
X60429500Y-53336286D01*
X60461367Y-53537490D01*
X60462754Y-53546243D01*
X60504741Y-53675466D01*
X60528444Y-53748414D01*
X60624951Y-53937820D01*
X60749890Y-54109786D01*
X60900213Y-54260109D01*
X61072182Y-54385050D01*
X61080946Y-54389516D01*
X61131742Y-54437491D01*
X61148536Y-54505312D01*
X61125998Y-54571447D01*
X61080946Y-54610484D01*
X61072182Y-54614949D01*
X60900213Y-54739890D01*
X60749890Y-54890213D01*
X60624951Y-55062179D01*
X60528444Y-55251585D01*
X60462753Y-55453760D01*
X60429500Y-55663713D01*
X60429500Y-55876286D01*
X60461367Y-56077490D01*
X60462754Y-56086243D01*
X60513207Y-56241522D01*
X60528444Y-56288414D01*
X60624951Y-56477820D01*
X60749890Y-56649786D01*
X60900213Y-56800109D01*
X61072182Y-56925050D01*
X61080946Y-56929516D01*
X61131742Y-56977491D01*
X61148536Y-57045312D01*
X61125998Y-57111447D01*
X61080946Y-57150484D01*
X61072182Y-57154949D01*
X60900213Y-57279890D01*
X60749890Y-57430213D01*
X60624951Y-57602179D01*
X60528444Y-57791585D01*
X60462753Y-57993760D01*
X60447295Y-58091359D01*
X60429500Y-58203713D01*
X60429500Y-58416287D01*
X60435597Y-58454780D01*
X60461367Y-58617490D01*
X60462754Y-58626243D01*
X60523364Y-58812781D01*
X60528444Y-58828414D01*
X60624951Y-59017820D01*
X60749890Y-59189786D01*
X60900213Y-59340109D01*
X61072182Y-59465050D01*
X61080946Y-59469516D01*
X61131742Y-59517491D01*
X61148536Y-59585312D01*
X61125998Y-59651447D01*
X61080946Y-59690484D01*
X61072182Y-59694949D01*
X60900213Y-59819890D01*
X60749892Y-59970211D01*
X60690217Y-60052349D01*
X60656770Y-60098385D01*
X60601442Y-60141051D01*
X60556453Y-60149500D01*
X60071003Y-60149500D01*
X59962590Y-60171065D01*
X59962589Y-60171065D01*
X59935671Y-60176420D01*
X59808190Y-60229224D01*
X59693454Y-60305887D01*
X59215887Y-60783454D01*
X59139222Y-60898192D01*
X59086421Y-61025667D01*
X59086418Y-61025679D01*
X59061003Y-61153451D01*
X59061002Y-61153456D01*
X59060200Y-61157490D01*
X59059500Y-61161007D01*
X59059500Y-67671006D01*
X59059500Y-67808994D01*
X59059500Y-67808996D01*
X59059499Y-67808996D01*
X59086418Y-67944322D01*
X59086421Y-67944332D01*
X59139222Y-68071807D01*
X59215887Y-68186545D01*
X60803454Y-69774112D01*
X60918190Y-69850776D01*
X61016790Y-69891617D01*
X61045671Y-69903580D01*
X61045672Y-69903580D01*
X61045677Y-69903582D01*
X61072545Y-69908925D01*
X61072551Y-69908926D01*
X61072591Y-69908934D01*
X61162937Y-69926905D01*
X61181006Y-69930500D01*
X61181007Y-69930500D01*
X65230953Y-69930500D01*
X65297992Y-69950185D01*
X65343747Y-70002989D01*
X65353691Y-70072147D01*
X65324666Y-70135703D01*
X65318634Y-70142181D01*
X65198032Y-70262782D01*
X65198028Y-70262786D01*
X65077715Y-70428386D01*
X64984781Y-70610776D01*
X64921522Y-70805465D01*
X64902171Y-70927648D01*
X64889500Y-71007648D01*
X64889500Y-71212352D01*
X64891767Y-71226666D01*
X64921522Y-71414534D01*
X64984781Y-71609223D01*
X65077715Y-71791613D01*
X65198028Y-71957213D01*
X65342786Y-72101971D01*
X65461854Y-72188477D01*
X65508390Y-72222287D01*
X65624607Y-72281503D01*
X65690776Y-72315218D01*
X65690778Y-72315218D01*
X65690781Y-72315220D01*
X65783185Y-72345244D01*
X65885465Y-72378477D01*
X65948602Y-72388477D01*
X66087648Y-72410500D01*
X66087649Y-72410500D01*
X66292351Y-72410500D01*
X66292352Y-72410500D01*
X66494534Y-72378477D01*
X66689219Y-72315220D01*
X66871610Y-72222287D01*
X66964590Y-72154732D01*
X67037213Y-72101971D01*
X67037215Y-72101968D01*
X67037219Y-72101966D01*
X67181966Y-71957219D01*
X67181968Y-71957215D01*
X67181971Y-71957213D01*
X67295019Y-71801613D01*
X67302287Y-71791610D01*
X67395220Y-71609219D01*
X67458477Y-71414534D01*
X67490500Y-71212352D01*
X67490500Y-71007648D01*
X67460407Y-70817649D01*
X67458477Y-70805465D01*
X67398469Y-70620781D01*
X67395220Y-70610781D01*
X67395218Y-70610778D01*
X67395218Y-70610776D01*
X67337998Y-70498477D01*
X67302287Y-70428390D01*
X67263656Y-70375218D01*
X67181971Y-70262786D01*
X67061366Y-70142181D01*
X67027881Y-70080858D01*
X67032865Y-70011166D01*
X67074737Y-69955233D01*
X67140201Y-69930816D01*
X67149047Y-69930500D01*
X68870953Y-69930500D01*
X68937992Y-69950185D01*
X68983747Y-70002989D01*
X68993691Y-70072147D01*
X68964666Y-70135703D01*
X68958634Y-70142181D01*
X68828032Y-70272782D01*
X68828028Y-70272786D01*
X68707715Y-70438386D01*
X68614781Y-70620776D01*
X68551522Y-70815465D01*
X68519500Y-71017648D01*
X68519500Y-71222351D01*
X68551522Y-71424534D01*
X68614781Y-71619223D01*
X68661857Y-71711613D01*
X68702619Y-71791613D01*
X68707715Y-71801613D01*
X68828028Y-71967213D01*
X68972786Y-72111971D01*
X69078090Y-72188477D01*
X69138390Y-72232287D01*
X69235975Y-72282009D01*
X69320776Y-72325218D01*
X69320778Y-72325218D01*
X69320781Y-72325220D01*
X69382409Y-72345244D01*
X69515465Y-72388477D01*
X69616557Y-72404488D01*
X69717648Y-72420500D01*
X69717649Y-72420500D01*
X69922350Y-72420500D01*
X69922352Y-72420500D01*
X70039068Y-72402013D01*
X70108361Y-72410967D01*
X70146147Y-72436805D01*
X70183454Y-72474112D01*
X70298192Y-72550777D01*
X70425667Y-72603578D01*
X70425672Y-72603580D01*
X70425676Y-72603580D01*
X70425677Y-72603581D01*
X70561003Y-72630500D01*
X70561006Y-72630500D01*
X70561007Y-72630500D01*
X73917186Y-72630500D01*
X73984225Y-72650185D01*
X74029980Y-72702989D01*
X74039924Y-72772147D01*
X74017504Y-72827385D01*
X73987715Y-72868386D01*
X73894781Y-73050776D01*
X73831522Y-73245465D01*
X73799500Y-73447648D01*
X73799500Y-73652352D01*
X73800417Y-73658141D01*
X73831522Y-73854534D01*
X73894781Y-74049223D01*
X73917655Y-74094114D01*
X73987585Y-74231359D01*
X73987715Y-74231613D01*
X74108028Y-74397213D01*
X74252786Y-74541971D01*
X74373226Y-74629474D01*
X74418390Y-74662287D01*
X74534607Y-74721503D01*
X74600776Y-74755218D01*
X74600778Y-74755218D01*
X74600781Y-74755220D01*
X74705137Y-74789127D01*
X74795465Y-74818477D01*
X74821882Y-74822661D01*
X74997648Y-74850500D01*
X74997649Y-74850500D01*
X75202351Y-74850500D01*
X75202352Y-74850500D01*
X75404534Y-74818477D01*
X75599219Y-74755220D01*
X75781610Y-74662287D01*
X75874590Y-74594732D01*
X75947213Y-74541971D01*
X75947215Y-74541968D01*
X75947219Y-74541966D01*
X76091966Y-74397219D01*
X76161425Y-74301615D01*
X76216755Y-74258949D01*
X76261744Y-74250500D01*
X76908996Y-74250500D01*
X77005271Y-74231349D01*
X77044328Y-74223580D01*
X77108069Y-74197177D01*
X77171807Y-74170777D01*
X77171808Y-74170776D01*
X77171811Y-74170775D01*
X77286543Y-74094114D01*
X77602629Y-73778028D01*
X77932976Y-73447682D01*
X81420000Y-73447682D01*
X81420000Y-73652317D01*
X81452009Y-73854417D01*
X81515244Y-74049031D01*
X81608141Y-74231350D01*
X81608147Y-74231359D01*
X81640523Y-74275921D01*
X81640524Y-74275922D01*
X82320000Y-73596446D01*
X82320000Y-73602661D01*
X82347259Y-73704394D01*
X82399920Y-73795606D01*
X82474394Y-73870080D01*
X82565606Y-73922741D01*
X82667339Y-73950000D01*
X82673553Y-73950000D01*
X81994076Y-74629474D01*
X82038650Y-74661859D01*
X82220968Y-74754755D01*
X82415582Y-74817990D01*
X82617683Y-74850000D01*
X82822317Y-74850000D01*
X83024417Y-74817990D01*
X83219031Y-74754755D01*
X83389921Y-74667682D01*
X98890000Y-74667682D01*
X98890000Y-74872317D01*
X98922009Y-75074417D01*
X98985244Y-75269031D01*
X99078141Y-75451350D01*
X99078147Y-75451359D01*
X99110523Y-75495921D01*
X99110524Y-75495922D01*
X99790000Y-74816446D01*
X99790000Y-74822661D01*
X99817259Y-74924394D01*
X99869920Y-75015606D01*
X99944394Y-75090080D01*
X100035606Y-75142741D01*
X100137339Y-75170000D01*
X100143553Y-75170000D01*
X99464076Y-75849474D01*
X99508650Y-75881859D01*
X99690968Y-75974755D01*
X99885582Y-76037990D01*
X100087683Y-76070000D01*
X100292317Y-76070000D01*
X100494417Y-76037990D01*
X100689031Y-75974755D01*
X100871349Y-75881859D01*
X100915921Y-75849474D01*
X100236447Y-75170000D01*
X100242661Y-75170000D01*
X100344394Y-75142741D01*
X100435606Y-75090080D01*
X100510080Y-75015606D01*
X100562741Y-74924394D01*
X100590000Y-74822661D01*
X100590000Y-74816448D01*
X101269474Y-75495922D01*
X101269474Y-75495921D01*
X101301859Y-75451349D01*
X101394755Y-75269031D01*
X101457990Y-75074417D01*
X101490000Y-74872317D01*
X101490000Y-74667682D01*
X101457990Y-74465582D01*
X101394755Y-74270968D01*
X101301859Y-74088650D01*
X101269474Y-74044077D01*
X101269474Y-74044076D01*
X100590000Y-74723551D01*
X100590000Y-74717339D01*
X100562741Y-74615606D01*
X100510080Y-74524394D01*
X100435606Y-74449920D01*
X100344394Y-74397259D01*
X100242661Y-74370000D01*
X100236446Y-74370000D01*
X100915922Y-73690524D01*
X100915921Y-73690523D01*
X100871359Y-73658147D01*
X100871350Y-73658141D01*
X100689031Y-73565244D01*
X100494417Y-73502009D01*
X100292317Y-73470000D01*
X100087683Y-73470000D01*
X99885582Y-73502009D01*
X99690968Y-73565244D01*
X99508644Y-73658143D01*
X99464077Y-73690523D01*
X99464077Y-73690524D01*
X100143554Y-74370000D01*
X100137339Y-74370000D01*
X100035606Y-74397259D01*
X99944394Y-74449920D01*
X99869920Y-74524394D01*
X99817259Y-74615606D01*
X99790000Y-74717339D01*
X99790000Y-74723553D01*
X99110524Y-74044077D01*
X99110523Y-74044077D01*
X99078143Y-74088644D01*
X98985244Y-74270968D01*
X98922009Y-74465582D01*
X98890000Y-74667682D01*
X83389921Y-74667682D01*
X83401349Y-74661859D01*
X83445922Y-74629474D01*
X82766447Y-73950000D01*
X82772661Y-73950000D01*
X82874394Y-73922741D01*
X82965606Y-73870080D01*
X83040080Y-73795606D01*
X83092741Y-73704394D01*
X83120000Y-73602661D01*
X83120000Y-73596447D01*
X83799474Y-74275921D01*
X83831859Y-74231349D01*
X83924755Y-74049031D01*
X83987990Y-73854417D01*
X84009536Y-73718385D01*
X84020000Y-73652317D01*
X84020000Y-73447682D01*
X83987990Y-73245582D01*
X83924755Y-73050968D01*
X83831859Y-72868650D01*
X83799474Y-72824077D01*
X83799474Y-72824076D01*
X83120000Y-73503551D01*
X83120000Y-73497339D01*
X83092741Y-73395606D01*
X83040080Y-73304394D01*
X82965606Y-73229920D01*
X82874394Y-73177259D01*
X82772661Y-73150000D01*
X82766446Y-73150000D01*
X83445922Y-72470524D01*
X83445921Y-72470523D01*
X83401359Y-72438147D01*
X83401350Y-72438141D01*
X83219031Y-72345244D01*
X83024417Y-72282009D01*
X82822317Y-72250000D01*
X82617683Y-72250000D01*
X82415582Y-72282009D01*
X82220968Y-72345244D01*
X82038644Y-72438143D01*
X81994077Y-72470523D01*
X81994077Y-72470524D01*
X82673554Y-73150000D01*
X82667339Y-73150000D01*
X82565606Y-73177259D01*
X82474394Y-73229920D01*
X82399920Y-73304394D01*
X82347259Y-73395606D01*
X82320000Y-73497339D01*
X82320000Y-73503553D01*
X81640524Y-72824077D01*
X81640523Y-72824077D01*
X81608143Y-72868644D01*
X81515244Y-73050968D01*
X81452009Y-73245582D01*
X81420000Y-73447682D01*
X77932976Y-73447682D01*
X78025523Y-73355135D01*
X78950555Y-72430102D01*
X79669047Y-71711610D01*
X80453009Y-70927648D01*
X87469500Y-70927648D01*
X87469500Y-71132351D01*
X87501522Y-71334534D01*
X87564781Y-71529223D01*
X87657715Y-71711613D01*
X87778028Y-71877213D01*
X87922786Y-72021971D01*
X88032892Y-72101966D01*
X88088390Y-72142287D01*
X88179043Y-72188477D01*
X88270776Y-72235218D01*
X88270778Y-72235218D01*
X88270781Y-72235220D01*
X88375137Y-72269127D01*
X88465465Y-72298477D01*
X88566557Y-72314488D01*
X88667648Y-72330500D01*
X88667649Y-72330500D01*
X88872351Y-72330500D01*
X88872352Y-72330500D01*
X89074534Y-72298477D01*
X89269219Y-72235220D01*
X89451610Y-72142287D01*
X89544590Y-72074732D01*
X89617213Y-72021971D01*
X89617215Y-72021968D01*
X89617219Y-72021966D01*
X89761966Y-71877219D01*
X89761968Y-71877215D01*
X89761971Y-71877213D01*
X89841891Y-71767211D01*
X89882287Y-71711610D01*
X89975220Y-71529219D01*
X90038477Y-71334534D01*
X90070500Y-71132352D01*
X90070500Y-70927648D01*
X90053078Y-70817649D01*
X90038477Y-70725465D01*
X90002736Y-70615466D01*
X89975220Y-70530781D01*
X89975218Y-70530778D01*
X89975218Y-70530776D01*
X89941503Y-70464607D01*
X89882287Y-70348390D01*
X89827358Y-70272786D01*
X89761971Y-70182786D01*
X89617213Y-70038028D01*
X89451613Y-69917715D01*
X89451612Y-69917714D01*
X89451610Y-69917713D01*
X89394653Y-69888691D01*
X89269223Y-69824781D01*
X89074534Y-69761522D01*
X88899995Y-69733878D01*
X88872352Y-69729500D01*
X88667648Y-69729500D01*
X88643329Y-69733351D01*
X88465465Y-69761522D01*
X88270776Y-69824781D01*
X88088386Y-69917715D01*
X87922786Y-70038028D01*
X87778028Y-70182786D01*
X87657715Y-70348386D01*
X87564781Y-70530776D01*
X87501522Y-70725465D01*
X87469500Y-70927648D01*
X80453009Y-70927648D01*
X81388782Y-69991874D01*
X81450103Y-69958391D01*
X81519795Y-69963375D01*
X81575728Y-70005247D01*
X81576754Y-70006638D01*
X81580044Y-70011166D01*
X81628030Y-70077215D01*
X81772786Y-70221971D01*
X81855806Y-70282287D01*
X81938390Y-70342287D01*
X82003021Y-70375218D01*
X82120776Y-70435218D01*
X82120778Y-70435218D01*
X82120781Y-70435220D01*
X82225137Y-70469127D01*
X82315465Y-70498477D01*
X82416557Y-70514488D01*
X82517648Y-70530500D01*
X82517649Y-70530500D01*
X82722351Y-70530500D01*
X82722352Y-70530500D01*
X82924534Y-70498477D01*
X83119219Y-70435220D01*
X83301610Y-70342287D01*
X83411042Y-70262781D01*
X83467213Y-70221971D01*
X83467215Y-70221968D01*
X83467219Y-70221966D01*
X83611966Y-70077219D01*
X83611968Y-70077215D01*
X83611971Y-70077213D01*
X83681425Y-69981616D01*
X83732287Y-69911610D01*
X83825220Y-69729219D01*
X83888477Y-69534534D01*
X83920500Y-69332352D01*
X83920500Y-69127648D01*
X83907515Y-69045663D01*
X83888477Y-68925465D01*
X83825218Y-68730776D01*
X83763284Y-68609225D01*
X83732287Y-68548390D01*
X83704261Y-68509815D01*
X83611971Y-68382786D01*
X83467213Y-68238028D01*
X83301613Y-68117715D01*
X83301612Y-68117714D01*
X83301610Y-68117713D01*
X83231755Y-68082120D01*
X83119223Y-68024781D01*
X82924534Y-67961522D01*
X82749995Y-67933878D01*
X82722352Y-67929500D01*
X82517648Y-67929500D01*
X82493329Y-67933351D01*
X82315465Y-67961522D01*
X82120776Y-68024781D01*
X81938386Y-68117715D01*
X81772786Y-68238028D01*
X81628030Y-68382784D01*
X81558575Y-68478384D01*
X81503245Y-68521051D01*
X81458256Y-68529500D01*
X81091004Y-68529500D01*
X80955677Y-68556418D01*
X80955672Y-68556420D01*
X80941949Y-68562104D01*
X80872479Y-68569570D01*
X80810001Y-68538293D01*
X80774351Y-68478203D01*
X80770500Y-68447541D01*
X80770500Y-63861519D01*
X80790185Y-63794480D01*
X80806819Y-63773838D01*
X81353838Y-63226819D01*
X81380765Y-63212115D01*
X81406584Y-63195523D01*
X81412784Y-63194631D01*
X81415161Y-63193334D01*
X81441519Y-63190500D01*
X81633256Y-63190500D01*
X81700295Y-63210185D01*
X81733575Y-63241616D01*
X81803030Y-63337215D01*
X81947786Y-63481971D01*
X82102749Y-63594556D01*
X82113390Y-63602287D01*
X82187406Y-63640000D01*
X82206080Y-63649515D01*
X82256876Y-63697490D01*
X82273671Y-63765311D01*
X82251134Y-63831446D01*
X82206080Y-63870485D01*
X82113386Y-63917715D01*
X81947786Y-64038028D01*
X81803028Y-64182786D01*
X81682715Y-64348386D01*
X81589781Y-64530776D01*
X81526522Y-64725465D01*
X81494500Y-64927648D01*
X81494500Y-65132351D01*
X81526522Y-65334534D01*
X81589781Y-65529223D01*
X81682715Y-65711613D01*
X81803028Y-65877213D01*
X81947786Y-66021971D01*
X82093275Y-66127673D01*
X82113390Y-66142287D01*
X82229607Y-66201503D01*
X82295776Y-66235218D01*
X82295778Y-66235218D01*
X82295781Y-66235220D01*
X82389469Y-66265661D01*
X82490465Y-66298477D01*
X82591557Y-66314488D01*
X82692648Y-66330500D01*
X82692649Y-66330500D01*
X82897351Y-66330500D01*
X82897352Y-66330500D01*
X83099534Y-66298477D01*
X83294219Y-66235220D01*
X83476610Y-66142287D01*
X83569590Y-66074732D01*
X83642213Y-66021971D01*
X83642215Y-66021968D01*
X83642219Y-66021966D01*
X83786966Y-65877219D01*
X83856425Y-65781615D01*
X83911755Y-65738949D01*
X83956744Y-65730500D01*
X84708481Y-65730500D01*
X84775520Y-65750185D01*
X84796162Y-65766819D01*
X86873453Y-67844111D01*
X86873454Y-67844112D01*
X86988192Y-67920777D01*
X87094429Y-67964781D01*
X87115672Y-67973580D01*
X87115676Y-67973580D01*
X87115677Y-67973581D01*
X87251003Y-68000500D01*
X87251006Y-68000500D01*
X87251007Y-68000500D01*
X87698256Y-68000500D01*
X87765295Y-68020185D01*
X87798574Y-68051615D01*
X87803006Y-68057715D01*
X87868030Y-68147215D01*
X88012786Y-68291971D01*
X88137778Y-68382781D01*
X88178390Y-68412287D01*
X88294607Y-68471503D01*
X88360776Y-68505218D01*
X88360778Y-68505218D01*
X88360781Y-68505220D01*
X88409504Y-68521051D01*
X88555465Y-68568477D01*
X88631375Y-68580500D01*
X88757648Y-68600500D01*
X88757649Y-68600500D01*
X88962351Y-68600500D01*
X88962352Y-68600500D01*
X89164534Y-68568477D01*
X89359219Y-68505220D01*
X89541610Y-68412287D01*
X89664799Y-68322786D01*
X89707213Y-68291971D01*
X89707215Y-68291968D01*
X89707219Y-68291966D01*
X89851966Y-68147219D01*
X89851968Y-68147215D01*
X89851971Y-68147213D01*
X89930595Y-68038994D01*
X89972287Y-67981610D01*
X90065220Y-67799219D01*
X90128477Y-67604534D01*
X90160500Y-67402352D01*
X90160500Y-67197648D01*
X90157332Y-67177648D01*
X91289500Y-67177648D01*
X91289500Y-67382351D01*
X91321522Y-67584534D01*
X91384781Y-67779223D01*
X91446834Y-67901006D01*
X91477668Y-67961522D01*
X91477715Y-67961613D01*
X91598028Y-68127213D01*
X91742786Y-68271971D01*
X91895306Y-68382781D01*
X91908390Y-68392287D01*
X92016832Y-68447541D01*
X92090776Y-68485218D01*
X92090778Y-68485218D01*
X92090781Y-68485220D01*
X92152329Y-68505218D01*
X92285465Y-68548477D01*
X92335615Y-68556420D01*
X92487648Y-68580500D01*
X92487649Y-68580500D01*
X92692351Y-68580500D01*
X92692352Y-68580500D01*
X92894534Y-68548477D01*
X93089219Y-68485220D01*
X93271610Y-68392287D01*
X93396146Y-68301807D01*
X93437213Y-68271971D01*
X93437215Y-68271968D01*
X93437219Y-68271966D01*
X93581966Y-68127219D01*
X93581968Y-68127215D01*
X93581971Y-68127213D01*
X93656391Y-68024781D01*
X93702287Y-67961610D01*
X93795220Y-67779219D01*
X93858477Y-67584534D01*
X93890500Y-67382352D01*
X93890500Y-67177648D01*
X93858477Y-66975466D01*
X93849080Y-66946546D01*
X93829127Y-66885137D01*
X93795220Y-66780781D01*
X93795218Y-66780778D01*
X93795218Y-66780776D01*
X93725125Y-66643213D01*
X93702287Y-66598390D01*
X93680930Y-66568994D01*
X93581971Y-66432786D01*
X93437213Y-66288028D01*
X93271613Y-66167715D01*
X93271612Y-66167714D01*
X93271610Y-66167713D01*
X93214653Y-66138691D01*
X93089223Y-66074781D01*
X92894534Y-66011522D01*
X92719995Y-65983878D01*
X92692352Y-65979500D01*
X92487648Y-65979500D01*
X92463329Y-65983351D01*
X92285465Y-66011522D01*
X92090776Y-66074781D01*
X91908386Y-66167715D01*
X91742786Y-66288028D01*
X91598028Y-66432786D01*
X91477715Y-66598386D01*
X91384781Y-66780776D01*
X91321522Y-66975465D01*
X91289500Y-67177648D01*
X90157332Y-67177648D01*
X90128477Y-66995466D01*
X90121978Y-66975465D01*
X90065218Y-66800776D01*
X90031503Y-66734607D01*
X89972287Y-66618390D01*
X89939188Y-66572833D01*
X89851971Y-66452786D01*
X89707213Y-66308028D01*
X89541613Y-66187715D01*
X89541612Y-66187714D01*
X89541610Y-66187713D01*
X89452451Y-66142284D01*
X89359223Y-66094781D01*
X89164534Y-66031522D01*
X88989995Y-66003878D01*
X88962352Y-65999500D01*
X88757648Y-65999500D01*
X88733329Y-66003351D01*
X88555465Y-66031522D01*
X88360776Y-66094781D01*
X88178386Y-66187715D01*
X88012786Y-66308028D01*
X87868030Y-66452784D01*
X87798575Y-66548384D01*
X87794242Y-66551725D01*
X87791969Y-66556703D01*
X87766869Y-66572833D01*
X87743245Y-66591051D01*
X87736571Y-66592304D01*
X87733191Y-66594477D01*
X87698256Y-66599500D01*
X87661519Y-66599500D01*
X87594480Y-66579815D01*
X87573838Y-66563181D01*
X85496546Y-64485888D01*
X85496545Y-64485887D01*
X85381807Y-64409222D01*
X85254332Y-64356421D01*
X85254322Y-64356418D01*
X85118996Y-64329500D01*
X85118994Y-64329500D01*
X85118993Y-64329500D01*
X83956744Y-64329500D01*
X83889705Y-64309815D01*
X83856425Y-64278384D01*
X83786969Y-64182784D01*
X83642213Y-64038028D01*
X83476614Y-63917715D01*
X83422220Y-63890000D01*
X83383917Y-63870483D01*
X83333123Y-63822511D01*
X83316328Y-63754690D01*
X83338865Y-63688555D01*
X83383917Y-63649516D01*
X83476610Y-63602287D01*
X83598128Y-63514000D01*
X83642213Y-63481971D01*
X83642215Y-63481968D01*
X83642219Y-63481966D01*
X83786966Y-63337219D01*
X83856425Y-63241615D01*
X83911755Y-63198949D01*
X83956744Y-63190500D01*
X84868996Y-63190500D01*
X84963959Y-63171610D01*
X85004328Y-63163580D01*
X85068069Y-63137177D01*
X85131807Y-63110777D01*
X85131808Y-63110776D01*
X85131811Y-63110775D01*
X85246543Y-63034114D01*
X87224113Y-61056543D01*
X87225593Y-61054329D01*
X87300775Y-60941811D01*
X87338597Y-60850500D01*
X87353580Y-60814329D01*
X87360208Y-60781006D01*
X87380500Y-60678993D01*
X87380500Y-60117977D01*
X87400185Y-60050938D01*
X87452989Y-60005183D01*
X87522147Y-59995239D01*
X87585703Y-60024264D01*
X87622430Y-60079658D01*
X87654780Y-60179219D01*
X87744937Y-60356162D01*
X87747715Y-60361613D01*
X87868028Y-60527213D01*
X88012786Y-60671971D01*
X88124014Y-60752781D01*
X88178390Y-60792287D01*
X88290626Y-60849474D01*
X88360776Y-60885218D01*
X88360778Y-60885218D01*
X88360781Y-60885220D01*
X88462855Y-60918386D01*
X88555465Y-60948477D01*
X88624821Y-60959462D01*
X88757648Y-60980500D01*
X88757649Y-60980500D01*
X88962351Y-60980500D01*
X88962352Y-60980500D01*
X89164534Y-60948477D01*
X89359219Y-60885220D01*
X89541610Y-60792287D01*
X89697546Y-60678994D01*
X89707213Y-60671971D01*
X89707215Y-60671968D01*
X89707219Y-60671966D01*
X89851966Y-60527219D01*
X89921425Y-60431615D01*
X89976755Y-60388949D01*
X90021744Y-60380500D01*
X91442787Y-60380500D01*
X91509826Y-60400185D01*
X91543106Y-60431616D01*
X91598030Y-60507215D01*
X91742786Y-60651971D01*
X91869061Y-60743713D01*
X91908390Y-60772287D01*
X91990902Y-60814329D01*
X92090776Y-60865218D01*
X92090778Y-60865218D01*
X92090781Y-60865220D01*
X92141991Y-60881859D01*
X92285465Y-60928477D01*
X92369652Y-60941811D01*
X92487648Y-60960500D01*
X92487649Y-60960500D01*
X92692351Y-60960500D01*
X92692352Y-60960500D01*
X92894534Y-60928477D01*
X93089219Y-60865220D01*
X93271610Y-60772287D01*
X93400018Y-60678994D01*
X93437213Y-60651971D01*
X93437215Y-60651968D01*
X93437219Y-60651966D01*
X93581966Y-60507219D01*
X93581968Y-60507215D01*
X93581971Y-60507213D01*
X93674032Y-60380500D01*
X93702287Y-60341610D01*
X93795220Y-60159219D01*
X93858477Y-59964534D01*
X93890500Y-59762352D01*
X93890500Y-59557648D01*
X93884140Y-59517491D01*
X93858477Y-59355465D01*
X93801718Y-59180781D01*
X93795220Y-59160781D01*
X93795218Y-59160778D01*
X93795218Y-59160776D01*
X93734877Y-59042352D01*
X93702287Y-58978390D01*
X93636360Y-58887648D01*
X93581971Y-58812786D01*
X93437213Y-58668028D01*
X93271613Y-58547715D01*
X93271612Y-58547714D01*
X93271610Y-58547713D01*
X93214653Y-58518691D01*
X93089223Y-58454781D01*
X92894534Y-58391522D01*
X92719995Y-58363878D01*
X92692352Y-58359500D01*
X92487648Y-58359500D01*
X92463329Y-58363351D01*
X92285465Y-58391522D01*
X92090776Y-58454781D01*
X91908386Y-58547715D01*
X91742786Y-58668028D01*
X91598034Y-58812780D01*
X91549749Y-58879239D01*
X91514042Y-58928385D01*
X91458714Y-58971051D01*
X91413725Y-58979500D01*
X90021744Y-58979500D01*
X89954705Y-58959815D01*
X89921425Y-58928384D01*
X89851969Y-58832784D01*
X89707217Y-58688032D01*
X89707215Y-58688031D01*
X89679258Y-58667718D01*
X89636593Y-58612388D01*
X89630615Y-58542774D01*
X89663222Y-58480980D01*
X89664333Y-58479851D01*
X89786966Y-58357219D01*
X89907287Y-58191610D01*
X90000220Y-58009219D01*
X90063477Y-57814534D01*
X90095500Y-57612352D01*
X90095500Y-57407648D01*
X90063477Y-57205466D01*
X90000220Y-57010781D01*
X90000218Y-57010778D01*
X90000218Y-57010776D01*
X89956537Y-56925049D01*
X89907287Y-56828390D01*
X89886736Y-56800104D01*
X89786971Y-56662786D01*
X89642213Y-56518028D01*
X89476613Y-56397715D01*
X89476612Y-56397714D01*
X89476610Y-56397713D01*
X89419653Y-56368691D01*
X89294223Y-56304781D01*
X89099534Y-56241522D01*
X88924995Y-56213878D01*
X88897352Y-56209500D01*
X88692648Y-56209500D01*
X88668329Y-56213351D01*
X88490465Y-56241522D01*
X88295776Y-56304781D01*
X88113386Y-56397715D01*
X87947786Y-56518028D01*
X87803030Y-56662784D01*
X87733575Y-56758384D01*
X87678245Y-56801051D01*
X87633256Y-56809500D01*
X87221003Y-56809500D01*
X87112590Y-56831065D01*
X87112589Y-56831065D01*
X87085671Y-56836420D01*
X86958190Y-56889224D01*
X86843454Y-56965887D01*
X86135887Y-57673454D01*
X86059222Y-57788192D01*
X86006421Y-57915667D01*
X86006418Y-57915679D01*
X85986176Y-58017445D01*
X85986176Y-58017448D01*
X85979500Y-58051004D01*
X85979500Y-60268481D01*
X85959815Y-60335520D01*
X85943181Y-60356162D01*
X84546162Y-61753181D01*
X84484839Y-61786666D01*
X84458481Y-61789500D01*
X83956744Y-61789500D01*
X83889705Y-61769815D01*
X83856425Y-61738384D01*
X83786969Y-61642784D01*
X83642213Y-61498028D01*
X83476614Y-61377715D01*
X83458356Y-61368412D01*
X83383917Y-61330483D01*
X83333123Y-61282511D01*
X83316328Y-61214690D01*
X83338865Y-61148555D01*
X83383917Y-61109516D01*
X83476610Y-61062287D01*
X83527014Y-61025667D01*
X83642213Y-60941971D01*
X83642215Y-60941968D01*
X83642219Y-60941966D01*
X83786966Y-60797219D01*
X83786968Y-60797215D01*
X83786971Y-60797213D01*
X83839732Y-60724590D01*
X83907287Y-60631610D01*
X84000220Y-60449219D01*
X84063477Y-60254534D01*
X84095500Y-60052352D01*
X84095500Y-59847648D01*
X84091104Y-59819896D01*
X84063477Y-59645465D01*
X84018013Y-59505542D01*
X84000220Y-59450781D01*
X84000218Y-59450778D01*
X84000218Y-59450776D01*
X83956621Y-59365214D01*
X83907287Y-59268390D01*
X83850183Y-59189792D01*
X83786971Y-59102786D01*
X83642213Y-58958028D01*
X83476611Y-58837713D01*
X83383369Y-58790203D01*
X83332574Y-58742229D01*
X83315779Y-58674407D01*
X83338317Y-58608273D01*
X83383371Y-58569234D01*
X83476346Y-58521861D01*
X83476347Y-58521861D01*
X83520921Y-58489474D01*
X82841447Y-57810000D01*
X82847661Y-57810000D01*
X82949394Y-57782741D01*
X83040606Y-57730080D01*
X83115080Y-57655606D01*
X83167741Y-57564394D01*
X83195000Y-57462661D01*
X83195000Y-57456447D01*
X83874474Y-58135921D01*
X83906859Y-58091349D01*
X83999755Y-57909031D01*
X84062990Y-57714417D01*
X84095000Y-57512317D01*
X84095000Y-57307682D01*
X84062990Y-57105582D01*
X83999755Y-56910968D01*
X83906859Y-56728650D01*
X83874474Y-56684077D01*
X83874474Y-56684076D01*
X83195000Y-57363551D01*
X83195000Y-57357339D01*
X83167741Y-57255606D01*
X83115080Y-57164394D01*
X83040606Y-57089920D01*
X82949394Y-57037259D01*
X82847661Y-57010000D01*
X82841446Y-57010000D01*
X83520922Y-56330524D01*
X83520921Y-56330523D01*
X83476359Y-56298147D01*
X83476350Y-56298141D01*
X83383369Y-56250765D01*
X83332573Y-56202790D01*
X83315778Y-56134969D01*
X83338315Y-56068835D01*
X83383370Y-56029795D01*
X83383920Y-56029515D01*
X83476610Y-55982287D01*
X83476613Y-55982285D01*
X83476614Y-55982285D01*
X83642213Y-55861971D01*
X83642215Y-55861968D01*
X83642219Y-55861966D01*
X83786966Y-55717219D01*
X83786968Y-55717215D01*
X83786971Y-55717213D01*
X83839732Y-55644590D01*
X83907287Y-55551610D01*
X84000220Y-55369219D01*
X84063477Y-55174534D01*
X84095500Y-54972352D01*
X84095500Y-54767648D01*
X84091104Y-54739896D01*
X84063477Y-54565465D01*
X84028836Y-54458852D01*
X84000220Y-54370781D01*
X84000218Y-54370778D01*
X84000218Y-54370776D01*
X83956275Y-54284534D01*
X83907287Y-54188390D01*
X83850183Y-54109792D01*
X83786971Y-54022786D01*
X83642213Y-53878028D01*
X83476614Y-53757715D01*
X83458356Y-53748412D01*
X83383917Y-53710483D01*
X83333123Y-53662511D01*
X83316328Y-53594690D01*
X83338865Y-53528555D01*
X83383917Y-53489516D01*
X83476610Y-53442287D01*
X83622508Y-53336287D01*
X83642213Y-53321971D01*
X83642215Y-53321968D01*
X83642219Y-53321966D01*
X83786966Y-53177219D01*
X83786968Y-53177215D01*
X83786971Y-53177213D01*
X83856425Y-53081616D01*
X83907287Y-53011610D01*
X84000220Y-52829219D01*
X84063477Y-52634534D01*
X84095500Y-52432352D01*
X84095500Y-52227648D01*
X84063477Y-52025466D01*
X84060296Y-52015677D01*
X84018872Y-51888187D01*
X84000220Y-51830781D01*
X84000218Y-51830778D01*
X84000218Y-51830776D01*
X83944103Y-51720646D01*
X83907287Y-51648390D01*
X83871752Y-51599480D01*
X83786971Y-51482786D01*
X83642217Y-51338032D01*
X83642212Y-51338028D01*
X83546615Y-51268573D01*
X83543274Y-51264241D01*
X83538297Y-51261968D01*
X83522164Y-51236865D01*
X83503949Y-51213243D01*
X83502696Y-51206571D01*
X83500523Y-51203190D01*
X83495500Y-51168255D01*
X83495500Y-50951744D01*
X83515185Y-50884705D01*
X83546615Y-50851426D01*
X83642215Y-50781969D01*
X83642215Y-50781968D01*
X83642219Y-50781966D01*
X83786966Y-50637219D01*
X83856425Y-50541615D01*
X83911755Y-50498949D01*
X83956744Y-50490500D01*
X87565398Y-50490500D01*
X87632437Y-50510185D01*
X87675883Y-50558205D01*
X87682715Y-50571614D01*
X87803028Y-50737213D01*
X87947786Y-50881971D01*
X88094489Y-50988555D01*
X88113390Y-51002287D01*
X88194962Y-51043850D01*
X88295776Y-51095218D01*
X88295778Y-51095218D01*
X88295781Y-51095220D01*
X88361413Y-51116545D01*
X88490465Y-51158477D01*
X88566280Y-51170485D01*
X88692648Y-51190500D01*
X88692649Y-51190500D01*
X88897351Y-51190500D01*
X88897352Y-51190500D01*
X89099534Y-51158477D01*
X89294219Y-51095220D01*
X89476610Y-51002287D01*
X89608780Y-50906261D01*
X89642213Y-50881971D01*
X89642215Y-50881968D01*
X89642219Y-50881966D01*
X89786966Y-50737219D01*
X89786968Y-50737215D01*
X89786971Y-50737213D01*
X89858772Y-50638386D01*
X89907287Y-50571610D01*
X89999814Y-50390016D01*
X90000218Y-50389223D01*
X90000218Y-50389222D01*
X90000220Y-50389219D01*
X90063477Y-50194534D01*
X90095500Y-49992352D01*
X90095500Y-49787648D01*
X90079781Y-49688401D01*
X90063477Y-49585465D01*
X90030985Y-49485465D01*
X90000220Y-49390781D01*
X90000218Y-49390778D01*
X90000218Y-49390776D01*
X89932418Y-49257713D01*
X89907287Y-49208390D01*
X89893920Y-49189992D01*
X89786971Y-49042786D01*
X89642213Y-48898028D01*
X89476613Y-48777715D01*
X89476612Y-48777714D01*
X89476610Y-48777713D01*
X89403034Y-48740224D01*
X89294223Y-48684781D01*
X89099534Y-48621522D01*
X88924995Y-48593878D01*
X88897352Y-48589500D01*
X88692648Y-48589500D01*
X88668329Y-48593351D01*
X88490465Y-48621522D01*
X88295776Y-48684781D01*
X88113386Y-48777715D01*
X87947786Y-48898028D01*
X87803035Y-49042779D01*
X87800252Y-49046038D01*
X87741742Y-49084227D01*
X87705967Y-49089500D01*
X83956744Y-49089500D01*
X83889705Y-49069815D01*
X83856425Y-49038384D01*
X83786969Y-48942784D01*
X83642213Y-48798028D01*
X83476613Y-48677715D01*
X83476612Y-48677714D01*
X83476610Y-48677713D01*
X83416762Y-48647219D01*
X83294223Y-48584781D01*
X83099534Y-48521522D01*
X82924995Y-48493878D01*
X82897352Y-48489500D01*
X82692648Y-48489500D01*
X82668329Y-48493351D01*
X82490465Y-48521522D01*
X82295776Y-48584781D01*
X82113386Y-48677715D01*
X81947786Y-48798028D01*
X81803028Y-48942786D01*
X81682715Y-49108386D01*
X81589781Y-49290776D01*
X81526522Y-49485465D01*
X81494500Y-49687648D01*
X81494500Y-49739480D01*
X81474815Y-49806519D01*
X81422011Y-49852274D01*
X81352853Y-49862218D01*
X81289297Y-49833193D01*
X81282819Y-49827161D01*
X79153306Y-47697648D01*
X92109500Y-47697648D01*
X92109500Y-47902351D01*
X92141522Y-48104534D01*
X92204781Y-48299223D01*
X92268691Y-48424653D01*
X92297585Y-48481359D01*
X92297715Y-48481613D01*
X92418028Y-48647213D01*
X92562784Y-48791969D01*
X92658385Y-48861426D01*
X92701051Y-48916755D01*
X92709500Y-48961744D01*
X92709500Y-50601006D01*
X92709500Y-50738994D01*
X92709500Y-50738996D01*
X92709499Y-50738996D01*
X92736418Y-50874322D01*
X92736421Y-50874332D01*
X92789222Y-51001807D01*
X92865887Y-51116545D01*
X92865888Y-51116546D01*
X94223181Y-52473838D01*
X94256666Y-52535161D01*
X94259500Y-52561519D01*
X94259500Y-69531006D01*
X94259500Y-69668994D01*
X94259500Y-69668996D01*
X94259499Y-69668996D01*
X94286418Y-69804322D01*
X94286421Y-69804332D01*
X94339222Y-69931807D01*
X94415887Y-70046545D01*
X94415888Y-70046546D01*
X95073194Y-70703850D01*
X95106679Y-70765173D01*
X95107986Y-70810929D01*
X95089500Y-70927642D01*
X95089500Y-71132351D01*
X95121522Y-71334534D01*
X95184781Y-71529223D01*
X95277715Y-71711613D01*
X95398028Y-71877213D01*
X95542786Y-72021971D01*
X95652892Y-72101966D01*
X95708390Y-72142287D01*
X95799043Y-72188477D01*
X95890776Y-72235218D01*
X95890778Y-72235218D01*
X95890781Y-72235220D01*
X95995137Y-72269127D01*
X96085465Y-72298477D01*
X96186557Y-72314488D01*
X96287648Y-72330500D01*
X96287649Y-72330500D01*
X96492351Y-72330500D01*
X96492352Y-72330500D01*
X96694534Y-72298477D01*
X96889219Y-72235220D01*
X97071610Y-72142287D01*
X97164590Y-72074732D01*
X97237213Y-72021971D01*
X97237215Y-72021968D01*
X97237219Y-72021966D01*
X97381966Y-71877219D01*
X97381968Y-71877215D01*
X97381971Y-71877213D01*
X97461891Y-71767211D01*
X97502287Y-71711610D01*
X97595220Y-71529219D01*
X97658477Y-71334534D01*
X97690500Y-71132352D01*
X97690500Y-70927648D01*
X97673078Y-70817649D01*
X97658477Y-70725465D01*
X97622736Y-70615466D01*
X97595220Y-70530781D01*
X97595218Y-70530778D01*
X97595218Y-70530776D01*
X97561503Y-70464607D01*
X97502287Y-70348390D01*
X97447358Y-70272786D01*
X97381971Y-70182786D01*
X97237213Y-70038028D01*
X97071613Y-69917715D01*
X97071612Y-69917714D01*
X97071610Y-69917713D01*
X97014653Y-69888691D01*
X96889223Y-69824781D01*
X96694534Y-69761522D01*
X96519995Y-69733878D01*
X96492352Y-69729500D01*
X96287648Y-69729500D01*
X96287643Y-69729500D01*
X96170929Y-69747986D01*
X96101636Y-69739032D01*
X96063850Y-69713194D01*
X95881662Y-69531006D01*
X95696819Y-69346162D01*
X95663334Y-69284839D01*
X95660500Y-69258481D01*
X95660500Y-61497648D01*
X95989500Y-61497648D01*
X95989500Y-61702351D01*
X96021522Y-61904534D01*
X96084781Y-62099223D01*
X96177715Y-62281613D01*
X96298028Y-62447213D01*
X96442784Y-62591969D01*
X96538385Y-62661426D01*
X96581051Y-62716755D01*
X96589500Y-62761744D01*
X96589500Y-67901006D01*
X96589500Y-68038994D01*
X96589500Y-68038996D01*
X96589499Y-68038996D01*
X96616418Y-68174322D01*
X96616421Y-68174332D01*
X96669222Y-68301807D01*
X96745887Y-68416545D01*
X96745888Y-68416546D01*
X98923194Y-70593851D01*
X98956679Y-70655174D01*
X98957986Y-70700929D01*
X98939500Y-70817647D01*
X98939500Y-71022351D01*
X98971522Y-71224534D01*
X99034781Y-71419223D01*
X99127715Y-71601613D01*
X99248027Y-71767211D01*
X99248032Y-71767217D01*
X99392786Y-71911971D01*
X99530201Y-72011807D01*
X99558390Y-72032287D01*
X99674607Y-72091503D01*
X99740776Y-72125218D01*
X99740778Y-72125218D01*
X99740781Y-72125220D01*
X99793299Y-72142284D01*
X99935465Y-72188477D01*
X100036557Y-72204488D01*
X100137648Y-72220500D01*
X100137649Y-72220500D01*
X100342351Y-72220500D01*
X100342352Y-72220500D01*
X100544534Y-72188477D01*
X100739219Y-72125220D01*
X100921610Y-72032287D01*
X101024941Y-71957213D01*
X101087213Y-71911971D01*
X101087215Y-71911968D01*
X101087219Y-71911966D01*
X101231966Y-71767219D01*
X101231968Y-71767215D01*
X101231973Y-71767211D01*
X101303132Y-71669266D01*
X101352287Y-71601610D01*
X101445220Y-71419219D01*
X101508477Y-71224534D01*
X101540500Y-71022352D01*
X101540500Y-70817648D01*
X101508477Y-70615466D01*
X101445220Y-70420781D01*
X101445218Y-70420778D01*
X101445218Y-70420776D01*
X101405224Y-70342284D01*
X101352287Y-70238390D01*
X101296766Y-70161971D01*
X101231971Y-70072786D01*
X101087213Y-69928028D01*
X100921613Y-69807715D01*
X100921612Y-69807714D01*
X100921610Y-69807713D01*
X100855668Y-69774114D01*
X100739223Y-69714781D01*
X100544534Y-69651522D01*
X100369995Y-69623878D01*
X100342352Y-69619500D01*
X100137648Y-69619500D01*
X100020929Y-69637986D01*
X99951636Y-69629031D01*
X99913851Y-69603194D01*
X98026819Y-67716162D01*
X97993334Y-67654839D01*
X97990500Y-67628481D01*
X97990500Y-62761744D01*
X98010185Y-62694705D01*
X98041615Y-62661426D01*
X98137215Y-62591969D01*
X98137215Y-62591968D01*
X98137219Y-62591966D01*
X98281966Y-62447219D01*
X98281968Y-62447215D01*
X98281971Y-62447213D01*
X98390447Y-62297906D01*
X98402287Y-62281610D01*
X98495220Y-62099219D01*
X98558477Y-61904534D01*
X98590500Y-61702352D01*
X98590500Y-61497648D01*
X98558477Y-61295466D01*
X98534451Y-61221523D01*
X98516490Y-61166243D01*
X98495220Y-61100781D01*
X98495218Y-61100778D01*
X98495218Y-61100776D01*
X98461503Y-61034607D01*
X98402287Y-60918390D01*
X98378188Y-60885220D01*
X98281971Y-60752786D01*
X98137213Y-60608028D01*
X97971613Y-60487715D01*
X97971612Y-60487714D01*
X97971610Y-60487713D01*
X97900754Y-60451610D01*
X97789223Y-60394781D01*
X97594534Y-60331522D01*
X97419995Y-60303878D01*
X97392352Y-60299500D01*
X97187648Y-60299500D01*
X97163329Y-60303351D01*
X96985465Y-60331522D01*
X96790776Y-60394781D01*
X96608386Y-60487715D01*
X96442786Y-60608028D01*
X96298028Y-60752786D01*
X96177715Y-60918386D01*
X96084781Y-61100776D01*
X96021522Y-61295465D01*
X95989500Y-61497648D01*
X95660500Y-61497648D01*
X95660500Y-52151004D01*
X95633581Y-52015677D01*
X95633580Y-52015676D01*
X95633580Y-52015672D01*
X95580775Y-51888189D01*
X95568100Y-51869219D01*
X95568099Y-51869217D01*
X95504114Y-51773456D01*
X94146819Y-50416161D01*
X94113334Y-50354838D01*
X94110500Y-50328480D01*
X94110500Y-48961744D01*
X94110985Y-48960091D01*
X94110544Y-48958424D01*
X94120795Y-48926681D01*
X94130185Y-48894705D01*
X94131656Y-48893051D01*
X94132017Y-48891936D01*
X94139700Y-48884015D01*
X94155835Y-48865891D01*
X94158663Y-48863569D01*
X94257219Y-48791966D01*
X94401966Y-48647219D01*
X94401968Y-48647215D01*
X94401971Y-48647213D01*
X94454732Y-48574590D01*
X94522287Y-48481610D01*
X94615220Y-48299219D01*
X94678477Y-48104534D01*
X94710500Y-47902352D01*
X94710500Y-47697682D01*
X95610000Y-47697682D01*
X95610000Y-47902317D01*
X95642009Y-48104417D01*
X95705244Y-48299031D01*
X95798141Y-48481350D01*
X95798147Y-48481359D01*
X95830523Y-48525921D01*
X95830524Y-48525922D01*
X96510000Y-47846446D01*
X96510000Y-47852661D01*
X96537259Y-47954394D01*
X96589920Y-48045606D01*
X96664394Y-48120080D01*
X96755606Y-48172741D01*
X96857339Y-48200000D01*
X96863553Y-48200000D01*
X96184076Y-48879474D01*
X96228650Y-48911859D01*
X96410968Y-49004755D01*
X96605582Y-49067990D01*
X96807683Y-49100000D01*
X97012317Y-49100000D01*
X97214417Y-49067990D01*
X97409031Y-49004755D01*
X97591349Y-48911859D01*
X97635921Y-48879474D01*
X96956447Y-48200000D01*
X96962661Y-48200000D01*
X97064394Y-48172741D01*
X97155606Y-48120080D01*
X97230080Y-48045606D01*
X97282741Y-47954394D01*
X97310000Y-47852661D01*
X97310000Y-47846448D01*
X97989474Y-48525922D01*
X97989474Y-48525921D01*
X98021859Y-48481349D01*
X98114755Y-48299031D01*
X98177990Y-48104417D01*
X98210000Y-47902317D01*
X98210000Y-47697682D01*
X98177990Y-47495582D01*
X98114755Y-47300968D01*
X98021859Y-47118650D01*
X97989474Y-47074077D01*
X97989474Y-47074076D01*
X97310000Y-47753551D01*
X97310000Y-47747339D01*
X97282741Y-47645606D01*
X97230080Y-47554394D01*
X97155606Y-47479920D01*
X97064394Y-47427259D01*
X96962661Y-47400000D01*
X96956446Y-47400000D01*
X97635922Y-46720524D01*
X97635921Y-46720523D01*
X97591359Y-46688147D01*
X97591350Y-46688141D01*
X97409031Y-46595244D01*
X97214417Y-46532009D01*
X97012317Y-46500000D01*
X96807683Y-46500000D01*
X96605582Y-46532009D01*
X96410968Y-46595244D01*
X96228644Y-46688143D01*
X96184077Y-46720523D01*
X96184077Y-46720524D01*
X96863554Y-47400000D01*
X96857339Y-47400000D01*
X96755606Y-47427259D01*
X96664394Y-47479920D01*
X96589920Y-47554394D01*
X96537259Y-47645606D01*
X96510000Y-47747339D01*
X96510000Y-47753553D01*
X95830524Y-47074077D01*
X95830523Y-47074077D01*
X95798143Y-47118644D01*
X95705244Y-47300968D01*
X95642009Y-47495582D01*
X95610000Y-47697682D01*
X94710500Y-47697682D01*
X94710500Y-47697648D01*
X94702257Y-47645606D01*
X94678477Y-47495465D01*
X94644670Y-47391418D01*
X94615220Y-47300781D01*
X94615218Y-47300778D01*
X94615218Y-47300776D01*
X94522419Y-47118650D01*
X94522287Y-47118390D01*
X94490092Y-47074077D01*
X94401971Y-46952786D01*
X94257213Y-46808028D01*
X94091613Y-46687715D01*
X94091612Y-46687714D01*
X94091610Y-46687713D01*
X94034653Y-46658691D01*
X93909223Y-46594781D01*
X93714534Y-46531522D01*
X93539995Y-46503878D01*
X93512352Y-46499500D01*
X93307648Y-46499500D01*
X93283329Y-46503351D01*
X93105465Y-46531522D01*
X92910776Y-46594781D01*
X92728386Y-46687715D01*
X92562786Y-46808028D01*
X92418028Y-46952786D01*
X92297715Y-47118386D01*
X92204781Y-47300776D01*
X92141522Y-47495465D01*
X92109500Y-47697648D01*
X79153306Y-47697648D01*
X78976545Y-47520887D01*
X78861807Y-47444222D01*
X78734332Y-47391421D01*
X78734322Y-47391418D01*
X78598996Y-47364500D01*
X78598994Y-47364500D01*
X78598993Y-47364500D01*
X67023994Y-47364500D01*
X66886007Y-47364500D01*
X66886005Y-47364500D01*
X66750677Y-47391418D01*
X66750667Y-47391421D01*
X66623192Y-47444222D01*
X66508454Y-47520887D01*
X63622229Y-50407112D01*
X63603443Y-50422530D01*
X63583463Y-50435881D01*
X63583454Y-50435888D01*
X63342181Y-50677161D01*
X63280858Y-50710646D01*
X63211166Y-50705662D01*
X63155233Y-50663790D01*
X63130816Y-50598326D01*
X63130500Y-50589480D01*
X63130500Y-50583713D01*
X63118854Y-50510185D01*
X63097246Y-50373757D01*
X63031557Y-50171588D01*
X62935051Y-49982184D01*
X62935049Y-49982181D01*
X62935048Y-49982179D01*
X62810109Y-49810213D01*
X62659786Y-49659890D01*
X62487820Y-49534951D01*
X62298414Y-49438444D01*
X62298413Y-49438443D01*
X62298412Y-49438443D01*
X62096243Y-49372754D01*
X62096241Y-49372753D01*
X62096240Y-49372753D01*
X61934957Y-49347208D01*
X61886287Y-49339500D01*
X61673713Y-49339500D01*
X61625042Y-49347208D01*
X61463760Y-49372753D01*
X61261585Y-49438444D01*
X61072179Y-49534951D01*
X60900213Y-49659890D01*
X60749890Y-49810213D01*
X60624951Y-49982179D01*
X60528444Y-50171585D01*
X60462753Y-50373760D01*
X60429500Y-50583713D01*
X60429500Y-50796287D01*
X60429499Y-50796287D01*
X60454284Y-50952771D01*
X60445329Y-51022064D01*
X60419492Y-51059849D01*
X59792181Y-51687161D01*
X59730858Y-51720646D01*
X59661167Y-51715662D01*
X59605233Y-51673791D01*
X59580816Y-51608326D01*
X59580500Y-51599480D01*
X59580500Y-49971519D01*
X59600185Y-49904480D01*
X59616819Y-49883838D01*
X63863838Y-45636819D01*
X63925161Y-45603334D01*
X63951519Y-45600500D01*
X78251007Y-45600500D01*
X103618481Y-45600500D01*
X103685520Y-45620185D01*
X103706162Y-45636819D01*
X104543181Y-46473838D01*
X104576666Y-46535161D01*
X104579500Y-46561519D01*
X104579500Y-54103480D01*
X104559815Y-54170519D01*
X104543181Y-54191161D01*
X103827181Y-54907161D01*
X103765858Y-54940646D01*
X103696166Y-54935662D01*
X103640233Y-54893790D01*
X103615816Y-54828326D01*
X103615500Y-54819480D01*
X103615500Y-54767648D01*
X103583477Y-54565465D01*
X103548836Y-54458852D01*
X103520220Y-54370781D01*
X103520218Y-54370778D01*
X103520218Y-54370776D01*
X103476275Y-54284534D01*
X103427287Y-54188390D01*
X103370183Y-54109792D01*
X103306971Y-54022786D01*
X103162213Y-53878028D01*
X102996614Y-53757715D01*
X102978356Y-53748412D01*
X102903917Y-53710483D01*
X102853123Y-53662511D01*
X102836328Y-53594690D01*
X102858865Y-53528555D01*
X102903917Y-53489516D01*
X102996610Y-53442287D01*
X103142508Y-53336287D01*
X103162213Y-53321971D01*
X103162215Y-53321968D01*
X103162219Y-53321966D01*
X103306966Y-53177219D01*
X103306968Y-53177215D01*
X103306971Y-53177213D01*
X103376425Y-53081616D01*
X103427287Y-53011610D01*
X103520220Y-52829219D01*
X103583477Y-52634534D01*
X103615500Y-52432352D01*
X103615500Y-52227648D01*
X103583477Y-52025466D01*
X103580296Y-52015677D01*
X103538872Y-51888187D01*
X103520220Y-51830781D01*
X103520218Y-51830778D01*
X103520218Y-51830776D01*
X103464103Y-51720646D01*
X103427287Y-51648390D01*
X103391752Y-51599480D01*
X103306971Y-51482786D01*
X103162219Y-51338034D01*
X103108977Y-51299352D01*
X103068546Y-51269977D01*
X103025882Y-51214649D01*
X103019903Y-51145036D01*
X103052508Y-51083240D01*
X103102426Y-51051955D01*
X103184334Y-51024814D01*
X103333656Y-50932712D01*
X103457712Y-50808656D01*
X103549814Y-50659334D01*
X103604999Y-50492797D01*
X103615500Y-50390009D01*
X103615499Y-49189992D01*
X103614831Y-49183457D01*
X103604999Y-49087203D01*
X103604998Y-49087200D01*
X103591358Y-49046038D01*
X103549814Y-48920666D01*
X103457712Y-48771344D01*
X103333656Y-48647288D01*
X103184334Y-48555186D01*
X103017797Y-48500001D01*
X103017795Y-48500000D01*
X102915010Y-48489500D01*
X101714998Y-48489500D01*
X101714981Y-48489501D01*
X101612203Y-48500000D01*
X101612200Y-48500001D01*
X101445668Y-48555185D01*
X101445663Y-48555187D01*
X101296342Y-48647289D01*
X101172289Y-48771342D01*
X101080187Y-48920663D01*
X101080185Y-48920668D01*
X101072858Y-48942781D01*
X101025001Y-49087203D01*
X101025001Y-49087204D01*
X101025000Y-49087204D01*
X101014500Y-49189983D01*
X101014500Y-50390001D01*
X101014501Y-50390018D01*
X101025000Y-50492796D01*
X101025001Y-50492799D01*
X101073246Y-50638390D01*
X101080186Y-50659334D01*
X101172288Y-50808656D01*
X101296344Y-50932712D01*
X101445666Y-51024814D01*
X101527570Y-51051954D01*
X101585015Y-51091727D01*
X101611838Y-51156243D01*
X101599523Y-51225018D01*
X101561451Y-51269978D01*
X101467787Y-51338028D01*
X101467782Y-51338032D01*
X101323028Y-51482786D01*
X101202715Y-51648386D01*
X101109781Y-51830776D01*
X101046522Y-52025465D01*
X101014500Y-52227648D01*
X101014500Y-52432351D01*
X101032986Y-52549069D01*
X101024031Y-52618363D01*
X100998194Y-52656148D01*
X100411162Y-53243181D01*
X100349839Y-53276666D01*
X100323481Y-53279500D01*
X98451744Y-53279500D01*
X98384705Y-53259815D01*
X98351425Y-53228384D01*
X98281969Y-53132784D01*
X98137213Y-52988028D01*
X97971613Y-52867715D01*
X97971612Y-52867714D01*
X97971610Y-52867713D01*
X97914653Y-52838691D01*
X97789223Y-52774781D01*
X97594534Y-52711522D01*
X97419995Y-52683878D01*
X97392352Y-52679500D01*
X97187648Y-52679500D01*
X97163329Y-52683351D01*
X96985465Y-52711522D01*
X96790776Y-52774781D01*
X96608386Y-52867715D01*
X96442786Y-52988028D01*
X96298028Y-53132786D01*
X96177715Y-53298386D01*
X96084781Y-53480776D01*
X96021522Y-53675465D01*
X95989500Y-53877648D01*
X95989500Y-54082351D01*
X96021522Y-54284534D01*
X96084781Y-54479223D01*
X96146716Y-54600775D01*
X96171451Y-54649321D01*
X96177715Y-54661613D01*
X96298028Y-54827213D01*
X96442786Y-54971971D01*
X96566956Y-55062184D01*
X96608390Y-55092287D01*
X96714614Y-55146411D01*
X96790776Y-55185218D01*
X96790778Y-55185218D01*
X96790781Y-55185220D01*
X96895137Y-55219127D01*
X96985465Y-55248477D01*
X97086557Y-55264488D01*
X97187648Y-55280500D01*
X97187649Y-55280500D01*
X97392351Y-55280500D01*
X97392352Y-55280500D01*
X97594534Y-55248477D01*
X97789219Y-55185220D01*
X97971610Y-55092287D01*
X98064590Y-55024732D01*
X98137213Y-54971971D01*
X98137215Y-54971968D01*
X98137219Y-54971966D01*
X98281966Y-54827219D01*
X98351425Y-54731615D01*
X98406755Y-54688949D01*
X98451744Y-54680500D01*
X100733996Y-54680500D01*
X100866308Y-54654181D01*
X100935900Y-54660408D01*
X100991077Y-54703271D01*
X101014322Y-54769160D01*
X101014500Y-54775798D01*
X101014500Y-54972351D01*
X101046522Y-55174534D01*
X101109781Y-55369223D01*
X101202715Y-55551613D01*
X101323028Y-55717213D01*
X101467786Y-55861971D01*
X101622749Y-55974556D01*
X101633390Y-55982287D01*
X101724840Y-56028883D01*
X101726080Y-56029515D01*
X101776876Y-56077490D01*
X101793671Y-56145311D01*
X101771134Y-56211446D01*
X101726080Y-56250485D01*
X101633386Y-56297715D01*
X101467786Y-56418028D01*
X101323028Y-56562786D01*
X101202715Y-56728386D01*
X101109781Y-56910776D01*
X101046522Y-57105465D01*
X101014500Y-57307648D01*
X101014500Y-57512351D01*
X101046522Y-57714534D01*
X101109781Y-57909223D01*
X101173691Y-58034653D01*
X101202585Y-58091359D01*
X101202715Y-58091613D01*
X101323028Y-58257213D01*
X101467786Y-58401971D01*
X101605479Y-58502009D01*
X101633390Y-58522287D01*
X101717698Y-58565244D01*
X101726080Y-58569515D01*
X101776876Y-58617490D01*
X101793671Y-58685311D01*
X101771134Y-58751446D01*
X101726080Y-58790485D01*
X101633386Y-58837715D01*
X101467786Y-58958028D01*
X101323028Y-59102786D01*
X101202715Y-59268386D01*
X101109781Y-59450776D01*
X101046522Y-59645465D01*
X101014500Y-59847648D01*
X101014500Y-60052351D01*
X101046522Y-60254534D01*
X101109781Y-60449223D01*
X101149520Y-60527213D01*
X101195380Y-60617219D01*
X101202715Y-60631613D01*
X101323028Y-60797213D01*
X101467786Y-60941971D01*
X101600618Y-61038477D01*
X101633390Y-61062287D01*
X101708929Y-61100776D01*
X101726080Y-61109515D01*
X101776876Y-61157490D01*
X101793671Y-61225311D01*
X101771134Y-61291446D01*
X101726080Y-61330485D01*
X101633386Y-61377715D01*
X101467786Y-61498028D01*
X101323028Y-61642786D01*
X101202715Y-61808386D01*
X101109781Y-61990776D01*
X101046522Y-62185465D01*
X101014500Y-62387648D01*
X101014500Y-62592351D01*
X101046522Y-62794534D01*
X101109781Y-62989223D01*
X101132655Y-63034114D01*
X101198620Y-63163578D01*
X101202715Y-63171613D01*
X101323028Y-63337213D01*
X101467786Y-63481971D01*
X101622749Y-63594556D01*
X101633390Y-63602287D01*
X101707406Y-63640000D01*
X101726080Y-63649515D01*
X101776876Y-63697490D01*
X101793671Y-63765311D01*
X101771134Y-63831446D01*
X101726080Y-63870485D01*
X101633386Y-63917715D01*
X101467786Y-64038028D01*
X101323028Y-64182786D01*
X101202715Y-64348386D01*
X101109781Y-64530776D01*
X101046522Y-64725465D01*
X101014500Y-64927648D01*
X101014500Y-65132351D01*
X101046522Y-65334534D01*
X101109781Y-65529223D01*
X101202715Y-65711613D01*
X101323028Y-65877213D01*
X101467786Y-66021971D01*
X101613275Y-66127673D01*
X101633390Y-66142287D01*
X101749607Y-66201503D01*
X101815776Y-66235218D01*
X101815778Y-66235218D01*
X101815781Y-66235220D01*
X101909469Y-66265661D01*
X102010465Y-66298477D01*
X102111557Y-66314488D01*
X102212648Y-66330500D01*
X102212649Y-66330500D01*
X102417351Y-66330500D01*
X102417352Y-66330500D01*
X102619534Y-66298477D01*
X102814219Y-66235220D01*
X102996610Y-66142287D01*
X103089590Y-66074732D01*
X103162213Y-66021971D01*
X103162215Y-66021968D01*
X103162219Y-66021966D01*
X103306966Y-65877219D01*
X103306968Y-65877215D01*
X103306971Y-65877213D01*
X103376425Y-65781616D01*
X103427287Y-65711610D01*
X103520220Y-65529219D01*
X103583477Y-65334534D01*
X103615500Y-65132352D01*
X103615500Y-64927648D01*
X103583477Y-64725465D01*
X103543453Y-64602284D01*
X103520220Y-64530781D01*
X103520218Y-64530778D01*
X103520218Y-64530776D01*
X103458284Y-64409225D01*
X103427287Y-64348390D01*
X103399261Y-64309815D01*
X103306971Y-64182786D01*
X103162213Y-64038028D01*
X102996614Y-63917715D01*
X102942220Y-63890000D01*
X102903917Y-63870483D01*
X102853123Y-63822511D01*
X102836328Y-63754690D01*
X102858865Y-63688555D01*
X102903917Y-63649516D01*
X102996610Y-63602287D01*
X103118128Y-63514000D01*
X103162213Y-63481971D01*
X103162215Y-63481968D01*
X103162219Y-63481966D01*
X103306966Y-63337219D01*
X103306968Y-63337215D01*
X103306971Y-63337213D01*
X103376425Y-63241616D01*
X103427287Y-63171610D01*
X103520220Y-62989219D01*
X103583477Y-62794534D01*
X103615500Y-62592352D01*
X103615500Y-62540519D01*
X103635185Y-62473480D01*
X103687989Y-62427725D01*
X103757147Y-62417781D01*
X103820703Y-62446806D01*
X103827181Y-62452838D01*
X107123181Y-65748838D01*
X107156666Y-65810161D01*
X107159500Y-65836519D01*
X107159500Y-69758255D01*
X107139815Y-69825294D01*
X107108385Y-69858573D01*
X107012787Y-69928028D01*
X107012782Y-69928032D01*
X106868028Y-70072786D01*
X106747715Y-70238386D01*
X106654781Y-70420776D01*
X106591522Y-70615465D01*
X106559500Y-70817648D01*
X106559500Y-71022351D01*
X106591522Y-71224534D01*
X106654781Y-71419223D01*
X106747715Y-71601613D01*
X106868027Y-71767211D01*
X106868032Y-71767217D01*
X107012786Y-71911971D01*
X107150201Y-72011807D01*
X107178390Y-72032287D01*
X107294607Y-72091503D01*
X107360776Y-72125218D01*
X107360778Y-72125218D01*
X107360781Y-72125220D01*
X107413299Y-72142284D01*
X107555465Y-72188477D01*
X107656557Y-72204488D01*
X107757648Y-72220500D01*
X107757649Y-72220500D01*
X107962351Y-72220500D01*
X107962352Y-72220500D01*
X108164534Y-72188477D01*
X108359219Y-72125220D01*
X108541610Y-72032287D01*
X108644941Y-71957213D01*
X108707213Y-71911971D01*
X108707215Y-71911968D01*
X108707219Y-71911966D01*
X108851966Y-71767219D01*
X108851968Y-71767215D01*
X108851973Y-71767211D01*
X108923132Y-71669266D01*
X108972287Y-71601610D01*
X109065220Y-71419219D01*
X109128477Y-71224534D01*
X109160500Y-71022352D01*
X109160500Y-70817648D01*
X109142013Y-70700929D01*
X109150967Y-70631636D01*
X109176802Y-70593853D01*
X112824114Y-66946543D01*
X112900775Y-66831811D01*
X112953580Y-66704328D01*
X112965737Y-66643210D01*
X112980500Y-66568996D01*
X112980500Y-57814852D01*
X113000185Y-57747813D01*
X113016819Y-57727171D01*
X114107819Y-56636171D01*
X114169142Y-56602686D01*
X114238834Y-56607670D01*
X114294767Y-56649542D01*
X114319184Y-56715006D01*
X114319500Y-56723852D01*
X114319500Y-58608255D01*
X114299815Y-58675294D01*
X114268385Y-58708573D01*
X114172787Y-58778028D01*
X114172782Y-58778032D01*
X114028028Y-58922786D01*
X113907715Y-59088386D01*
X113814781Y-59270776D01*
X113751522Y-59465465D01*
X113719500Y-59667648D01*
X113719500Y-59872351D01*
X113751522Y-60074534D01*
X113814781Y-60269223D01*
X113875786Y-60388949D01*
X113907585Y-60451359D01*
X113907715Y-60451613D01*
X114028028Y-60617213D01*
X114172786Y-60761971D01*
X114314896Y-60865218D01*
X114338390Y-60882287D01*
X114429043Y-60928477D01*
X114520776Y-60975218D01*
X114520778Y-60975218D01*
X114520781Y-60975220D01*
X114625137Y-61009127D01*
X114715465Y-61038477D01*
X114815493Y-61054320D01*
X114917648Y-61070500D01*
X114917649Y-61070500D01*
X115122351Y-61070500D01*
X115122352Y-61070500D01*
X115324534Y-61038477D01*
X115519219Y-60975220D01*
X115701610Y-60882287D01*
X115818697Y-60797219D01*
X115867213Y-60761971D01*
X115867215Y-60761968D01*
X115867219Y-60761966D01*
X116011966Y-60617219D01*
X116011968Y-60617215D01*
X116011971Y-60617213D01*
X116091889Y-60507213D01*
X116132287Y-60451610D01*
X116225220Y-60269219D01*
X116288477Y-60074534D01*
X116320500Y-59872352D01*
X116320500Y-59667648D01*
X116303697Y-59561557D01*
X116288477Y-59465465D01*
X116252736Y-59355466D01*
X116225220Y-59270781D01*
X116225218Y-59270778D01*
X116225218Y-59270776D01*
X116183951Y-59189786D01*
X116132287Y-59088390D01*
X116098838Y-59042351D01*
X116011971Y-58922786D01*
X115867217Y-58778032D01*
X115867212Y-58778028D01*
X115771615Y-58708573D01*
X115728949Y-58653243D01*
X115720500Y-58608255D01*
X115720500Y-51531744D01*
X115740185Y-51464705D01*
X115771615Y-51431426D01*
X115867215Y-51361969D01*
X115867215Y-51361968D01*
X115867219Y-51361966D01*
X116011966Y-51217219D01*
X116011968Y-51217215D01*
X116011971Y-51217213D01*
X116080775Y-51122511D01*
X116132287Y-51051610D01*
X116225220Y-50869219D01*
X116288477Y-50674534D01*
X116320500Y-50472352D01*
X116320500Y-50267648D01*
X117219500Y-50267648D01*
X117219500Y-50472351D01*
X117251522Y-50674534D01*
X117314781Y-50869223D01*
X117407715Y-51051613D01*
X117528028Y-51217213D01*
X117672786Y-51361971D01*
X117827749Y-51474556D01*
X117838390Y-51482287D01*
X117935455Y-51531744D01*
X118020776Y-51575218D01*
X118020778Y-51575218D01*
X118020781Y-51575220D01*
X118095446Y-51599480D01*
X118215465Y-51638477D01*
X118278028Y-51648386D01*
X118417648Y-51670500D01*
X118417649Y-51670500D01*
X118622351Y-51670500D01*
X118622352Y-51670500D01*
X118824534Y-51638477D01*
X119019219Y-51575220D01*
X119201610Y-51482287D01*
X119232615Y-51459760D01*
X119298420Y-51436281D01*
X119366474Y-51452106D01*
X119415169Y-51502212D01*
X119429500Y-51560079D01*
X119429500Y-58580537D01*
X119409815Y-58647576D01*
X119357011Y-58693331D01*
X119287853Y-58703275D01*
X119232615Y-58680856D01*
X119201348Y-58658139D01*
X119019031Y-58565244D01*
X118824417Y-58502009D01*
X118622317Y-58470000D01*
X118417683Y-58470000D01*
X118215582Y-58502009D01*
X118020968Y-58565244D01*
X117838644Y-58658143D01*
X117794077Y-58690523D01*
X117794077Y-58690524D01*
X118473553Y-59370000D01*
X118467339Y-59370000D01*
X118365606Y-59397259D01*
X118274394Y-59449920D01*
X118199920Y-59524394D01*
X118147259Y-59615606D01*
X118120000Y-59717339D01*
X118120000Y-59723553D01*
X117440524Y-59044077D01*
X117440523Y-59044077D01*
X117408143Y-59088644D01*
X117315244Y-59270968D01*
X117252009Y-59465582D01*
X117220000Y-59667682D01*
X117220000Y-59872317D01*
X117252009Y-60074417D01*
X117315244Y-60269031D01*
X117408141Y-60451350D01*
X117408147Y-60451359D01*
X117440523Y-60495921D01*
X117440524Y-60495922D01*
X118120000Y-59816446D01*
X118120000Y-59822661D01*
X118147259Y-59924394D01*
X118199920Y-60015606D01*
X118274394Y-60090080D01*
X118365606Y-60142741D01*
X118467339Y-60170000D01*
X118473552Y-60170000D01*
X117794076Y-60849474D01*
X117838650Y-60881859D01*
X118020968Y-60974755D01*
X118215582Y-61037990D01*
X118417683Y-61070000D01*
X118622317Y-61070000D01*
X118824417Y-61037990D01*
X119019031Y-60974755D01*
X119201350Y-60881859D01*
X119232613Y-60859145D01*
X119298420Y-60835664D01*
X119366474Y-60851489D01*
X119415169Y-60901594D01*
X119429500Y-60959462D01*
X119429500Y-65855147D01*
X119409815Y-65922186D01*
X119393181Y-65942828D01*
X117975888Y-67360120D01*
X117975887Y-67360121D01*
X117899222Y-67474859D01*
X117846421Y-67602334D01*
X117846418Y-67602346D01*
X117825692Y-67706545D01*
X117825692Y-67706548D01*
X117819500Y-67737673D01*
X117819500Y-68008255D01*
X117799815Y-68075294D01*
X117768385Y-68108573D01*
X117672787Y-68178028D01*
X117672782Y-68178032D01*
X117528028Y-68322786D01*
X117407715Y-68488386D01*
X117314781Y-68670776D01*
X117251522Y-68865465D01*
X117219500Y-69067648D01*
X117219500Y-69272351D01*
X117251522Y-69474534D01*
X117314781Y-69669223D01*
X117359950Y-69757870D01*
X117407288Y-69850776D01*
X117407715Y-69851613D01*
X117528028Y-70017213D01*
X117672786Y-70161971D01*
X117777970Y-70238390D01*
X117838390Y-70282287D01*
X117954607Y-70341503D01*
X118020776Y-70375218D01*
X118020778Y-70375218D01*
X118020781Y-70375220D01*
X118125137Y-70409127D01*
X118215465Y-70438477D01*
X118316557Y-70454488D01*
X118417648Y-70470500D01*
X118417649Y-70470500D01*
X118622351Y-70470500D01*
X118622352Y-70470500D01*
X118824534Y-70438477D01*
X119019219Y-70375220D01*
X119201610Y-70282287D01*
X119294590Y-70214732D01*
X119367213Y-70161971D01*
X119367215Y-70161968D01*
X119367219Y-70161966D01*
X119511966Y-70017219D01*
X119511968Y-70017215D01*
X119511971Y-70017213D01*
X119574741Y-69930816D01*
X119632287Y-69851610D01*
X119725220Y-69669219D01*
X119788477Y-69474534D01*
X119820500Y-69272352D01*
X119820500Y-69067648D01*
X119788477Y-68865466D01*
X119725220Y-68670781D01*
X119725218Y-68670778D01*
X119725218Y-68670776D01*
X119666949Y-68556418D01*
X119632287Y-68488390D01*
X119580090Y-68416546D01*
X119511971Y-68322786D01*
X119367215Y-68178030D01*
X119352658Y-68167454D01*
X119309994Y-68112123D01*
X119304016Y-68042510D01*
X119336624Y-67980716D01*
X119337791Y-67979531D01*
X120674114Y-66643210D01*
X120750775Y-66528478D01*
X120803580Y-66400995D01*
X120817603Y-66330500D01*
X120830500Y-66265663D01*
X120830500Y-51081008D01*
X120830500Y-51081007D01*
X120830299Y-51079999D01*
X120830298Y-51079994D01*
X120830303Y-51079993D01*
X120830289Y-51079950D01*
X120803580Y-50945672D01*
X120798211Y-50932710D01*
X120750777Y-50818192D01*
X120674112Y-50703454D01*
X119796545Y-49825887D01*
X119739315Y-49787648D01*
X119681811Y-49749225D01*
X119681809Y-49749224D01*
X119680625Y-49748433D01*
X119639028Y-49701620D01*
X119632293Y-49688401D01*
X119632289Y-49688394D01*
X119632287Y-49688390D01*
X119511966Y-49522781D01*
X119367219Y-49378034D01*
X119367213Y-49378028D01*
X119201613Y-49257715D01*
X119201612Y-49257714D01*
X119201610Y-49257713D01*
X119119675Y-49215965D01*
X119019223Y-49164781D01*
X118824534Y-49101522D01*
X118649995Y-49073878D01*
X118622352Y-49069500D01*
X118417648Y-49069500D01*
X118393329Y-49073351D01*
X118215465Y-49101522D01*
X118020776Y-49164781D01*
X117838386Y-49257715D01*
X117672786Y-49378028D01*
X117528028Y-49522786D01*
X117407715Y-49688386D01*
X117314781Y-49870776D01*
X117251522Y-50065465D01*
X117219500Y-50267648D01*
X116320500Y-50267648D01*
X116294188Y-50101522D01*
X116288477Y-50065465D01*
X116232229Y-49892352D01*
X116225220Y-49870781D01*
X116225218Y-49870778D01*
X116225218Y-49870776D01*
X116191503Y-49804607D01*
X116132287Y-49688390D01*
X116111581Y-49659890D01*
X116011971Y-49522786D01*
X115867213Y-49378028D01*
X115701613Y-49257715D01*
X115701612Y-49257714D01*
X115701610Y-49257713D01*
X115619675Y-49215965D01*
X115519223Y-49164781D01*
X115324534Y-49101522D01*
X115149995Y-49073878D01*
X115122352Y-49069500D01*
X114917648Y-49069500D01*
X114893329Y-49073351D01*
X114715465Y-49101522D01*
X114520776Y-49164781D01*
X114338386Y-49257715D01*
X114172786Y-49378028D01*
X114028028Y-49522786D01*
X113907715Y-49688386D01*
X113814781Y-49870776D01*
X113751522Y-50065465D01*
X113719500Y-50267648D01*
X113719500Y-50472351D01*
X113751522Y-50674534D01*
X113814781Y-50869223D01*
X113907715Y-51051613D01*
X114028028Y-51217213D01*
X114172784Y-51361969D01*
X114268385Y-51431426D01*
X114311051Y-51486755D01*
X114319500Y-51531744D01*
X114319500Y-54391813D01*
X114299815Y-54458852D01*
X114283181Y-54479494D01*
X111735890Y-57026784D01*
X111735887Y-57026787D01*
X111695491Y-57087246D01*
X111659228Y-57141516D01*
X111659221Y-57141528D01*
X111606421Y-57269000D01*
X111606418Y-57269010D01*
X111579500Y-57404337D01*
X111579500Y-66158481D01*
X111559815Y-66225520D01*
X111543181Y-66246162D01*
X108772181Y-69017162D01*
X108710858Y-69050647D01*
X108641166Y-69045663D01*
X108585233Y-69003791D01*
X108560816Y-68938327D01*
X108560500Y-68929481D01*
X108560500Y-65713485D01*
X108580185Y-65646446D01*
X108632989Y-65600691D01*
X108702147Y-65590747D01*
X108765703Y-65619772D01*
X108794985Y-65657191D01*
X108822713Y-65711611D01*
X108943028Y-65877213D01*
X109087786Y-66021971D01*
X109233275Y-66127673D01*
X109253390Y-66142287D01*
X109369607Y-66201503D01*
X109435776Y-66235218D01*
X109435778Y-66235218D01*
X109435781Y-66235220D01*
X109529469Y-66265661D01*
X109630465Y-66298477D01*
X109731557Y-66314488D01*
X109832648Y-66330500D01*
X109832649Y-66330500D01*
X110037351Y-66330500D01*
X110037352Y-66330500D01*
X110239534Y-66298477D01*
X110434219Y-66235220D01*
X110616610Y-66142287D01*
X110709590Y-66074732D01*
X110782213Y-66021971D01*
X110782215Y-66021968D01*
X110782219Y-66021966D01*
X110926966Y-65877219D01*
X110926968Y-65877215D01*
X110926971Y-65877213D01*
X110996425Y-65781616D01*
X111047287Y-65711610D01*
X111140220Y-65529219D01*
X111203477Y-65334534D01*
X111235500Y-65132352D01*
X111235500Y-64927648D01*
X111203477Y-64725465D01*
X111163453Y-64602284D01*
X111140220Y-64530781D01*
X111140218Y-64530778D01*
X111140218Y-64530776D01*
X111078284Y-64409225D01*
X111047287Y-64348390D01*
X111019261Y-64309815D01*
X110926971Y-64182786D01*
X110782213Y-64038028D01*
X110616614Y-63917715D01*
X110562220Y-63890000D01*
X110523917Y-63870483D01*
X110473123Y-63822511D01*
X110456328Y-63754690D01*
X110478865Y-63688555D01*
X110523917Y-63649516D01*
X110616610Y-63602287D01*
X110738128Y-63514000D01*
X110782213Y-63481971D01*
X110782215Y-63481968D01*
X110782219Y-63481966D01*
X110926966Y-63337219D01*
X110926968Y-63337215D01*
X110926971Y-63337213D01*
X110996425Y-63241616D01*
X111047287Y-63171610D01*
X111140220Y-62989219D01*
X111203477Y-62794534D01*
X111235500Y-62592352D01*
X111235500Y-62387648D01*
X111219207Y-62284780D01*
X111203477Y-62185465D01*
X111157555Y-62044133D01*
X111140220Y-61990781D01*
X111140218Y-61990778D01*
X111140218Y-61990776D01*
X111083827Y-61880104D01*
X111047287Y-61808390D01*
X111007176Y-61753181D01*
X110926971Y-61642786D01*
X110782213Y-61498028D01*
X110616614Y-61377715D01*
X110598356Y-61368412D01*
X110523917Y-61330483D01*
X110473123Y-61282511D01*
X110456328Y-61214690D01*
X110478865Y-61148555D01*
X110523917Y-61109516D01*
X110616610Y-61062287D01*
X110667014Y-61025667D01*
X110782213Y-60941971D01*
X110782215Y-60941968D01*
X110782219Y-60941966D01*
X110926966Y-60797219D01*
X110926968Y-60797215D01*
X110926971Y-60797213D01*
X110979732Y-60724590D01*
X111047287Y-60631610D01*
X111140220Y-60449219D01*
X111203477Y-60254534D01*
X111235500Y-60052352D01*
X111235500Y-59847648D01*
X111231104Y-59819896D01*
X111203477Y-59645465D01*
X111158013Y-59505542D01*
X111140220Y-59450781D01*
X111140218Y-59450778D01*
X111140218Y-59450776D01*
X111096621Y-59365214D01*
X111047287Y-59268390D01*
X110990183Y-59189792D01*
X110926971Y-59102786D01*
X110782213Y-58958028D01*
X110616611Y-58837713D01*
X110523369Y-58790203D01*
X110472574Y-58742229D01*
X110455779Y-58674407D01*
X110478317Y-58608273D01*
X110523371Y-58569234D01*
X110616346Y-58521861D01*
X110616347Y-58521861D01*
X110660921Y-58489474D01*
X109981447Y-57810000D01*
X109987661Y-57810000D01*
X110089394Y-57782741D01*
X110180606Y-57730080D01*
X110255080Y-57655606D01*
X110307741Y-57564394D01*
X110335000Y-57462661D01*
X110335000Y-57456448D01*
X111014474Y-58135922D01*
X111014474Y-58135921D01*
X111046859Y-58091349D01*
X111139755Y-57909031D01*
X111202990Y-57714417D01*
X111235000Y-57512317D01*
X111235000Y-57307682D01*
X111202990Y-57105582D01*
X111139755Y-56910968D01*
X111046859Y-56728650D01*
X111014474Y-56684077D01*
X111014474Y-56684076D01*
X110335000Y-57363551D01*
X110335000Y-57357339D01*
X110307741Y-57255606D01*
X110255080Y-57164394D01*
X110180606Y-57089920D01*
X110089394Y-57037259D01*
X109987661Y-57010000D01*
X109981446Y-57010000D01*
X110660922Y-56330524D01*
X110660921Y-56330523D01*
X110616359Y-56298147D01*
X110616350Y-56298141D01*
X110523369Y-56250765D01*
X110472573Y-56202790D01*
X110455778Y-56134969D01*
X110478315Y-56068835D01*
X110523370Y-56029795D01*
X110523920Y-56029515D01*
X110616610Y-55982287D01*
X110616613Y-55982285D01*
X110616614Y-55982285D01*
X110782213Y-55861971D01*
X110782215Y-55861968D01*
X110782219Y-55861966D01*
X110926966Y-55717219D01*
X110926968Y-55717215D01*
X110926971Y-55717213D01*
X110979732Y-55644590D01*
X111047287Y-55551610D01*
X111140220Y-55369219D01*
X111203477Y-55174534D01*
X111235500Y-54972352D01*
X111235500Y-54767648D01*
X111231104Y-54739896D01*
X111203477Y-54565465D01*
X111168836Y-54458852D01*
X111140220Y-54370781D01*
X111140218Y-54370778D01*
X111140218Y-54370776D01*
X111096275Y-54284534D01*
X111047287Y-54188390D01*
X110990183Y-54109792D01*
X110926971Y-54022786D01*
X110782213Y-53878028D01*
X110616614Y-53757715D01*
X110598356Y-53748412D01*
X110523917Y-53710483D01*
X110473123Y-53662511D01*
X110456328Y-53594690D01*
X110478865Y-53528555D01*
X110523917Y-53489516D01*
X110616610Y-53442287D01*
X110762508Y-53336287D01*
X110782213Y-53321971D01*
X110782215Y-53321968D01*
X110782219Y-53321966D01*
X110926966Y-53177219D01*
X110926968Y-53177215D01*
X110926971Y-53177213D01*
X110996425Y-53081616D01*
X111047287Y-53011610D01*
X111140220Y-52829219D01*
X111203477Y-52634534D01*
X111235500Y-52432352D01*
X111235500Y-52227648D01*
X111203477Y-52025466D01*
X111200296Y-52015677D01*
X111158872Y-51888187D01*
X111140220Y-51830781D01*
X111140218Y-51830778D01*
X111140218Y-51830776D01*
X111084103Y-51720646D01*
X111047287Y-51648390D01*
X111011752Y-51599480D01*
X110926971Y-51482786D01*
X110782213Y-51338028D01*
X110616614Y-51217715D01*
X110607837Y-51213243D01*
X110523917Y-51170483D01*
X110473123Y-51122511D01*
X110456328Y-51054690D01*
X110478865Y-50988555D01*
X110523917Y-50949516D01*
X110616610Y-50902287D01*
X110686615Y-50851426D01*
X110782213Y-50781971D01*
X110782215Y-50781968D01*
X110782219Y-50781966D01*
X110926966Y-50637219D01*
X110926968Y-50637215D01*
X110926971Y-50637213D01*
X110996425Y-50541616D01*
X111047287Y-50471610D01*
X111140220Y-50289219D01*
X111203477Y-50094534D01*
X111235500Y-49892352D01*
X111235500Y-49687648D01*
X111231104Y-49659896D01*
X111203477Y-49485465D01*
X111156050Y-49339500D01*
X111140220Y-49290781D01*
X111140218Y-49290778D01*
X111140218Y-49290776D01*
X111102099Y-49215964D01*
X111047287Y-49108390D01*
X111001986Y-49046038D01*
X110926971Y-48942786D01*
X110782213Y-48798028D01*
X110616613Y-48677715D01*
X110616612Y-48677714D01*
X110616610Y-48677713D01*
X110556762Y-48647219D01*
X110434223Y-48584781D01*
X110239534Y-48521522D01*
X110064995Y-48493878D01*
X110037352Y-48489500D01*
X109832648Y-48489500D01*
X109808329Y-48493351D01*
X109630465Y-48521522D01*
X109435776Y-48584781D01*
X109253386Y-48677715D01*
X109087786Y-48798028D01*
X108943028Y-48942786D01*
X108822715Y-49108386D01*
X108729781Y-49290776D01*
X108666522Y-49485465D01*
X108634500Y-49687648D01*
X108634500Y-49892351D01*
X108666522Y-50094534D01*
X108729781Y-50289223D01*
X108781135Y-50390009D01*
X108797705Y-50422530D01*
X108822715Y-50471613D01*
X108943028Y-50637213D01*
X109087786Y-50781971D01*
X109183385Y-50851426D01*
X109253390Y-50902287D01*
X109338528Y-50945667D01*
X109346080Y-50949515D01*
X109396876Y-50997490D01*
X109413671Y-51065311D01*
X109391134Y-51131446D01*
X109346080Y-51170485D01*
X109253386Y-51217715D01*
X109087786Y-51338028D01*
X108943028Y-51482786D01*
X108822715Y-51648386D01*
X108729781Y-51830776D01*
X108666522Y-52025465D01*
X108634500Y-52227648D01*
X108634500Y-52432351D01*
X108666522Y-52634534D01*
X108729781Y-52829223D01*
X108768875Y-52905948D01*
X108810700Y-52988034D01*
X108822715Y-53011613D01*
X108943028Y-53177213D01*
X109087786Y-53321971D01*
X109242749Y-53434556D01*
X109253390Y-53442287D01*
X109328929Y-53480776D01*
X109346080Y-53489515D01*
X109396876Y-53537490D01*
X109413671Y-53605311D01*
X109391134Y-53671446D01*
X109346080Y-53710485D01*
X109253386Y-53757715D01*
X109087786Y-53878028D01*
X108943028Y-54022786D01*
X108822715Y-54188386D01*
X108729781Y-54370776D01*
X108666522Y-54565465D01*
X108634500Y-54767648D01*
X108634500Y-54972351D01*
X108666522Y-55174534D01*
X108729781Y-55369223D01*
X108822715Y-55551613D01*
X108943028Y-55717213D01*
X109087786Y-55861971D01*
X109253385Y-55982284D01*
X109253387Y-55982285D01*
X109253390Y-55982287D01*
X109346080Y-56029515D01*
X109346630Y-56029795D01*
X109397426Y-56077770D01*
X109414221Y-56145591D01*
X109391684Y-56211725D01*
X109346630Y-56250765D01*
X109253644Y-56298143D01*
X109209077Y-56330523D01*
X109209077Y-56330524D01*
X109888554Y-57010000D01*
X109882339Y-57010000D01*
X109780606Y-57037259D01*
X109689394Y-57089920D01*
X109614920Y-57164394D01*
X109562259Y-57255606D01*
X109535000Y-57357339D01*
X109535000Y-57363553D01*
X108855524Y-56684077D01*
X108855523Y-56684077D01*
X108823143Y-56728644D01*
X108730244Y-56910968D01*
X108667009Y-57105582D01*
X108635000Y-57307682D01*
X108635000Y-57512317D01*
X108667009Y-57714417D01*
X108730244Y-57909031D01*
X108823141Y-58091350D01*
X108823147Y-58091359D01*
X108855523Y-58135921D01*
X108855524Y-58135922D01*
X109535000Y-57456446D01*
X109535000Y-57462661D01*
X109562259Y-57564394D01*
X109614920Y-57655606D01*
X109689394Y-57730080D01*
X109780606Y-57782741D01*
X109882339Y-57810000D01*
X109888553Y-57810000D01*
X109209076Y-58489474D01*
X109253652Y-58521861D01*
X109346628Y-58569234D01*
X109397425Y-58617208D01*
X109414220Y-58685029D01*
X109391683Y-58751164D01*
X109346630Y-58790203D01*
X109253388Y-58837713D01*
X109087786Y-58958028D01*
X108943028Y-59102786D01*
X108822715Y-59268386D01*
X108729781Y-59450776D01*
X108666522Y-59645465D01*
X108634500Y-59847648D01*
X108634500Y-60052351D01*
X108666522Y-60254534D01*
X108729781Y-60449223D01*
X108769520Y-60527213D01*
X108815380Y-60617219D01*
X108822715Y-60631613D01*
X108943028Y-60797213D01*
X109087786Y-60941971D01*
X109220618Y-61038477D01*
X109253390Y-61062287D01*
X109328929Y-61100776D01*
X109346080Y-61109515D01*
X109396876Y-61157490D01*
X109413671Y-61225311D01*
X109391134Y-61291446D01*
X109346080Y-61330485D01*
X109253386Y-61377715D01*
X109087786Y-61498028D01*
X108943028Y-61642786D01*
X108822715Y-61808386D01*
X108729781Y-61990776D01*
X108666522Y-62185465D01*
X108634500Y-62387648D01*
X108634500Y-62592351D01*
X108666522Y-62794534D01*
X108729781Y-62989223D01*
X108752655Y-63034114D01*
X108818620Y-63163578D01*
X108822715Y-63171613D01*
X108943028Y-63337213D01*
X109087786Y-63481971D01*
X109242749Y-63594556D01*
X109253390Y-63602287D01*
X109327406Y-63640000D01*
X109346080Y-63649515D01*
X109396876Y-63697490D01*
X109413671Y-63765311D01*
X109391134Y-63831446D01*
X109346080Y-63870485D01*
X109253386Y-63917715D01*
X109087786Y-64038028D01*
X108943028Y-64182786D01*
X108822715Y-64348386D01*
X108729781Y-64530776D01*
X108666522Y-64725465D01*
X108634500Y-64927648D01*
X108634500Y-64984480D01*
X108614815Y-65051519D01*
X108562011Y-65097274D01*
X108492853Y-65107218D01*
X108429297Y-65078193D01*
X108407399Y-65053372D01*
X108404116Y-65048460D01*
X108404111Y-65048453D01*
X103631805Y-60276148D01*
X103598320Y-60214825D01*
X103597013Y-60169068D01*
X103615500Y-60052352D01*
X103615500Y-59847648D01*
X103611104Y-59819896D01*
X103583477Y-59645465D01*
X103538013Y-59505542D01*
X103520220Y-59450781D01*
X103520218Y-59450778D01*
X103520218Y-59450776D01*
X103476621Y-59365214D01*
X103427287Y-59268390D01*
X103370183Y-59189792D01*
X103306971Y-59102786D01*
X103162213Y-58958028D01*
X102996614Y-58837715D01*
X102911717Y-58794458D01*
X102903917Y-58790483D01*
X102853123Y-58742511D01*
X102836328Y-58674690D01*
X102858865Y-58608555D01*
X102903917Y-58569516D01*
X102996610Y-58522287D01*
X103053465Y-58480980D01*
X103162213Y-58401971D01*
X103162215Y-58401968D01*
X103162219Y-58401966D01*
X103306966Y-58257219D01*
X103306968Y-58257215D01*
X103306971Y-58257213D01*
X103359732Y-58184590D01*
X103427287Y-58091610D01*
X103520220Y-57909219D01*
X103583477Y-57714534D01*
X103615500Y-57512352D01*
X103615500Y-57307648D01*
X103596942Y-57190487D01*
X103596902Y-57190219D01*
X103601532Y-57155955D01*
X103605967Y-57121636D01*
X103606220Y-57121265D01*
X103606259Y-57120978D01*
X103607059Y-57120037D01*
X103631802Y-57083853D01*
X105824114Y-54891543D01*
X105900775Y-54776811D01*
X105953580Y-54649329D01*
X105970261Y-54565466D01*
X105972535Y-54554036D01*
X105972535Y-54554034D01*
X105980500Y-54513994D01*
X105980500Y-46151004D01*
X105953581Y-46015677D01*
X105953580Y-46015676D01*
X105953580Y-46015672D01*
X105953578Y-46015667D01*
X105900777Y-45888192D01*
X105824112Y-45773454D01*
X104406545Y-44355887D01*
X104291807Y-44279222D01*
X104164332Y-44226421D01*
X104164322Y-44226418D01*
X104028996Y-44199500D01*
X104028994Y-44199500D01*
X104028993Y-44199500D01*
X78388993Y-44199500D01*
X63541007Y-44199500D01*
X63541003Y-44199500D01*
X63432590Y-44221065D01*
X63432589Y-44221065D01*
X63405681Y-44226418D01*
X63405671Y-44226420D01*
X63278190Y-44279224D01*
X63163454Y-44355887D01*
X58335889Y-49183452D01*
X58335886Y-49183457D01*
X58314165Y-49215965D01*
X58294175Y-49245883D01*
X58259223Y-49298191D01*
X58206421Y-49425667D01*
X58206418Y-49425677D01*
X58179500Y-49561004D01*
X58179500Y-51734684D01*
X58170061Y-51782136D01*
X58110264Y-51926498D01*
X58110261Y-51926510D01*
X58079500Y-52081153D01*
X58079500Y-52238846D01*
X58110261Y-52393489D01*
X58110264Y-52393501D01*
X58170602Y-52539172D01*
X58170609Y-52539185D01*
X58258210Y-52670288D01*
X58258213Y-52670292D01*
X58369707Y-52781786D01*
X58369711Y-52781789D01*
X58440607Y-52829161D01*
X58485412Y-52882774D01*
X58494119Y-52952099D01*
X58463964Y-53015126D01*
X58459397Y-53019944D01*
X53775887Y-57703454D01*
X53699222Y-57818192D01*
X53646421Y-57945667D01*
X53646418Y-57945679D01*
X53625762Y-58049523D01*
X53625755Y-58049561D01*
X53625468Y-58051006D01*
X53619500Y-58081007D01*
X53619500Y-71611006D01*
X53619500Y-71748994D01*
X53619500Y-71748996D01*
X53619499Y-71748996D01*
X52010000Y-71748996D01*
X52010000Y-41104000D01*
X52029685Y-41036961D01*
X52082489Y-40991206D01*
X52134000Y-40980000D01*
X123046000Y-40980000D01*
X123113039Y-40999685D01*
G37*
%TD.AperFunction*%
%TD*%
M02*
