%TF.GenerationSoftware,KiCad,Pcbnew,9.0.4*%
%TF.CreationDate,2025-11-14T19:48:19-06:00*%
%TF.ProjectId,instrument_amplifier,696e7374-7275-46d6-956e-745f616d706c,rev?*%
%TF.SameCoordinates,Original*%
%TF.FileFunction,Legend,Top*%
%TF.FilePolarity,Positive*%
%FSLAX46Y46*%
G04 Gerber Fmt 4.6, Leading zero omitted, Abs format (unit mm)*
G04 Created by KiCad (PCBNEW 9.0.4) date 2025-11-14 19:48:19*
%MOMM*%
%LPD*%
G01*
G04 APERTURE LIST*
%ADD10C,0.150000*%
%ADD11C,0.300000*%
%ADD12C,0.120000*%
%ADD13C,0.000000*%
G04 APERTURE END LIST*
D10*
X59472969Y-77249875D02*
X58996779Y-77249875D01*
X58996779Y-77249875D02*
X58996779Y-76249875D01*
X60234874Y-77249875D02*
X60234874Y-76726065D01*
X60234874Y-76726065D02*
X60187255Y-76630827D01*
X60187255Y-76630827D02*
X60092017Y-76583208D01*
X60092017Y-76583208D02*
X59901541Y-76583208D01*
X59901541Y-76583208D02*
X59806303Y-76630827D01*
X60234874Y-77202256D02*
X60139636Y-77249875D01*
X60139636Y-77249875D02*
X59901541Y-77249875D01*
X59901541Y-77249875D02*
X59806303Y-77202256D01*
X59806303Y-77202256D02*
X59758684Y-77107017D01*
X59758684Y-77107017D02*
X59758684Y-77011779D01*
X59758684Y-77011779D02*
X59806303Y-76916541D01*
X59806303Y-76916541D02*
X59901541Y-76868922D01*
X59901541Y-76868922D02*
X60139636Y-76868922D01*
X60139636Y-76868922D02*
X60234874Y-76821303D01*
X60711065Y-77249875D02*
X60711065Y-76249875D01*
X60711065Y-76630827D02*
X60806303Y-76583208D01*
X60806303Y-76583208D02*
X60996779Y-76583208D01*
X60996779Y-76583208D02*
X61092017Y-76630827D01*
X61092017Y-76630827D02*
X61139636Y-76678446D01*
X61139636Y-76678446D02*
X61187255Y-76773684D01*
X61187255Y-76773684D02*
X61187255Y-77059398D01*
X61187255Y-77059398D02*
X61139636Y-77154636D01*
X61139636Y-77154636D02*
X61092017Y-77202256D01*
X61092017Y-77202256D02*
X60996779Y-77249875D01*
X60996779Y-77249875D02*
X60806303Y-77249875D01*
X60806303Y-77249875D02*
X60711065Y-77202256D01*
X61758684Y-77249875D02*
X61663446Y-77202256D01*
X61663446Y-77202256D02*
X61615827Y-77154636D01*
X61615827Y-77154636D02*
X61568208Y-77059398D01*
X61568208Y-77059398D02*
X61568208Y-76773684D01*
X61568208Y-76773684D02*
X61615827Y-76678446D01*
X61615827Y-76678446D02*
X61663446Y-76630827D01*
X61663446Y-76630827D02*
X61758684Y-76583208D01*
X61758684Y-76583208D02*
X61901541Y-76583208D01*
X61901541Y-76583208D02*
X61996779Y-76630827D01*
X61996779Y-76630827D02*
X62044398Y-76678446D01*
X62044398Y-76678446D02*
X62092017Y-76773684D01*
X62092017Y-76773684D02*
X62092017Y-77059398D01*
X62092017Y-77059398D02*
X62044398Y-77154636D01*
X62044398Y-77154636D02*
X61996779Y-77202256D01*
X61996779Y-77202256D02*
X61901541Y-77249875D01*
X61901541Y-77249875D02*
X61758684Y-77249875D01*
X62520589Y-77249875D02*
X62520589Y-76583208D01*
X62520589Y-76773684D02*
X62568208Y-76678446D01*
X62568208Y-76678446D02*
X62615827Y-76630827D01*
X62615827Y-76630827D02*
X62711065Y-76583208D01*
X62711065Y-76583208D02*
X62806303Y-76583208D01*
X63568208Y-77249875D02*
X63568208Y-76726065D01*
X63568208Y-76726065D02*
X63520589Y-76630827D01*
X63520589Y-76630827D02*
X63425351Y-76583208D01*
X63425351Y-76583208D02*
X63234875Y-76583208D01*
X63234875Y-76583208D02*
X63139637Y-76630827D01*
X63568208Y-77202256D02*
X63472970Y-77249875D01*
X63472970Y-77249875D02*
X63234875Y-77249875D01*
X63234875Y-77249875D02*
X63139637Y-77202256D01*
X63139637Y-77202256D02*
X63092018Y-77107017D01*
X63092018Y-77107017D02*
X63092018Y-77011779D01*
X63092018Y-77011779D02*
X63139637Y-76916541D01*
X63139637Y-76916541D02*
X63234875Y-76868922D01*
X63234875Y-76868922D02*
X63472970Y-76868922D01*
X63472970Y-76868922D02*
X63568208Y-76821303D01*
X63901542Y-76583208D02*
X64282494Y-76583208D01*
X64044399Y-76249875D02*
X64044399Y-77107017D01*
X64044399Y-77107017D02*
X64092018Y-77202256D01*
X64092018Y-77202256D02*
X64187256Y-77249875D01*
X64187256Y-77249875D02*
X64282494Y-77249875D01*
X64758685Y-77249875D02*
X64663447Y-77202256D01*
X64663447Y-77202256D02*
X64615828Y-77154636D01*
X64615828Y-77154636D02*
X64568209Y-77059398D01*
X64568209Y-77059398D02*
X64568209Y-76773684D01*
X64568209Y-76773684D02*
X64615828Y-76678446D01*
X64615828Y-76678446D02*
X64663447Y-76630827D01*
X64663447Y-76630827D02*
X64758685Y-76583208D01*
X64758685Y-76583208D02*
X64901542Y-76583208D01*
X64901542Y-76583208D02*
X64996780Y-76630827D01*
X64996780Y-76630827D02*
X65044399Y-76678446D01*
X65044399Y-76678446D02*
X65092018Y-76773684D01*
X65092018Y-76773684D02*
X65092018Y-77059398D01*
X65092018Y-77059398D02*
X65044399Y-77154636D01*
X65044399Y-77154636D02*
X64996780Y-77202256D01*
X64996780Y-77202256D02*
X64901542Y-77249875D01*
X64901542Y-77249875D02*
X64758685Y-77249875D01*
X65520590Y-77249875D02*
X65520590Y-76583208D01*
X65520590Y-76773684D02*
X65568209Y-76678446D01*
X65568209Y-76678446D02*
X65615828Y-76630827D01*
X65615828Y-76630827D02*
X65711066Y-76583208D01*
X65711066Y-76583208D02*
X65806304Y-76583208D01*
X66139638Y-77249875D02*
X66139638Y-76583208D01*
X66139638Y-76249875D02*
X66092019Y-76297494D01*
X66092019Y-76297494D02*
X66139638Y-76345113D01*
X66139638Y-76345113D02*
X66187257Y-76297494D01*
X66187257Y-76297494D02*
X66139638Y-76249875D01*
X66139638Y-76249875D02*
X66139638Y-76345113D01*
X66758685Y-77249875D02*
X66663447Y-77202256D01*
X66663447Y-77202256D02*
X66615828Y-77154636D01*
X66615828Y-77154636D02*
X66568209Y-77059398D01*
X66568209Y-77059398D02*
X66568209Y-76773684D01*
X66568209Y-76773684D02*
X66615828Y-76678446D01*
X66615828Y-76678446D02*
X66663447Y-76630827D01*
X66663447Y-76630827D02*
X66758685Y-76583208D01*
X66758685Y-76583208D02*
X66901542Y-76583208D01*
X66901542Y-76583208D02*
X66996780Y-76630827D01*
X66996780Y-76630827D02*
X67044399Y-76678446D01*
X67044399Y-76678446D02*
X67092018Y-76773684D01*
X67092018Y-76773684D02*
X67092018Y-77059398D01*
X67092018Y-77059398D02*
X67044399Y-77154636D01*
X67044399Y-77154636D02*
X66996780Y-77202256D01*
X66996780Y-77202256D02*
X66901542Y-77249875D01*
X66901542Y-77249875D02*
X66758685Y-77249875D01*
X68282495Y-77249875D02*
X68282495Y-76249875D01*
X68282495Y-76249875D02*
X68663447Y-76249875D01*
X68663447Y-76249875D02*
X68758685Y-76297494D01*
X68758685Y-76297494D02*
X68806304Y-76345113D01*
X68806304Y-76345113D02*
X68853923Y-76440351D01*
X68853923Y-76440351D02*
X68853923Y-76583208D01*
X68853923Y-76583208D02*
X68806304Y-76678446D01*
X68806304Y-76678446D02*
X68758685Y-76726065D01*
X68758685Y-76726065D02*
X68663447Y-76773684D01*
X68663447Y-76773684D02*
X68282495Y-76773684D01*
X69282495Y-77249875D02*
X69282495Y-76583208D01*
X69282495Y-76773684D02*
X69330114Y-76678446D01*
X69330114Y-76678446D02*
X69377733Y-76630827D01*
X69377733Y-76630827D02*
X69472971Y-76583208D01*
X69472971Y-76583208D02*
X69568209Y-76583208D01*
X70044400Y-77249875D02*
X69949162Y-77202256D01*
X69949162Y-77202256D02*
X69901543Y-77154636D01*
X69901543Y-77154636D02*
X69853924Y-77059398D01*
X69853924Y-77059398D02*
X69853924Y-76773684D01*
X69853924Y-76773684D02*
X69901543Y-76678446D01*
X69901543Y-76678446D02*
X69949162Y-76630827D01*
X69949162Y-76630827D02*
X70044400Y-76583208D01*
X70044400Y-76583208D02*
X70187257Y-76583208D01*
X70187257Y-76583208D02*
X70282495Y-76630827D01*
X70282495Y-76630827D02*
X70330114Y-76678446D01*
X70330114Y-76678446D02*
X70377733Y-76773684D01*
X70377733Y-76773684D02*
X70377733Y-77059398D01*
X70377733Y-77059398D02*
X70330114Y-77154636D01*
X70330114Y-77154636D02*
X70282495Y-77202256D01*
X70282495Y-77202256D02*
X70187257Y-77249875D01*
X70187257Y-77249875D02*
X70044400Y-77249875D01*
X70806305Y-76583208D02*
X70806305Y-77583208D01*
X70806305Y-76630827D02*
X70901543Y-76583208D01*
X70901543Y-76583208D02*
X71092019Y-76583208D01*
X71092019Y-76583208D02*
X71187257Y-76630827D01*
X71187257Y-76630827D02*
X71234876Y-76678446D01*
X71234876Y-76678446D02*
X71282495Y-76773684D01*
X71282495Y-76773684D02*
X71282495Y-77059398D01*
X71282495Y-77059398D02*
X71234876Y-77154636D01*
X71234876Y-77154636D02*
X71187257Y-77202256D01*
X71187257Y-77202256D02*
X71092019Y-77249875D01*
X71092019Y-77249875D02*
X70901543Y-77249875D01*
X70901543Y-77249875D02*
X70806305Y-77202256D01*
X72139638Y-77249875D02*
X72139638Y-76726065D01*
X72139638Y-76726065D02*
X72092019Y-76630827D01*
X72092019Y-76630827D02*
X71996781Y-76583208D01*
X71996781Y-76583208D02*
X71806305Y-76583208D01*
X71806305Y-76583208D02*
X71711067Y-76630827D01*
X72139638Y-77202256D02*
X72044400Y-77249875D01*
X72044400Y-77249875D02*
X71806305Y-77249875D01*
X71806305Y-77249875D02*
X71711067Y-77202256D01*
X71711067Y-77202256D02*
X71663448Y-77107017D01*
X71663448Y-77107017D02*
X71663448Y-77011779D01*
X71663448Y-77011779D02*
X71711067Y-76916541D01*
X71711067Y-76916541D02*
X71806305Y-76868922D01*
X71806305Y-76868922D02*
X72044400Y-76868922D01*
X72044400Y-76868922D02*
X72139638Y-76821303D01*
X73044400Y-76583208D02*
X73044400Y-77392732D01*
X73044400Y-77392732D02*
X72996781Y-77487970D01*
X72996781Y-77487970D02*
X72949162Y-77535589D01*
X72949162Y-77535589D02*
X72853924Y-77583208D01*
X72853924Y-77583208D02*
X72711067Y-77583208D01*
X72711067Y-77583208D02*
X72615829Y-77535589D01*
X73044400Y-77202256D02*
X72949162Y-77249875D01*
X72949162Y-77249875D02*
X72758686Y-77249875D01*
X72758686Y-77249875D02*
X72663448Y-77202256D01*
X72663448Y-77202256D02*
X72615829Y-77154636D01*
X72615829Y-77154636D02*
X72568210Y-77059398D01*
X72568210Y-77059398D02*
X72568210Y-76773684D01*
X72568210Y-76773684D02*
X72615829Y-76678446D01*
X72615829Y-76678446D02*
X72663448Y-76630827D01*
X72663448Y-76630827D02*
X72758686Y-76583208D01*
X72758686Y-76583208D02*
X72949162Y-76583208D01*
X72949162Y-76583208D02*
X73044400Y-76630827D01*
X73949162Y-77249875D02*
X73949162Y-76726065D01*
X73949162Y-76726065D02*
X73901543Y-76630827D01*
X73901543Y-76630827D02*
X73806305Y-76583208D01*
X73806305Y-76583208D02*
X73615829Y-76583208D01*
X73615829Y-76583208D02*
X73520591Y-76630827D01*
X73949162Y-77202256D02*
X73853924Y-77249875D01*
X73853924Y-77249875D02*
X73615829Y-77249875D01*
X73615829Y-77249875D02*
X73520591Y-77202256D01*
X73520591Y-77202256D02*
X73472972Y-77107017D01*
X73472972Y-77107017D02*
X73472972Y-77011779D01*
X73472972Y-77011779D02*
X73520591Y-76916541D01*
X73520591Y-76916541D02*
X73615829Y-76868922D01*
X73615829Y-76868922D02*
X73853924Y-76868922D01*
X73853924Y-76868922D02*
X73949162Y-76821303D01*
X74853924Y-77202256D02*
X74758686Y-77249875D01*
X74758686Y-77249875D02*
X74568210Y-77249875D01*
X74568210Y-77249875D02*
X74472972Y-77202256D01*
X74472972Y-77202256D02*
X74425353Y-77154636D01*
X74425353Y-77154636D02*
X74377734Y-77059398D01*
X74377734Y-77059398D02*
X74377734Y-76773684D01*
X74377734Y-76773684D02*
X74425353Y-76678446D01*
X74425353Y-76678446D02*
X74472972Y-76630827D01*
X74472972Y-76630827D02*
X74568210Y-76583208D01*
X74568210Y-76583208D02*
X74758686Y-76583208D01*
X74758686Y-76583208D02*
X74853924Y-76630827D01*
X75282496Y-77249875D02*
X75282496Y-76583208D01*
X75282496Y-76249875D02*
X75234877Y-76297494D01*
X75234877Y-76297494D02*
X75282496Y-76345113D01*
X75282496Y-76345113D02*
X75330115Y-76297494D01*
X75330115Y-76297494D02*
X75282496Y-76249875D01*
X75282496Y-76249875D02*
X75282496Y-76345113D01*
X75901543Y-77249875D02*
X75806305Y-77202256D01*
X75806305Y-77202256D02*
X75758686Y-77154636D01*
X75758686Y-77154636D02*
X75711067Y-77059398D01*
X75711067Y-77059398D02*
X75711067Y-76773684D01*
X75711067Y-76773684D02*
X75758686Y-76678446D01*
X75758686Y-76678446D02*
X75806305Y-76630827D01*
X75806305Y-76630827D02*
X75901543Y-76583208D01*
X75901543Y-76583208D02*
X76044400Y-76583208D01*
X76044400Y-76583208D02*
X76139638Y-76630827D01*
X76139638Y-76630827D02*
X76187257Y-76678446D01*
X76187257Y-76678446D02*
X76234876Y-76773684D01*
X76234876Y-76773684D02*
X76234876Y-77059398D01*
X76234876Y-77059398D02*
X76187257Y-77154636D01*
X76187257Y-77154636D02*
X76139638Y-77202256D01*
X76139638Y-77202256D02*
X76044400Y-77249875D01*
X76044400Y-77249875D02*
X75901543Y-77249875D01*
X76092019Y-76202256D02*
X75949162Y-76345113D01*
X76663448Y-76583208D02*
X76663448Y-77249875D01*
X76663448Y-76678446D02*
X76711067Y-76630827D01*
X76711067Y-76630827D02*
X76806305Y-76583208D01*
X76806305Y-76583208D02*
X76949162Y-76583208D01*
X76949162Y-76583208D02*
X77044400Y-76630827D01*
X77044400Y-76630827D02*
X77092019Y-76726065D01*
X77092019Y-76726065D02*
X77092019Y-77249875D01*
X78758686Y-77249875D02*
X78758686Y-76249875D01*
X78758686Y-77202256D02*
X78663448Y-77249875D01*
X78663448Y-77249875D02*
X78472972Y-77249875D01*
X78472972Y-77249875D02*
X78377734Y-77202256D01*
X78377734Y-77202256D02*
X78330115Y-77154636D01*
X78330115Y-77154636D02*
X78282496Y-77059398D01*
X78282496Y-77059398D02*
X78282496Y-76773684D01*
X78282496Y-76773684D02*
X78330115Y-76678446D01*
X78330115Y-76678446D02*
X78377734Y-76630827D01*
X78377734Y-76630827D02*
X78472972Y-76583208D01*
X78472972Y-76583208D02*
X78663448Y-76583208D01*
X78663448Y-76583208D02*
X78758686Y-76630827D01*
X79615829Y-77202256D02*
X79520591Y-77249875D01*
X79520591Y-77249875D02*
X79330115Y-77249875D01*
X79330115Y-77249875D02*
X79234877Y-77202256D01*
X79234877Y-77202256D02*
X79187258Y-77107017D01*
X79187258Y-77107017D02*
X79187258Y-76726065D01*
X79187258Y-76726065D02*
X79234877Y-76630827D01*
X79234877Y-76630827D02*
X79330115Y-76583208D01*
X79330115Y-76583208D02*
X79520591Y-76583208D01*
X79520591Y-76583208D02*
X79615829Y-76630827D01*
X79615829Y-76630827D02*
X79663448Y-76726065D01*
X79663448Y-76726065D02*
X79663448Y-76821303D01*
X79663448Y-76821303D02*
X79187258Y-76916541D01*
X80996782Y-77249875D02*
X80901544Y-77202256D01*
X80901544Y-77202256D02*
X80853925Y-77154636D01*
X80853925Y-77154636D02*
X80806306Y-77059398D01*
X80806306Y-77059398D02*
X80806306Y-76773684D01*
X80806306Y-76773684D02*
X80853925Y-76678446D01*
X80853925Y-76678446D02*
X80901544Y-76630827D01*
X80901544Y-76630827D02*
X80996782Y-76583208D01*
X80996782Y-76583208D02*
X81139639Y-76583208D01*
X81139639Y-76583208D02*
X81234877Y-76630827D01*
X81234877Y-76630827D02*
X81282496Y-76678446D01*
X81282496Y-76678446D02*
X81330115Y-76773684D01*
X81330115Y-76773684D02*
X81330115Y-77059398D01*
X81330115Y-77059398D02*
X81282496Y-77154636D01*
X81282496Y-77154636D02*
X81234877Y-77202256D01*
X81234877Y-77202256D02*
X81139639Y-77249875D01*
X81139639Y-77249875D02*
X80996782Y-77249875D01*
X81758687Y-76583208D02*
X81758687Y-77249875D01*
X81758687Y-76678446D02*
X81806306Y-76630827D01*
X81806306Y-76630827D02*
X81901544Y-76583208D01*
X81901544Y-76583208D02*
X82044401Y-76583208D01*
X82044401Y-76583208D02*
X82139639Y-76630827D01*
X82139639Y-76630827D02*
X82187258Y-76726065D01*
X82187258Y-76726065D02*
X82187258Y-77249875D01*
X83092020Y-77249875D02*
X83092020Y-76249875D01*
X83092020Y-77202256D02*
X82996782Y-77249875D01*
X82996782Y-77249875D02*
X82806306Y-77249875D01*
X82806306Y-77249875D02*
X82711068Y-77202256D01*
X82711068Y-77202256D02*
X82663449Y-77154636D01*
X82663449Y-77154636D02*
X82615830Y-77059398D01*
X82615830Y-77059398D02*
X82615830Y-76773684D01*
X82615830Y-76773684D02*
X82663449Y-76678446D01*
X82663449Y-76678446D02*
X82711068Y-76630827D01*
X82711068Y-76630827D02*
X82806306Y-76583208D01*
X82806306Y-76583208D02*
X82996782Y-76583208D01*
X82996782Y-76583208D02*
X83092020Y-76630827D01*
X83996782Y-77249875D02*
X83996782Y-76726065D01*
X83996782Y-76726065D02*
X83949163Y-76630827D01*
X83949163Y-76630827D02*
X83853925Y-76583208D01*
X83853925Y-76583208D02*
X83663449Y-76583208D01*
X83663449Y-76583208D02*
X83568211Y-76630827D01*
X83996782Y-77202256D02*
X83901544Y-77249875D01*
X83901544Y-77249875D02*
X83663449Y-77249875D01*
X83663449Y-77249875D02*
X83568211Y-77202256D01*
X83568211Y-77202256D02*
X83520592Y-77107017D01*
X83520592Y-77107017D02*
X83520592Y-77011779D01*
X83520592Y-77011779D02*
X83568211Y-76916541D01*
X83568211Y-76916541D02*
X83663449Y-76868922D01*
X83663449Y-76868922D02*
X83901544Y-76868922D01*
X83901544Y-76868922D02*
X83996782Y-76821303D01*
X84425354Y-77202256D02*
X84520592Y-77249875D01*
X84520592Y-77249875D02*
X84711068Y-77249875D01*
X84711068Y-77249875D02*
X84806306Y-77202256D01*
X84806306Y-77202256D02*
X84853925Y-77107017D01*
X84853925Y-77107017D02*
X84853925Y-77059398D01*
X84853925Y-77059398D02*
X84806306Y-76964160D01*
X84806306Y-76964160D02*
X84711068Y-76916541D01*
X84711068Y-76916541D02*
X84568211Y-76916541D01*
X84568211Y-76916541D02*
X84472973Y-76868922D01*
X84472973Y-76868922D02*
X84425354Y-76773684D01*
X84425354Y-76773684D02*
X84425354Y-76726065D01*
X84425354Y-76726065D02*
X84472973Y-76630827D01*
X84472973Y-76630827D02*
X84568211Y-76583208D01*
X84568211Y-76583208D02*
X84711068Y-76583208D01*
X84711068Y-76583208D02*
X84806306Y-76630827D01*
X58901541Y-78193152D02*
X59139636Y-78859819D01*
X59139636Y-78859819D02*
X59377731Y-78193152D01*
X60282493Y-78859819D02*
X59711065Y-78859819D01*
X59996779Y-78859819D02*
X59996779Y-77859819D01*
X59996779Y-77859819D02*
X59901541Y-78002676D01*
X59901541Y-78002676D02*
X59806303Y-78097914D01*
X59806303Y-78097914D02*
X59711065Y-78145533D01*
X60711065Y-78764580D02*
X60758684Y-78812200D01*
X60758684Y-78812200D02*
X60711065Y-78859819D01*
X60711065Y-78859819D02*
X60663446Y-78812200D01*
X60663446Y-78812200D02*
X60711065Y-78764580D01*
X60711065Y-78764580D02*
X60711065Y-78859819D01*
X61711064Y-78859819D02*
X61139636Y-78859819D01*
X61425350Y-78859819D02*
X61425350Y-77859819D01*
X61425350Y-77859819D02*
X61330112Y-78002676D01*
X61330112Y-78002676D02*
X61234874Y-78097914D01*
X61234874Y-78097914D02*
X61139636Y-78145533D01*
X62901541Y-78478866D02*
X63663446Y-78478866D01*
X64853922Y-77955057D02*
X64901541Y-77907438D01*
X64901541Y-77907438D02*
X64996779Y-77859819D01*
X64996779Y-77859819D02*
X65234874Y-77859819D01*
X65234874Y-77859819D02*
X65330112Y-77907438D01*
X65330112Y-77907438D02*
X65377731Y-77955057D01*
X65377731Y-77955057D02*
X65425350Y-78050295D01*
X65425350Y-78050295D02*
X65425350Y-78145533D01*
X65425350Y-78145533D02*
X65377731Y-78288390D01*
X65377731Y-78288390D02*
X64806303Y-78859819D01*
X64806303Y-78859819D02*
X65425350Y-78859819D01*
X66044398Y-77859819D02*
X66139636Y-77859819D01*
X66139636Y-77859819D02*
X66234874Y-77907438D01*
X66234874Y-77907438D02*
X66282493Y-77955057D01*
X66282493Y-77955057D02*
X66330112Y-78050295D01*
X66330112Y-78050295D02*
X66377731Y-78240771D01*
X66377731Y-78240771D02*
X66377731Y-78478866D01*
X66377731Y-78478866D02*
X66330112Y-78669342D01*
X66330112Y-78669342D02*
X66282493Y-78764580D01*
X66282493Y-78764580D02*
X66234874Y-78812200D01*
X66234874Y-78812200D02*
X66139636Y-78859819D01*
X66139636Y-78859819D02*
X66044398Y-78859819D01*
X66044398Y-78859819D02*
X65949160Y-78812200D01*
X65949160Y-78812200D02*
X65901541Y-78764580D01*
X65901541Y-78764580D02*
X65853922Y-78669342D01*
X65853922Y-78669342D02*
X65806303Y-78478866D01*
X65806303Y-78478866D02*
X65806303Y-78240771D01*
X65806303Y-78240771D02*
X65853922Y-78050295D01*
X65853922Y-78050295D02*
X65901541Y-77955057D01*
X65901541Y-77955057D02*
X65949160Y-77907438D01*
X65949160Y-77907438D02*
X66044398Y-77859819D01*
X66758684Y-77955057D02*
X66806303Y-77907438D01*
X66806303Y-77907438D02*
X66901541Y-77859819D01*
X66901541Y-77859819D02*
X67139636Y-77859819D01*
X67139636Y-77859819D02*
X67234874Y-77907438D01*
X67234874Y-77907438D02*
X67282493Y-77955057D01*
X67282493Y-77955057D02*
X67330112Y-78050295D01*
X67330112Y-78050295D02*
X67330112Y-78145533D01*
X67330112Y-78145533D02*
X67282493Y-78288390D01*
X67282493Y-78288390D02*
X66711065Y-78859819D01*
X66711065Y-78859819D02*
X67330112Y-78859819D01*
X68234874Y-77859819D02*
X67758684Y-77859819D01*
X67758684Y-77859819D02*
X67711065Y-78336009D01*
X67711065Y-78336009D02*
X67758684Y-78288390D01*
X67758684Y-78288390D02*
X67853922Y-78240771D01*
X67853922Y-78240771D02*
X68092017Y-78240771D01*
X68092017Y-78240771D02*
X68187255Y-78288390D01*
X68187255Y-78288390D02*
X68234874Y-78336009D01*
X68234874Y-78336009D02*
X68282493Y-78431247D01*
X68282493Y-78431247D02*
X68282493Y-78669342D01*
X68282493Y-78669342D02*
X68234874Y-78764580D01*
X68234874Y-78764580D02*
X68187255Y-78812200D01*
X68187255Y-78812200D02*
X68092017Y-78859819D01*
X68092017Y-78859819D02*
X67853922Y-78859819D01*
X67853922Y-78859819D02*
X67758684Y-78812200D01*
X67758684Y-78812200D02*
X67711065Y-78764580D01*
X69472970Y-78478866D02*
X70234875Y-78478866D01*
X71472970Y-77859819D02*
X71472970Y-78669342D01*
X71472970Y-78669342D02*
X71520589Y-78764580D01*
X71520589Y-78764580D02*
X71568208Y-78812200D01*
X71568208Y-78812200D02*
X71663446Y-78859819D01*
X71663446Y-78859819D02*
X71853922Y-78859819D01*
X71853922Y-78859819D02*
X71949160Y-78812200D01*
X71949160Y-78812200D02*
X71996779Y-78764580D01*
X71996779Y-78764580D02*
X72044398Y-78669342D01*
X72044398Y-78669342D02*
X72044398Y-77859819D01*
X72472970Y-78574104D02*
X72949160Y-78574104D01*
X72377732Y-78859819D02*
X72711065Y-77859819D01*
X72711065Y-77859819D02*
X73044398Y-78859819D01*
X73282494Y-77859819D02*
X73949160Y-77859819D01*
X73949160Y-77859819D02*
X73282494Y-78859819D01*
X73282494Y-78859819D02*
X73949160Y-78859819D01*
X53367255Y-48979819D02*
X53557731Y-48979819D01*
X53557731Y-48979819D02*
X53652969Y-49027438D01*
X53652969Y-49027438D02*
X53748207Y-49122676D01*
X53748207Y-49122676D02*
X53795826Y-49313152D01*
X53795826Y-49313152D02*
X53795826Y-49646485D01*
X53795826Y-49646485D02*
X53748207Y-49836961D01*
X53748207Y-49836961D02*
X53652969Y-49932200D01*
X53652969Y-49932200D02*
X53557731Y-49979819D01*
X53557731Y-49979819D02*
X53367255Y-49979819D01*
X53367255Y-49979819D02*
X53272017Y-49932200D01*
X53272017Y-49932200D02*
X53176779Y-49836961D01*
X53176779Y-49836961D02*
X53129160Y-49646485D01*
X53129160Y-49646485D02*
X53129160Y-49313152D01*
X53129160Y-49313152D02*
X53176779Y-49122676D01*
X53176779Y-49122676D02*
X53272017Y-49027438D01*
X53272017Y-49027438D02*
X53367255Y-48979819D01*
X54224398Y-48979819D02*
X54224398Y-49789342D01*
X54224398Y-49789342D02*
X54272017Y-49884580D01*
X54272017Y-49884580D02*
X54319636Y-49932200D01*
X54319636Y-49932200D02*
X54414874Y-49979819D01*
X54414874Y-49979819D02*
X54605350Y-49979819D01*
X54605350Y-49979819D02*
X54700588Y-49932200D01*
X54700588Y-49932200D02*
X54748207Y-49884580D01*
X54748207Y-49884580D02*
X54795826Y-49789342D01*
X54795826Y-49789342D02*
X54795826Y-48979819D01*
X55129160Y-48979819D02*
X55700588Y-48979819D01*
X55414874Y-49979819D02*
X55414874Y-48979819D01*
X53056779Y-51936009D02*
X53390112Y-51936009D01*
X53532969Y-52459819D02*
X53056779Y-52459819D01*
X53056779Y-52459819D02*
X53056779Y-51459819D01*
X53056779Y-51459819D02*
X53532969Y-51459819D01*
X54532969Y-52459819D02*
X54199636Y-51983628D01*
X53961541Y-52459819D02*
X53961541Y-51459819D01*
X53961541Y-51459819D02*
X54342493Y-51459819D01*
X54342493Y-51459819D02*
X54437731Y-51507438D01*
X54437731Y-51507438D02*
X54485350Y-51555057D01*
X54485350Y-51555057D02*
X54532969Y-51650295D01*
X54532969Y-51650295D02*
X54532969Y-51793152D01*
X54532969Y-51793152D02*
X54485350Y-51888390D01*
X54485350Y-51888390D02*
X54437731Y-51936009D01*
X54437731Y-51936009D02*
X54342493Y-51983628D01*
X54342493Y-51983628D02*
X53961541Y-51983628D01*
X54961541Y-51936009D02*
X55294874Y-51936009D01*
X55437731Y-52459819D02*
X54961541Y-52459819D01*
X54961541Y-52459819D02*
X54961541Y-51459819D01*
X54961541Y-51459819D02*
X55437731Y-51459819D01*
X56199636Y-51936009D02*
X55866303Y-51936009D01*
X55866303Y-52459819D02*
X55866303Y-51459819D01*
X55866303Y-51459819D02*
X56342493Y-51459819D01*
X53036779Y-54526009D02*
X53370112Y-54526009D01*
X53512969Y-55049819D02*
X53036779Y-55049819D01*
X53036779Y-55049819D02*
X53036779Y-54049819D01*
X53036779Y-54049819D02*
X53512969Y-54049819D01*
X54703446Y-54668866D02*
X55465351Y-54668866D01*
X53432969Y-59019819D02*
X52956779Y-59019819D01*
X52956779Y-59019819D02*
X52909160Y-59496009D01*
X52909160Y-59496009D02*
X52956779Y-59448390D01*
X52956779Y-59448390D02*
X53052017Y-59400771D01*
X53052017Y-59400771D02*
X53290112Y-59400771D01*
X53290112Y-59400771D02*
X53385350Y-59448390D01*
X53385350Y-59448390D02*
X53432969Y-59496009D01*
X53432969Y-59496009D02*
X53480588Y-59591247D01*
X53480588Y-59591247D02*
X53480588Y-59829342D01*
X53480588Y-59829342D02*
X53432969Y-59924580D01*
X53432969Y-59924580D02*
X53385350Y-59972200D01*
X53385350Y-59972200D02*
X53290112Y-60019819D01*
X53290112Y-60019819D02*
X53052017Y-60019819D01*
X53052017Y-60019819D02*
X52956779Y-59972200D01*
X52956779Y-59972200D02*
X52909160Y-59924580D01*
X53766303Y-59019819D02*
X54099636Y-60019819D01*
X54099636Y-60019819D02*
X54432969Y-59019819D01*
X53340588Y-61587438D02*
X53245350Y-61539819D01*
X53245350Y-61539819D02*
X53102493Y-61539819D01*
X53102493Y-61539819D02*
X52959636Y-61587438D01*
X52959636Y-61587438D02*
X52864398Y-61682676D01*
X52864398Y-61682676D02*
X52816779Y-61777914D01*
X52816779Y-61777914D02*
X52769160Y-61968390D01*
X52769160Y-61968390D02*
X52769160Y-62111247D01*
X52769160Y-62111247D02*
X52816779Y-62301723D01*
X52816779Y-62301723D02*
X52864398Y-62396961D01*
X52864398Y-62396961D02*
X52959636Y-62492200D01*
X52959636Y-62492200D02*
X53102493Y-62539819D01*
X53102493Y-62539819D02*
X53197731Y-62539819D01*
X53197731Y-62539819D02*
X53340588Y-62492200D01*
X53340588Y-62492200D02*
X53388207Y-62444580D01*
X53388207Y-62444580D02*
X53388207Y-62111247D01*
X53388207Y-62111247D02*
X53197731Y-62111247D01*
X53816779Y-62539819D02*
X53816779Y-61539819D01*
X53816779Y-61539819D02*
X54388207Y-62539819D01*
X54388207Y-62539819D02*
X54388207Y-61539819D01*
X54864398Y-62539819D02*
X54864398Y-61539819D01*
X54864398Y-61539819D02*
X55102493Y-61539819D01*
X55102493Y-61539819D02*
X55245350Y-61587438D01*
X55245350Y-61587438D02*
X55340588Y-61682676D01*
X55340588Y-61682676D02*
X55388207Y-61777914D01*
X55388207Y-61777914D02*
X55435826Y-61968390D01*
X55435826Y-61968390D02*
X55435826Y-62111247D01*
X55435826Y-62111247D02*
X55388207Y-62301723D01*
X55388207Y-62301723D02*
X55340588Y-62396961D01*
X55340588Y-62396961D02*
X55245350Y-62492200D01*
X55245350Y-62492200D02*
X55102493Y-62539819D01*
X55102493Y-62539819D02*
X54864398Y-62539819D01*
D11*
X58813082Y-42362257D02*
X59527368Y-42362257D01*
X58670225Y-42790828D02*
X59170225Y-41290828D01*
X59170225Y-41290828D02*
X59670225Y-42790828D01*
X60170224Y-42790828D02*
X60170224Y-41790828D01*
X60170224Y-41933685D02*
X60241653Y-41862257D01*
X60241653Y-41862257D02*
X60384510Y-41790828D01*
X60384510Y-41790828D02*
X60598796Y-41790828D01*
X60598796Y-41790828D02*
X60741653Y-41862257D01*
X60741653Y-41862257D02*
X60813082Y-42005114D01*
X60813082Y-42005114D02*
X60813082Y-42790828D01*
X60813082Y-42005114D02*
X60884510Y-41862257D01*
X60884510Y-41862257D02*
X61027367Y-41790828D01*
X61027367Y-41790828D02*
X61241653Y-41790828D01*
X61241653Y-41790828D02*
X61384510Y-41862257D01*
X61384510Y-41862257D02*
X61455939Y-42005114D01*
X61455939Y-42005114D02*
X61455939Y-42790828D01*
X62170224Y-41790828D02*
X62170224Y-43290828D01*
X62170224Y-41862257D02*
X62313082Y-41790828D01*
X62313082Y-41790828D02*
X62598796Y-41790828D01*
X62598796Y-41790828D02*
X62741653Y-41862257D01*
X62741653Y-41862257D02*
X62813082Y-41933685D01*
X62813082Y-41933685D02*
X62884510Y-42076542D01*
X62884510Y-42076542D02*
X62884510Y-42505114D01*
X62884510Y-42505114D02*
X62813082Y-42647971D01*
X62813082Y-42647971D02*
X62741653Y-42719400D01*
X62741653Y-42719400D02*
X62598796Y-42790828D01*
X62598796Y-42790828D02*
X62313082Y-42790828D01*
X62313082Y-42790828D02*
X62170224Y-42719400D01*
X63741653Y-42790828D02*
X63598796Y-42719400D01*
X63598796Y-42719400D02*
X63527367Y-42576542D01*
X63527367Y-42576542D02*
X63527367Y-41290828D01*
X64313081Y-42790828D02*
X64313081Y-41790828D01*
X64313081Y-41290828D02*
X64241653Y-41362257D01*
X64241653Y-41362257D02*
X64313081Y-41433685D01*
X64313081Y-41433685D02*
X64384510Y-41362257D01*
X64384510Y-41362257D02*
X64313081Y-41290828D01*
X64313081Y-41290828D02*
X64313081Y-41433685D01*
X64813082Y-41790828D02*
X65384510Y-41790828D01*
X65027367Y-42790828D02*
X65027367Y-41505114D01*
X65027367Y-41505114D02*
X65098796Y-41362257D01*
X65098796Y-41362257D02*
X65241653Y-41290828D01*
X65241653Y-41290828D02*
X65384510Y-41290828D01*
X65884510Y-42790828D02*
X65884510Y-41790828D01*
X65884510Y-41290828D02*
X65813082Y-41362257D01*
X65813082Y-41362257D02*
X65884510Y-41433685D01*
X65884510Y-41433685D02*
X65955939Y-41362257D01*
X65955939Y-41362257D02*
X65884510Y-41290828D01*
X65884510Y-41290828D02*
X65884510Y-41433685D01*
X67241654Y-42719400D02*
X67098796Y-42790828D01*
X67098796Y-42790828D02*
X66813082Y-42790828D01*
X66813082Y-42790828D02*
X66670225Y-42719400D01*
X66670225Y-42719400D02*
X66598796Y-42647971D01*
X66598796Y-42647971D02*
X66527368Y-42505114D01*
X66527368Y-42505114D02*
X66527368Y-42076542D01*
X66527368Y-42076542D02*
X66598796Y-41933685D01*
X66598796Y-41933685D02*
X66670225Y-41862257D01*
X66670225Y-41862257D02*
X66813082Y-41790828D01*
X66813082Y-41790828D02*
X67098796Y-41790828D01*
X67098796Y-41790828D02*
X67241654Y-41862257D01*
X68527368Y-42790828D02*
X68527368Y-42005114D01*
X68527368Y-42005114D02*
X68455939Y-41862257D01*
X68455939Y-41862257D02*
X68313082Y-41790828D01*
X68313082Y-41790828D02*
X68027368Y-41790828D01*
X68027368Y-41790828D02*
X67884510Y-41862257D01*
X68527368Y-42719400D02*
X68384510Y-42790828D01*
X68384510Y-42790828D02*
X68027368Y-42790828D01*
X68027368Y-42790828D02*
X67884510Y-42719400D01*
X67884510Y-42719400D02*
X67813082Y-42576542D01*
X67813082Y-42576542D02*
X67813082Y-42433685D01*
X67813082Y-42433685D02*
X67884510Y-42290828D01*
X67884510Y-42290828D02*
X68027368Y-42219400D01*
X68027368Y-42219400D02*
X68384510Y-42219400D01*
X68384510Y-42219400D02*
X68527368Y-42147971D01*
X69884511Y-42790828D02*
X69884511Y-41290828D01*
X69884511Y-42719400D02*
X69741653Y-42790828D01*
X69741653Y-42790828D02*
X69455939Y-42790828D01*
X69455939Y-42790828D02*
X69313082Y-42719400D01*
X69313082Y-42719400D02*
X69241653Y-42647971D01*
X69241653Y-42647971D02*
X69170225Y-42505114D01*
X69170225Y-42505114D02*
X69170225Y-42076542D01*
X69170225Y-42076542D02*
X69241653Y-41933685D01*
X69241653Y-41933685D02*
X69313082Y-41862257D01*
X69313082Y-41862257D02*
X69455939Y-41790828D01*
X69455939Y-41790828D02*
X69741653Y-41790828D01*
X69741653Y-41790828D02*
X69884511Y-41862257D01*
X70813082Y-42790828D02*
X70670225Y-42719400D01*
X70670225Y-42719400D02*
X70598796Y-42647971D01*
X70598796Y-42647971D02*
X70527368Y-42505114D01*
X70527368Y-42505114D02*
X70527368Y-42076542D01*
X70527368Y-42076542D02*
X70598796Y-41933685D01*
X70598796Y-41933685D02*
X70670225Y-41862257D01*
X70670225Y-41862257D02*
X70813082Y-41790828D01*
X70813082Y-41790828D02*
X71027368Y-41790828D01*
X71027368Y-41790828D02*
X71170225Y-41862257D01*
X71170225Y-41862257D02*
X71241654Y-41933685D01*
X71241654Y-41933685D02*
X71313082Y-42076542D01*
X71313082Y-42076542D02*
X71313082Y-42505114D01*
X71313082Y-42505114D02*
X71241654Y-42647971D01*
X71241654Y-42647971D02*
X71170225Y-42719400D01*
X71170225Y-42719400D02*
X71027368Y-42790828D01*
X71027368Y-42790828D02*
X70813082Y-42790828D01*
X71955939Y-42790828D02*
X71955939Y-41790828D01*
X71955939Y-42076542D02*
X72027368Y-41933685D01*
X72027368Y-41933685D02*
X72098797Y-41862257D01*
X72098797Y-41862257D02*
X72241654Y-41790828D01*
X72241654Y-41790828D02*
X72384511Y-41790828D01*
X74670225Y-42790828D02*
X74670225Y-41290828D01*
X74670225Y-42719400D02*
X74527367Y-42790828D01*
X74527367Y-42790828D02*
X74241653Y-42790828D01*
X74241653Y-42790828D02*
X74098796Y-42719400D01*
X74098796Y-42719400D02*
X74027367Y-42647971D01*
X74027367Y-42647971D02*
X73955939Y-42505114D01*
X73955939Y-42505114D02*
X73955939Y-42076542D01*
X73955939Y-42076542D02*
X74027367Y-41933685D01*
X74027367Y-41933685D02*
X74098796Y-41862257D01*
X74098796Y-41862257D02*
X74241653Y-41790828D01*
X74241653Y-41790828D02*
X74527367Y-41790828D01*
X74527367Y-41790828D02*
X74670225Y-41862257D01*
X75955939Y-42719400D02*
X75813082Y-42790828D01*
X75813082Y-42790828D02*
X75527368Y-42790828D01*
X75527368Y-42790828D02*
X75384510Y-42719400D01*
X75384510Y-42719400D02*
X75313082Y-42576542D01*
X75313082Y-42576542D02*
X75313082Y-42005114D01*
X75313082Y-42005114D02*
X75384510Y-41862257D01*
X75384510Y-41862257D02*
X75527368Y-41790828D01*
X75527368Y-41790828D02*
X75813082Y-41790828D01*
X75813082Y-41790828D02*
X75955939Y-41862257D01*
X75955939Y-41862257D02*
X76027368Y-42005114D01*
X76027368Y-42005114D02*
X76027368Y-42147971D01*
X76027368Y-42147971D02*
X75313082Y-42290828D01*
X77813081Y-42790828D02*
X77813081Y-41790828D01*
X77813081Y-41290828D02*
X77741653Y-41362257D01*
X77741653Y-41362257D02*
X77813081Y-41433685D01*
X77813081Y-41433685D02*
X77884510Y-41362257D01*
X77884510Y-41362257D02*
X77813081Y-41290828D01*
X77813081Y-41290828D02*
X77813081Y-41433685D01*
X78527367Y-41790828D02*
X78527367Y-42790828D01*
X78527367Y-41933685D02*
X78598796Y-41862257D01*
X78598796Y-41862257D02*
X78741653Y-41790828D01*
X78741653Y-41790828D02*
X78955939Y-41790828D01*
X78955939Y-41790828D02*
X79098796Y-41862257D01*
X79098796Y-41862257D02*
X79170225Y-42005114D01*
X79170225Y-42005114D02*
X79170225Y-42790828D01*
X79813082Y-42719400D02*
X79955939Y-42790828D01*
X79955939Y-42790828D02*
X80241653Y-42790828D01*
X80241653Y-42790828D02*
X80384510Y-42719400D01*
X80384510Y-42719400D02*
X80455939Y-42576542D01*
X80455939Y-42576542D02*
X80455939Y-42505114D01*
X80455939Y-42505114D02*
X80384510Y-42362257D01*
X80384510Y-42362257D02*
X80241653Y-42290828D01*
X80241653Y-42290828D02*
X80027368Y-42290828D01*
X80027368Y-42290828D02*
X79884510Y-42219400D01*
X79884510Y-42219400D02*
X79813082Y-42076542D01*
X79813082Y-42076542D02*
X79813082Y-42005114D01*
X79813082Y-42005114D02*
X79884510Y-41862257D01*
X79884510Y-41862257D02*
X80027368Y-41790828D01*
X80027368Y-41790828D02*
X80241653Y-41790828D01*
X80241653Y-41790828D02*
X80384510Y-41862257D01*
X80884511Y-41790828D02*
X81455939Y-41790828D01*
X81098796Y-41290828D02*
X81098796Y-42576542D01*
X81098796Y-42576542D02*
X81170225Y-42719400D01*
X81170225Y-42719400D02*
X81313082Y-42790828D01*
X81313082Y-42790828D02*
X81455939Y-42790828D01*
X81955939Y-42790828D02*
X81955939Y-41790828D01*
X81955939Y-42076542D02*
X82027368Y-41933685D01*
X82027368Y-41933685D02*
X82098797Y-41862257D01*
X82098797Y-41862257D02*
X82241654Y-41790828D01*
X82241654Y-41790828D02*
X82384511Y-41790828D01*
X83527368Y-41790828D02*
X83527368Y-42790828D01*
X82884510Y-41790828D02*
X82884510Y-42576542D01*
X82884510Y-42576542D02*
X82955939Y-42719400D01*
X82955939Y-42719400D02*
X83098796Y-42790828D01*
X83098796Y-42790828D02*
X83313082Y-42790828D01*
X83313082Y-42790828D02*
X83455939Y-42719400D01*
X83455939Y-42719400D02*
X83527368Y-42647971D01*
X84241653Y-42790828D02*
X84241653Y-41790828D01*
X84241653Y-41933685D02*
X84313082Y-41862257D01*
X84313082Y-41862257D02*
X84455939Y-41790828D01*
X84455939Y-41790828D02*
X84670225Y-41790828D01*
X84670225Y-41790828D02*
X84813082Y-41862257D01*
X84813082Y-41862257D02*
X84884511Y-42005114D01*
X84884511Y-42005114D02*
X84884511Y-42790828D01*
X84884511Y-42005114D02*
X84955939Y-41862257D01*
X84955939Y-41862257D02*
X85098796Y-41790828D01*
X85098796Y-41790828D02*
X85313082Y-41790828D01*
X85313082Y-41790828D02*
X85455939Y-41862257D01*
X85455939Y-41862257D02*
X85527368Y-42005114D01*
X85527368Y-42005114D02*
X85527368Y-42790828D01*
X86813082Y-42719400D02*
X86670225Y-42790828D01*
X86670225Y-42790828D02*
X86384511Y-42790828D01*
X86384511Y-42790828D02*
X86241653Y-42719400D01*
X86241653Y-42719400D02*
X86170225Y-42576542D01*
X86170225Y-42576542D02*
X86170225Y-42005114D01*
X86170225Y-42005114D02*
X86241653Y-41862257D01*
X86241653Y-41862257D02*
X86384511Y-41790828D01*
X86384511Y-41790828D02*
X86670225Y-41790828D01*
X86670225Y-41790828D02*
X86813082Y-41862257D01*
X86813082Y-41862257D02*
X86884511Y-42005114D01*
X86884511Y-42005114D02*
X86884511Y-42147971D01*
X86884511Y-42147971D02*
X86170225Y-42290828D01*
X87527367Y-41790828D02*
X87527367Y-42790828D01*
X87527367Y-41933685D02*
X87598796Y-41862257D01*
X87598796Y-41862257D02*
X87741653Y-41790828D01*
X87741653Y-41790828D02*
X87955939Y-41790828D01*
X87955939Y-41790828D02*
X88098796Y-41862257D01*
X88098796Y-41862257D02*
X88170225Y-42005114D01*
X88170225Y-42005114D02*
X88170225Y-42790828D01*
X88670225Y-41790828D02*
X89241653Y-41790828D01*
X88884510Y-41290828D02*
X88884510Y-42576542D01*
X88884510Y-42576542D02*
X88955939Y-42719400D01*
X88955939Y-42719400D02*
X89098796Y-42790828D01*
X89098796Y-42790828D02*
X89241653Y-42790828D01*
X90384511Y-42790828D02*
X90384511Y-42005114D01*
X90384511Y-42005114D02*
X90313082Y-41862257D01*
X90313082Y-41862257D02*
X90170225Y-41790828D01*
X90170225Y-41790828D02*
X89884511Y-41790828D01*
X89884511Y-41790828D02*
X89741653Y-41862257D01*
X90384511Y-42719400D02*
X90241653Y-42790828D01*
X90241653Y-42790828D02*
X89884511Y-42790828D01*
X89884511Y-42790828D02*
X89741653Y-42719400D01*
X89741653Y-42719400D02*
X89670225Y-42576542D01*
X89670225Y-42576542D02*
X89670225Y-42433685D01*
X89670225Y-42433685D02*
X89741653Y-42290828D01*
X89741653Y-42290828D02*
X89884511Y-42219400D01*
X89884511Y-42219400D02*
X90241653Y-42219400D01*
X90241653Y-42219400D02*
X90384511Y-42147971D01*
X91741654Y-42719400D02*
X91598796Y-42790828D01*
X91598796Y-42790828D02*
X91313082Y-42790828D01*
X91313082Y-42790828D02*
X91170225Y-42719400D01*
X91170225Y-42719400D02*
X91098796Y-42647971D01*
X91098796Y-42647971D02*
X91027368Y-42505114D01*
X91027368Y-42505114D02*
X91027368Y-42076542D01*
X91027368Y-42076542D02*
X91098796Y-41933685D01*
X91098796Y-41933685D02*
X91170225Y-41862257D01*
X91170225Y-41862257D02*
X91313082Y-41790828D01*
X91313082Y-41790828D02*
X91598796Y-41790828D01*
X91598796Y-41790828D02*
X91741654Y-41862257D01*
X92384510Y-42790828D02*
X92384510Y-41790828D01*
X92384510Y-41290828D02*
X92313082Y-41362257D01*
X92313082Y-41362257D02*
X92384510Y-41433685D01*
X92384510Y-41433685D02*
X92455939Y-41362257D01*
X92455939Y-41362257D02*
X92384510Y-41290828D01*
X92384510Y-41290828D02*
X92384510Y-41433685D01*
X93313082Y-42790828D02*
X93170225Y-42719400D01*
X93170225Y-42719400D02*
X93098796Y-42647971D01*
X93098796Y-42647971D02*
X93027368Y-42505114D01*
X93027368Y-42505114D02*
X93027368Y-42076542D01*
X93027368Y-42076542D02*
X93098796Y-41933685D01*
X93098796Y-41933685D02*
X93170225Y-41862257D01*
X93170225Y-41862257D02*
X93313082Y-41790828D01*
X93313082Y-41790828D02*
X93527368Y-41790828D01*
X93527368Y-41790828D02*
X93670225Y-41862257D01*
X93670225Y-41862257D02*
X93741654Y-41933685D01*
X93741654Y-41933685D02*
X93813082Y-42076542D01*
X93813082Y-42076542D02*
X93813082Y-42505114D01*
X93813082Y-42505114D02*
X93741654Y-42647971D01*
X93741654Y-42647971D02*
X93670225Y-42719400D01*
X93670225Y-42719400D02*
X93527368Y-42790828D01*
X93527368Y-42790828D02*
X93313082Y-42790828D01*
X93598796Y-41219400D02*
X93384511Y-41433685D01*
X94455939Y-41790828D02*
X94455939Y-42790828D01*
X94455939Y-41933685D02*
X94527368Y-41862257D01*
X94527368Y-41862257D02*
X94670225Y-41790828D01*
X94670225Y-41790828D02*
X94884511Y-41790828D01*
X94884511Y-41790828D02*
X95027368Y-41862257D01*
X95027368Y-41862257D02*
X95098797Y-42005114D01*
X95098797Y-42005114D02*
X95098797Y-42790828D01*
X96955939Y-42219400D02*
X98098797Y-42219400D01*
X100670225Y-42790828D02*
X99955939Y-42790828D01*
X99955939Y-42790828D02*
X99955939Y-41290828D01*
X101170225Y-41290828D02*
X101170225Y-42505114D01*
X101170225Y-42505114D02*
X101241654Y-42647971D01*
X101241654Y-42647971D02*
X101313083Y-42719400D01*
X101313083Y-42719400D02*
X101455940Y-42790828D01*
X101455940Y-42790828D02*
X101741654Y-42790828D01*
X101741654Y-42790828D02*
X101884511Y-42719400D01*
X101884511Y-42719400D02*
X101955940Y-42647971D01*
X101955940Y-42647971D02*
X102027368Y-42505114D01*
X102027368Y-42505114D02*
X102027368Y-41290828D01*
X102741654Y-42790828D02*
X102741654Y-41290828D01*
X102741654Y-41290828D02*
X103241654Y-42362257D01*
X103241654Y-42362257D02*
X103741654Y-41290828D01*
X103741654Y-41290828D02*
X103741654Y-42790828D01*
X104384512Y-42362257D02*
X105098798Y-42362257D01*
X104241655Y-42790828D02*
X104741655Y-41290828D01*
X104741655Y-41290828D02*
X105241655Y-42790828D01*
X105527369Y-41290828D02*
X106384512Y-41290828D01*
X105955940Y-42790828D02*
X105955940Y-41290828D01*
D10*
X52956779Y-56896009D02*
X53290112Y-56896009D01*
X53432969Y-57419819D02*
X52956779Y-57419819D01*
X52956779Y-57419819D02*
X52956779Y-56419819D01*
X52956779Y-56419819D02*
X53432969Y-56419819D01*
X54623446Y-57038866D02*
X55385351Y-57038866D01*
X55004398Y-57419819D02*
X55004398Y-56657914D01*
X57061666Y-65114819D02*
X57061666Y-65829104D01*
X57061666Y-65829104D02*
X57014047Y-65971961D01*
X57014047Y-65971961D02*
X56918809Y-66067200D01*
X56918809Y-66067200D02*
X56775952Y-66114819D01*
X56775952Y-66114819D02*
X56680714Y-66114819D01*
X58061666Y-66114819D02*
X57490238Y-66114819D01*
X57775952Y-66114819D02*
X57775952Y-65114819D01*
X57775952Y-65114819D02*
X57680714Y-65257676D01*
X57680714Y-65257676D02*
X57585476Y-65352914D01*
X57585476Y-65352914D02*
X57490238Y-65400533D01*
X105363095Y-46914819D02*
X105363095Y-47724342D01*
X105363095Y-47724342D02*
X105410714Y-47819580D01*
X105410714Y-47819580D02*
X105458333Y-47867200D01*
X105458333Y-47867200D02*
X105553571Y-47914819D01*
X105553571Y-47914819D02*
X105744047Y-47914819D01*
X105744047Y-47914819D02*
X105839285Y-47867200D01*
X105839285Y-47867200D02*
X105886904Y-47819580D01*
X105886904Y-47819580D02*
X105934523Y-47724342D01*
X105934523Y-47724342D02*
X105934523Y-46914819D01*
X106363095Y-47010057D02*
X106410714Y-46962438D01*
X106410714Y-46962438D02*
X106505952Y-46914819D01*
X106505952Y-46914819D02*
X106744047Y-46914819D01*
X106744047Y-46914819D02*
X106839285Y-46962438D01*
X106839285Y-46962438D02*
X106886904Y-47010057D01*
X106886904Y-47010057D02*
X106934523Y-47105295D01*
X106934523Y-47105295D02*
X106934523Y-47200533D01*
X106934523Y-47200533D02*
X106886904Y-47343390D01*
X106886904Y-47343390D02*
X106315476Y-47914819D01*
X106315476Y-47914819D02*
X106934523Y-47914819D01*
X54038095Y-74374819D02*
X54038095Y-73374819D01*
X54038095Y-73851009D02*
X54609523Y-73851009D01*
X54609523Y-74374819D02*
X54609523Y-73374819D01*
X55514285Y-73708152D02*
X55514285Y-74374819D01*
X55276190Y-73327200D02*
X55038095Y-74041485D01*
X55038095Y-74041485D02*
X55657142Y-74041485D01*
X119608095Y-74414819D02*
X119608095Y-73414819D01*
X119608095Y-73891009D02*
X120179523Y-73891009D01*
X120179523Y-74414819D02*
X120179523Y-73414819D01*
X120560476Y-73414819D02*
X121179523Y-73414819D01*
X121179523Y-73414819D02*
X120846190Y-73795771D01*
X120846190Y-73795771D02*
X120989047Y-73795771D01*
X120989047Y-73795771D02*
X121084285Y-73843390D01*
X121084285Y-73843390D02*
X121131904Y-73891009D01*
X121131904Y-73891009D02*
X121179523Y-73986247D01*
X121179523Y-73986247D02*
X121179523Y-74224342D01*
X121179523Y-74224342D02*
X121131904Y-74319580D01*
X121131904Y-74319580D02*
X121084285Y-74367200D01*
X121084285Y-74367200D02*
X120989047Y-74414819D01*
X120989047Y-74414819D02*
X120703333Y-74414819D01*
X120703333Y-74414819D02*
X120608095Y-74367200D01*
X120608095Y-74367200D02*
X120560476Y-74319580D01*
X115528095Y-42294819D02*
X115528095Y-41294819D01*
X115528095Y-41771009D02*
X116099523Y-41771009D01*
X116099523Y-42294819D02*
X116099523Y-41294819D01*
X116528095Y-41390057D02*
X116575714Y-41342438D01*
X116575714Y-41342438D02*
X116670952Y-41294819D01*
X116670952Y-41294819D02*
X116909047Y-41294819D01*
X116909047Y-41294819D02*
X117004285Y-41342438D01*
X117004285Y-41342438D02*
X117051904Y-41390057D01*
X117051904Y-41390057D02*
X117099523Y-41485295D01*
X117099523Y-41485295D02*
X117099523Y-41580533D01*
X117099523Y-41580533D02*
X117051904Y-41723390D01*
X117051904Y-41723390D02*
X116480476Y-42294819D01*
X116480476Y-42294819D02*
X117099523Y-42294819D01*
X54048095Y-47744819D02*
X54048095Y-46744819D01*
X54048095Y-47221009D02*
X54619523Y-47221009D01*
X54619523Y-47744819D02*
X54619523Y-46744819D01*
X55619523Y-47744819D02*
X55048095Y-47744819D01*
X55333809Y-47744819D02*
X55333809Y-46744819D01*
X55333809Y-46744819D02*
X55238571Y-46887676D01*
X55238571Y-46887676D02*
X55143333Y-46982914D01*
X55143333Y-46982914D02*
X55048095Y-47030533D01*
X65674819Y-73266666D02*
X65198628Y-73599999D01*
X65674819Y-73838094D02*
X64674819Y-73838094D01*
X64674819Y-73838094D02*
X64674819Y-73457142D01*
X64674819Y-73457142D02*
X64722438Y-73361904D01*
X64722438Y-73361904D02*
X64770057Y-73314285D01*
X64770057Y-73314285D02*
X64865295Y-73266666D01*
X64865295Y-73266666D02*
X65008152Y-73266666D01*
X65008152Y-73266666D02*
X65103390Y-73314285D01*
X65103390Y-73314285D02*
X65151009Y-73361904D01*
X65151009Y-73361904D02*
X65198628Y-73457142D01*
X65198628Y-73457142D02*
X65198628Y-73838094D01*
X64674819Y-72933332D02*
X64674819Y-72314285D01*
X64674819Y-72314285D02*
X65055771Y-72647618D01*
X65055771Y-72647618D02*
X65055771Y-72504761D01*
X65055771Y-72504761D02*
X65103390Y-72409523D01*
X65103390Y-72409523D02*
X65151009Y-72361904D01*
X65151009Y-72361904D02*
X65246247Y-72314285D01*
X65246247Y-72314285D02*
X65484342Y-72314285D01*
X65484342Y-72314285D02*
X65579580Y-72361904D01*
X65579580Y-72361904D02*
X65627200Y-72409523D01*
X65627200Y-72409523D02*
X65674819Y-72504761D01*
X65674819Y-72504761D02*
X65674819Y-72790475D01*
X65674819Y-72790475D02*
X65627200Y-72885713D01*
X65627200Y-72885713D02*
X65579580Y-72933332D01*
X69294819Y-73266666D02*
X68818628Y-73599999D01*
X69294819Y-73838094D02*
X68294819Y-73838094D01*
X68294819Y-73838094D02*
X68294819Y-73457142D01*
X68294819Y-73457142D02*
X68342438Y-73361904D01*
X68342438Y-73361904D02*
X68390057Y-73314285D01*
X68390057Y-73314285D02*
X68485295Y-73266666D01*
X68485295Y-73266666D02*
X68628152Y-73266666D01*
X68628152Y-73266666D02*
X68723390Y-73314285D01*
X68723390Y-73314285D02*
X68771009Y-73361904D01*
X68771009Y-73361904D02*
X68818628Y-73457142D01*
X68818628Y-73457142D02*
X68818628Y-73838094D01*
X68294819Y-72361904D02*
X68294819Y-72838094D01*
X68294819Y-72838094D02*
X68771009Y-72885713D01*
X68771009Y-72885713D02*
X68723390Y-72838094D01*
X68723390Y-72838094D02*
X68675771Y-72742856D01*
X68675771Y-72742856D02*
X68675771Y-72504761D01*
X68675771Y-72504761D02*
X68723390Y-72409523D01*
X68723390Y-72409523D02*
X68771009Y-72361904D01*
X68771009Y-72361904D02*
X68866247Y-72314285D01*
X68866247Y-72314285D02*
X69104342Y-72314285D01*
X69104342Y-72314285D02*
X69199580Y-72361904D01*
X69199580Y-72361904D02*
X69247200Y-72409523D01*
X69247200Y-72409523D02*
X69294819Y-72504761D01*
X69294819Y-72504761D02*
X69294819Y-72742856D01*
X69294819Y-72742856D02*
X69247200Y-72838094D01*
X69247200Y-72838094D02*
X69199580Y-72885713D01*
X69444819Y-49226666D02*
X68968628Y-49559999D01*
X69444819Y-49798094D02*
X68444819Y-49798094D01*
X68444819Y-49798094D02*
X68444819Y-49417142D01*
X68444819Y-49417142D02*
X68492438Y-49321904D01*
X68492438Y-49321904D02*
X68540057Y-49274285D01*
X68540057Y-49274285D02*
X68635295Y-49226666D01*
X68635295Y-49226666D02*
X68778152Y-49226666D01*
X68778152Y-49226666D02*
X68873390Y-49274285D01*
X68873390Y-49274285D02*
X68921009Y-49321904D01*
X68921009Y-49321904D02*
X68968628Y-49417142D01*
X68968628Y-49417142D02*
X68968628Y-49798094D01*
X68540057Y-48845713D02*
X68492438Y-48798094D01*
X68492438Y-48798094D02*
X68444819Y-48702856D01*
X68444819Y-48702856D02*
X68444819Y-48464761D01*
X68444819Y-48464761D02*
X68492438Y-48369523D01*
X68492438Y-48369523D02*
X68540057Y-48321904D01*
X68540057Y-48321904D02*
X68635295Y-48274285D01*
X68635295Y-48274285D02*
X68730533Y-48274285D01*
X68730533Y-48274285D02*
X68873390Y-48321904D01*
X68873390Y-48321904D02*
X69444819Y-48893332D01*
X69444819Y-48893332D02*
X69444819Y-48274285D01*
X91619819Y-53866666D02*
X91143628Y-54199999D01*
X91619819Y-54438094D02*
X90619819Y-54438094D01*
X90619819Y-54438094D02*
X90619819Y-54057142D01*
X90619819Y-54057142D02*
X90667438Y-53961904D01*
X90667438Y-53961904D02*
X90715057Y-53914285D01*
X90715057Y-53914285D02*
X90810295Y-53866666D01*
X90810295Y-53866666D02*
X90953152Y-53866666D01*
X90953152Y-53866666D02*
X91048390Y-53914285D01*
X91048390Y-53914285D02*
X91096009Y-53961904D01*
X91096009Y-53961904D02*
X91143628Y-54057142D01*
X91143628Y-54057142D02*
X91143628Y-54438094D01*
X90619819Y-53533332D02*
X90619819Y-52866666D01*
X90619819Y-52866666D02*
X91619819Y-53295237D01*
X65604819Y-48956666D02*
X65128628Y-49289999D01*
X65604819Y-49528094D02*
X64604819Y-49528094D01*
X64604819Y-49528094D02*
X64604819Y-49147142D01*
X64604819Y-49147142D02*
X64652438Y-49051904D01*
X64652438Y-49051904D02*
X64700057Y-49004285D01*
X64700057Y-49004285D02*
X64795295Y-48956666D01*
X64795295Y-48956666D02*
X64938152Y-48956666D01*
X64938152Y-48956666D02*
X65033390Y-49004285D01*
X65033390Y-49004285D02*
X65081009Y-49051904D01*
X65081009Y-49051904D02*
X65128628Y-49147142D01*
X65128628Y-49147142D02*
X65128628Y-49528094D01*
X65604819Y-48004285D02*
X65604819Y-48575713D01*
X65604819Y-48289999D02*
X64604819Y-48289999D01*
X64604819Y-48289999D02*
X64747676Y-48385237D01*
X64747676Y-48385237D02*
X64842914Y-48480475D01*
X64842914Y-48480475D02*
X64890533Y-48575713D01*
X95324819Y-66086666D02*
X94848628Y-66419999D01*
X95324819Y-66658094D02*
X94324819Y-66658094D01*
X94324819Y-66658094D02*
X94324819Y-66277142D01*
X94324819Y-66277142D02*
X94372438Y-66181904D01*
X94372438Y-66181904D02*
X94420057Y-66134285D01*
X94420057Y-66134285D02*
X94515295Y-66086666D01*
X94515295Y-66086666D02*
X94658152Y-66086666D01*
X94658152Y-66086666D02*
X94753390Y-66134285D01*
X94753390Y-66134285D02*
X94801009Y-66181904D01*
X94801009Y-66181904D02*
X94848628Y-66277142D01*
X94848628Y-66277142D02*
X94848628Y-66658094D01*
X94658152Y-65229523D02*
X95324819Y-65229523D01*
X94277200Y-65467618D02*
X94991485Y-65705713D01*
X94991485Y-65705713D02*
X94991485Y-65086666D01*
X89967142Y-73804819D02*
X89633809Y-73328628D01*
X89395714Y-73804819D02*
X89395714Y-72804819D01*
X89395714Y-72804819D02*
X89776666Y-72804819D01*
X89776666Y-72804819D02*
X89871904Y-72852438D01*
X89871904Y-72852438D02*
X89919523Y-72900057D01*
X89919523Y-72900057D02*
X89967142Y-72995295D01*
X89967142Y-72995295D02*
X89967142Y-73138152D01*
X89967142Y-73138152D02*
X89919523Y-73233390D01*
X89919523Y-73233390D02*
X89871904Y-73281009D01*
X89871904Y-73281009D02*
X89776666Y-73328628D01*
X89776666Y-73328628D02*
X89395714Y-73328628D01*
X90919523Y-73804819D02*
X90348095Y-73804819D01*
X90633809Y-73804819D02*
X90633809Y-72804819D01*
X90633809Y-72804819D02*
X90538571Y-72947676D01*
X90538571Y-72947676D02*
X90443333Y-73042914D01*
X90443333Y-73042914D02*
X90348095Y-73090533D01*
X91538571Y-72804819D02*
X91633809Y-72804819D01*
X91633809Y-72804819D02*
X91729047Y-72852438D01*
X91729047Y-72852438D02*
X91776666Y-72900057D01*
X91776666Y-72900057D02*
X91824285Y-72995295D01*
X91824285Y-72995295D02*
X91871904Y-73185771D01*
X91871904Y-73185771D02*
X91871904Y-73423866D01*
X91871904Y-73423866D02*
X91824285Y-73614342D01*
X91824285Y-73614342D02*
X91776666Y-73709580D01*
X91776666Y-73709580D02*
X91729047Y-73757200D01*
X91729047Y-73757200D02*
X91633809Y-73804819D01*
X91633809Y-73804819D02*
X91538571Y-73804819D01*
X91538571Y-73804819D02*
X91443333Y-73757200D01*
X91443333Y-73757200D02*
X91395714Y-73709580D01*
X91395714Y-73709580D02*
X91348095Y-73614342D01*
X91348095Y-73614342D02*
X91300476Y-73423866D01*
X91300476Y-73423866D02*
X91300476Y-73185771D01*
X91300476Y-73185771D02*
X91348095Y-72995295D01*
X91348095Y-72995295D02*
X91395714Y-72900057D01*
X91395714Y-72900057D02*
X91443333Y-72852438D01*
X91443333Y-72852438D02*
X91538571Y-72804819D01*
X86879819Y-65336666D02*
X86403628Y-65669999D01*
X86879819Y-65908094D02*
X85879819Y-65908094D01*
X85879819Y-65908094D02*
X85879819Y-65527142D01*
X85879819Y-65527142D02*
X85927438Y-65431904D01*
X85927438Y-65431904D02*
X85975057Y-65384285D01*
X85975057Y-65384285D02*
X86070295Y-65336666D01*
X86070295Y-65336666D02*
X86213152Y-65336666D01*
X86213152Y-65336666D02*
X86308390Y-65384285D01*
X86308390Y-65384285D02*
X86356009Y-65431904D01*
X86356009Y-65431904D02*
X86403628Y-65527142D01*
X86403628Y-65527142D02*
X86403628Y-65908094D01*
X85879819Y-64479523D02*
X85879819Y-64669999D01*
X85879819Y-64669999D02*
X85927438Y-64765237D01*
X85927438Y-64765237D02*
X85975057Y-64812856D01*
X85975057Y-64812856D02*
X86117914Y-64908094D01*
X86117914Y-64908094D02*
X86308390Y-64955713D01*
X86308390Y-64955713D02*
X86689342Y-64955713D01*
X86689342Y-64955713D02*
X86784580Y-64908094D01*
X86784580Y-64908094D02*
X86832200Y-64860475D01*
X86832200Y-64860475D02*
X86879819Y-64765237D01*
X86879819Y-64765237D02*
X86879819Y-64574761D01*
X86879819Y-64574761D02*
X86832200Y-64479523D01*
X86832200Y-64479523D02*
X86784580Y-64431904D01*
X86784580Y-64431904D02*
X86689342Y-64384285D01*
X86689342Y-64384285D02*
X86451247Y-64384285D01*
X86451247Y-64384285D02*
X86356009Y-64431904D01*
X86356009Y-64431904D02*
X86308390Y-64479523D01*
X86308390Y-64479523D02*
X86260771Y-64574761D01*
X86260771Y-64574761D02*
X86260771Y-64765237D01*
X86260771Y-64765237D02*
X86308390Y-64860475D01*
X86308390Y-64860475D02*
X86356009Y-64908094D01*
X86356009Y-64908094D02*
X86451247Y-64955713D01*
X121823333Y-60569580D02*
X121775714Y-60617200D01*
X121775714Y-60617200D02*
X121632857Y-60664819D01*
X121632857Y-60664819D02*
X121537619Y-60664819D01*
X121537619Y-60664819D02*
X121394762Y-60617200D01*
X121394762Y-60617200D02*
X121299524Y-60521961D01*
X121299524Y-60521961D02*
X121251905Y-60426723D01*
X121251905Y-60426723D02*
X121204286Y-60236247D01*
X121204286Y-60236247D02*
X121204286Y-60093390D01*
X121204286Y-60093390D02*
X121251905Y-59902914D01*
X121251905Y-59902914D02*
X121299524Y-59807676D01*
X121299524Y-59807676D02*
X121394762Y-59712438D01*
X121394762Y-59712438D02*
X121537619Y-59664819D01*
X121537619Y-59664819D02*
X121632857Y-59664819D01*
X121632857Y-59664819D02*
X121775714Y-59712438D01*
X121775714Y-59712438D02*
X121823333Y-59760057D01*
X122156667Y-59664819D02*
X122775714Y-59664819D01*
X122775714Y-59664819D02*
X122442381Y-60045771D01*
X122442381Y-60045771D02*
X122585238Y-60045771D01*
X122585238Y-60045771D02*
X122680476Y-60093390D01*
X122680476Y-60093390D02*
X122728095Y-60141009D01*
X122728095Y-60141009D02*
X122775714Y-60236247D01*
X122775714Y-60236247D02*
X122775714Y-60474342D01*
X122775714Y-60474342D02*
X122728095Y-60569580D01*
X122728095Y-60569580D02*
X122680476Y-60617200D01*
X122680476Y-60617200D02*
X122585238Y-60664819D01*
X122585238Y-60664819D02*
X122299524Y-60664819D01*
X122299524Y-60664819D02*
X122204286Y-60617200D01*
X122204286Y-60617200D02*
X122156667Y-60569580D01*
X100253333Y-48159580D02*
X100205714Y-48207200D01*
X100205714Y-48207200D02*
X100062857Y-48254819D01*
X100062857Y-48254819D02*
X99967619Y-48254819D01*
X99967619Y-48254819D02*
X99824762Y-48207200D01*
X99824762Y-48207200D02*
X99729524Y-48111961D01*
X99729524Y-48111961D02*
X99681905Y-48016723D01*
X99681905Y-48016723D02*
X99634286Y-47826247D01*
X99634286Y-47826247D02*
X99634286Y-47683390D01*
X99634286Y-47683390D02*
X99681905Y-47492914D01*
X99681905Y-47492914D02*
X99729524Y-47397676D01*
X99729524Y-47397676D02*
X99824762Y-47302438D01*
X99824762Y-47302438D02*
X99967619Y-47254819D01*
X99967619Y-47254819D02*
X100062857Y-47254819D01*
X100062857Y-47254819D02*
X100205714Y-47302438D01*
X100205714Y-47302438D02*
X100253333Y-47350057D01*
X101205714Y-48254819D02*
X100634286Y-48254819D01*
X100920000Y-48254819D02*
X100920000Y-47254819D01*
X100920000Y-47254819D02*
X100824762Y-47397676D01*
X100824762Y-47397676D02*
X100729524Y-47492914D01*
X100729524Y-47492914D02*
X100634286Y-47540533D01*
X76333333Y-76324819D02*
X76000000Y-75848628D01*
X75761905Y-76324819D02*
X75761905Y-75324819D01*
X75761905Y-75324819D02*
X76142857Y-75324819D01*
X76142857Y-75324819D02*
X76238095Y-75372438D01*
X76238095Y-75372438D02*
X76285714Y-75420057D01*
X76285714Y-75420057D02*
X76333333Y-75515295D01*
X76333333Y-75515295D02*
X76333333Y-75658152D01*
X76333333Y-75658152D02*
X76285714Y-75753390D01*
X76285714Y-75753390D02*
X76238095Y-75801009D01*
X76238095Y-75801009D02*
X76142857Y-75848628D01*
X76142857Y-75848628D02*
X75761905Y-75848628D01*
X76809524Y-76324819D02*
X77000000Y-76324819D01*
X77000000Y-76324819D02*
X77095238Y-76277200D01*
X77095238Y-76277200D02*
X77142857Y-76229580D01*
X77142857Y-76229580D02*
X77238095Y-76086723D01*
X77238095Y-76086723D02*
X77285714Y-75896247D01*
X77285714Y-75896247D02*
X77285714Y-75515295D01*
X77285714Y-75515295D02*
X77238095Y-75420057D01*
X77238095Y-75420057D02*
X77190476Y-75372438D01*
X77190476Y-75372438D02*
X77095238Y-75324819D01*
X77095238Y-75324819D02*
X76904762Y-75324819D01*
X76904762Y-75324819D02*
X76809524Y-75372438D01*
X76809524Y-75372438D02*
X76761905Y-75420057D01*
X76761905Y-75420057D02*
X76714286Y-75515295D01*
X76714286Y-75515295D02*
X76714286Y-75753390D01*
X76714286Y-75753390D02*
X76761905Y-75848628D01*
X76761905Y-75848628D02*
X76809524Y-75896247D01*
X76809524Y-75896247D02*
X76904762Y-75943866D01*
X76904762Y-75943866D02*
X77095238Y-75943866D01*
X77095238Y-75943866D02*
X77190476Y-75896247D01*
X77190476Y-75896247D02*
X77238095Y-75848628D01*
X77238095Y-75848628D02*
X77285714Y-75753390D01*
X101387142Y-69074819D02*
X101053809Y-68598628D01*
X100815714Y-69074819D02*
X100815714Y-68074819D01*
X100815714Y-68074819D02*
X101196666Y-68074819D01*
X101196666Y-68074819D02*
X101291904Y-68122438D01*
X101291904Y-68122438D02*
X101339523Y-68170057D01*
X101339523Y-68170057D02*
X101387142Y-68265295D01*
X101387142Y-68265295D02*
X101387142Y-68408152D01*
X101387142Y-68408152D02*
X101339523Y-68503390D01*
X101339523Y-68503390D02*
X101291904Y-68551009D01*
X101291904Y-68551009D02*
X101196666Y-68598628D01*
X101196666Y-68598628D02*
X100815714Y-68598628D01*
X102339523Y-69074819D02*
X101768095Y-69074819D01*
X102053809Y-69074819D02*
X102053809Y-68074819D01*
X102053809Y-68074819D02*
X101958571Y-68217676D01*
X101958571Y-68217676D02*
X101863333Y-68312914D01*
X101863333Y-68312914D02*
X101768095Y-68360533D01*
X102720476Y-68170057D02*
X102768095Y-68122438D01*
X102768095Y-68122438D02*
X102863333Y-68074819D01*
X102863333Y-68074819D02*
X103101428Y-68074819D01*
X103101428Y-68074819D02*
X103196666Y-68122438D01*
X103196666Y-68122438D02*
X103244285Y-68170057D01*
X103244285Y-68170057D02*
X103291904Y-68265295D01*
X103291904Y-68265295D02*
X103291904Y-68360533D01*
X103291904Y-68360533D02*
X103244285Y-68503390D01*
X103244285Y-68503390D02*
X102672857Y-69074819D01*
X102672857Y-69074819D02*
X103291904Y-69074819D01*
X121893333Y-50729580D02*
X121845714Y-50777200D01*
X121845714Y-50777200D02*
X121702857Y-50824819D01*
X121702857Y-50824819D02*
X121607619Y-50824819D01*
X121607619Y-50824819D02*
X121464762Y-50777200D01*
X121464762Y-50777200D02*
X121369524Y-50681961D01*
X121369524Y-50681961D02*
X121321905Y-50586723D01*
X121321905Y-50586723D02*
X121274286Y-50396247D01*
X121274286Y-50396247D02*
X121274286Y-50253390D01*
X121274286Y-50253390D02*
X121321905Y-50062914D01*
X121321905Y-50062914D02*
X121369524Y-49967676D01*
X121369524Y-49967676D02*
X121464762Y-49872438D01*
X121464762Y-49872438D02*
X121607619Y-49824819D01*
X121607619Y-49824819D02*
X121702857Y-49824819D01*
X121702857Y-49824819D02*
X121845714Y-49872438D01*
X121845714Y-49872438D02*
X121893333Y-49920057D01*
X122274286Y-49920057D02*
X122321905Y-49872438D01*
X122321905Y-49872438D02*
X122417143Y-49824819D01*
X122417143Y-49824819D02*
X122655238Y-49824819D01*
X122655238Y-49824819D02*
X122750476Y-49872438D01*
X122750476Y-49872438D02*
X122798095Y-49920057D01*
X122798095Y-49920057D02*
X122845714Y-50015295D01*
X122845714Y-50015295D02*
X122845714Y-50110533D01*
X122845714Y-50110533D02*
X122798095Y-50253390D01*
X122798095Y-50253390D02*
X122226667Y-50824819D01*
X122226667Y-50824819D02*
X122845714Y-50824819D01*
X100114819Y-58432857D02*
X99638628Y-58766190D01*
X100114819Y-59004285D02*
X99114819Y-59004285D01*
X99114819Y-59004285D02*
X99114819Y-58623333D01*
X99114819Y-58623333D02*
X99162438Y-58528095D01*
X99162438Y-58528095D02*
X99210057Y-58480476D01*
X99210057Y-58480476D02*
X99305295Y-58432857D01*
X99305295Y-58432857D02*
X99448152Y-58432857D01*
X99448152Y-58432857D02*
X99543390Y-58480476D01*
X99543390Y-58480476D02*
X99591009Y-58528095D01*
X99591009Y-58528095D02*
X99638628Y-58623333D01*
X99638628Y-58623333D02*
X99638628Y-59004285D01*
X100114819Y-57480476D02*
X100114819Y-58051904D01*
X100114819Y-57766190D02*
X99114819Y-57766190D01*
X99114819Y-57766190D02*
X99257676Y-57861428D01*
X99257676Y-57861428D02*
X99352914Y-57956666D01*
X99352914Y-57956666D02*
X99400533Y-58051904D01*
X100114819Y-56528095D02*
X100114819Y-57099523D01*
X100114819Y-56813809D02*
X99114819Y-56813809D01*
X99114819Y-56813809D02*
X99257676Y-56909047D01*
X99257676Y-56909047D02*
X99352914Y-57004285D01*
X99352914Y-57004285D02*
X99400533Y-57099523D01*
X78223095Y-46914819D02*
X78223095Y-47724342D01*
X78223095Y-47724342D02*
X78270714Y-47819580D01*
X78270714Y-47819580D02*
X78318333Y-47867200D01*
X78318333Y-47867200D02*
X78413571Y-47914819D01*
X78413571Y-47914819D02*
X78604047Y-47914819D01*
X78604047Y-47914819D02*
X78699285Y-47867200D01*
X78699285Y-47867200D02*
X78746904Y-47819580D01*
X78746904Y-47819580D02*
X78794523Y-47724342D01*
X78794523Y-47724342D02*
X78794523Y-46914819D01*
X79794523Y-47914819D02*
X79223095Y-47914819D01*
X79508809Y-47914819D02*
X79508809Y-46914819D01*
X79508809Y-46914819D02*
X79413571Y-47057676D01*
X79413571Y-47057676D02*
X79318333Y-47152914D01*
X79318333Y-47152914D02*
X79223095Y-47200533D01*
X76213333Y-67624819D02*
X75880000Y-67148628D01*
X75641905Y-67624819D02*
X75641905Y-66624819D01*
X75641905Y-66624819D02*
X76022857Y-66624819D01*
X76022857Y-66624819D02*
X76118095Y-66672438D01*
X76118095Y-66672438D02*
X76165714Y-66720057D01*
X76165714Y-66720057D02*
X76213333Y-66815295D01*
X76213333Y-66815295D02*
X76213333Y-66958152D01*
X76213333Y-66958152D02*
X76165714Y-67053390D01*
X76165714Y-67053390D02*
X76118095Y-67101009D01*
X76118095Y-67101009D02*
X76022857Y-67148628D01*
X76022857Y-67148628D02*
X75641905Y-67148628D01*
X76784762Y-67053390D02*
X76689524Y-67005771D01*
X76689524Y-67005771D02*
X76641905Y-66958152D01*
X76641905Y-66958152D02*
X76594286Y-66862914D01*
X76594286Y-66862914D02*
X76594286Y-66815295D01*
X76594286Y-66815295D02*
X76641905Y-66720057D01*
X76641905Y-66720057D02*
X76689524Y-66672438D01*
X76689524Y-66672438D02*
X76784762Y-66624819D01*
X76784762Y-66624819D02*
X76975238Y-66624819D01*
X76975238Y-66624819D02*
X77070476Y-66672438D01*
X77070476Y-66672438D02*
X77118095Y-66720057D01*
X77118095Y-66720057D02*
X77165714Y-66815295D01*
X77165714Y-66815295D02*
X77165714Y-66862914D01*
X77165714Y-66862914D02*
X77118095Y-66958152D01*
X77118095Y-66958152D02*
X77070476Y-67005771D01*
X77070476Y-67005771D02*
X76975238Y-67053390D01*
X76975238Y-67053390D02*
X76784762Y-67053390D01*
X76784762Y-67053390D02*
X76689524Y-67101009D01*
X76689524Y-67101009D02*
X76641905Y-67148628D01*
X76641905Y-67148628D02*
X76594286Y-67243866D01*
X76594286Y-67243866D02*
X76594286Y-67434342D01*
X76594286Y-67434342D02*
X76641905Y-67529580D01*
X76641905Y-67529580D02*
X76689524Y-67577200D01*
X76689524Y-67577200D02*
X76784762Y-67624819D01*
X76784762Y-67624819D02*
X76975238Y-67624819D01*
X76975238Y-67624819D02*
X77070476Y-67577200D01*
X77070476Y-67577200D02*
X77118095Y-67529580D01*
X77118095Y-67529580D02*
X77165714Y-67434342D01*
X77165714Y-67434342D02*
X77165714Y-67243866D01*
X77165714Y-67243866D02*
X77118095Y-67148628D01*
X77118095Y-67148628D02*
X77070476Y-67101009D01*
X77070476Y-67101009D02*
X76975238Y-67053390D01*
X121743333Y-69529580D02*
X121695714Y-69577200D01*
X121695714Y-69577200D02*
X121552857Y-69624819D01*
X121552857Y-69624819D02*
X121457619Y-69624819D01*
X121457619Y-69624819D02*
X121314762Y-69577200D01*
X121314762Y-69577200D02*
X121219524Y-69481961D01*
X121219524Y-69481961D02*
X121171905Y-69386723D01*
X121171905Y-69386723D02*
X121124286Y-69196247D01*
X121124286Y-69196247D02*
X121124286Y-69053390D01*
X121124286Y-69053390D02*
X121171905Y-68862914D01*
X121171905Y-68862914D02*
X121219524Y-68767676D01*
X121219524Y-68767676D02*
X121314762Y-68672438D01*
X121314762Y-68672438D02*
X121457619Y-68624819D01*
X121457619Y-68624819D02*
X121552857Y-68624819D01*
X121552857Y-68624819D02*
X121695714Y-68672438D01*
X121695714Y-68672438D02*
X121743333Y-68720057D01*
X122600476Y-68958152D02*
X122600476Y-69624819D01*
X122362381Y-68577200D02*
X122124286Y-69291485D01*
X122124286Y-69291485D02*
X122743333Y-69291485D01*
X101267142Y-77604819D02*
X100933809Y-77128628D01*
X100695714Y-77604819D02*
X100695714Y-76604819D01*
X100695714Y-76604819D02*
X101076666Y-76604819D01*
X101076666Y-76604819D02*
X101171904Y-76652438D01*
X101171904Y-76652438D02*
X101219523Y-76700057D01*
X101219523Y-76700057D02*
X101267142Y-76795295D01*
X101267142Y-76795295D02*
X101267142Y-76938152D01*
X101267142Y-76938152D02*
X101219523Y-77033390D01*
X101219523Y-77033390D02*
X101171904Y-77081009D01*
X101171904Y-77081009D02*
X101076666Y-77128628D01*
X101076666Y-77128628D02*
X100695714Y-77128628D01*
X102219523Y-77604819D02*
X101648095Y-77604819D01*
X101933809Y-77604819D02*
X101933809Y-76604819D01*
X101933809Y-76604819D02*
X101838571Y-76747676D01*
X101838571Y-76747676D02*
X101743333Y-76842914D01*
X101743333Y-76842914D02*
X101648095Y-76890533D01*
X102552857Y-76604819D02*
X103171904Y-76604819D01*
X103171904Y-76604819D02*
X102838571Y-76985771D01*
X102838571Y-76985771D02*
X102981428Y-76985771D01*
X102981428Y-76985771D02*
X103076666Y-77033390D01*
X103076666Y-77033390D02*
X103124285Y-77081009D01*
X103124285Y-77081009D02*
X103171904Y-77176247D01*
X103171904Y-77176247D02*
X103171904Y-77414342D01*
X103171904Y-77414342D02*
X103124285Y-77509580D01*
X103124285Y-77509580D02*
X103076666Y-77557200D01*
X103076666Y-77557200D02*
X102981428Y-77604819D01*
X102981428Y-77604819D02*
X102695714Y-77604819D01*
X102695714Y-77604819D02*
X102600476Y-77557200D01*
X102600476Y-77557200D02*
X102552857Y-77509580D01*
D12*
%TO.C,J1*%
X63050000Y-64660000D02*
X61780000Y-64660000D01*
X63050000Y-63390000D02*
X63050000Y-64660000D01*
X60702642Y-61280000D02*
X60390000Y-61280000D01*
X60702642Y-60420000D02*
X60390000Y-60420000D01*
X60702642Y-58740000D02*
X60390000Y-58740000D01*
X60702642Y-57880000D02*
X60390000Y-57880000D01*
X60702642Y-56200000D02*
X60390000Y-56200000D01*
X60702642Y-55340000D02*
X60390000Y-55340000D01*
X60702642Y-53660000D02*
X60390000Y-53660000D01*
X60702642Y-52800000D02*
X60390000Y-52800000D01*
X60702642Y-51120000D02*
X60390000Y-51120000D01*
X60702642Y-50260000D02*
X60390000Y-50260000D01*
X60620000Y-63820000D02*
X60390000Y-63820000D01*
X60620000Y-62960000D02*
X60390000Y-62960000D01*
X60390000Y-64770000D02*
X60390000Y-49310000D01*
X60390000Y-62120000D02*
X57630000Y-62120000D01*
X60390000Y-59580000D02*
X57630000Y-59580000D01*
X60390000Y-57040000D02*
X57630000Y-57040000D01*
X60390000Y-54500000D02*
X57630000Y-54500000D01*
X60390000Y-51960000D02*
X57630000Y-51960000D01*
X60390000Y-49310000D02*
X57630000Y-49310000D01*
X57630000Y-64770000D02*
X60390000Y-64770000D01*
X57630000Y-61280000D02*
X51630000Y-61280000D01*
X57630000Y-58740000D02*
X51630000Y-58740000D01*
X57630000Y-56200000D02*
X51630000Y-56200000D01*
X57630000Y-53660000D02*
X51630000Y-53660000D01*
X57630000Y-51120000D02*
X51630000Y-51120000D01*
X57630000Y-49310000D02*
X57630000Y-64770000D01*
X51630000Y-61280000D02*
X51630000Y-60420000D01*
X51630000Y-60420000D02*
X57630000Y-60420000D01*
X51630000Y-58740000D02*
X51630000Y-57880000D01*
X51630000Y-57880000D02*
X57630000Y-57880000D01*
X51630000Y-56200000D02*
X51630000Y-55340000D01*
X51630000Y-55340000D02*
X57630000Y-55340000D01*
X51630000Y-53660000D02*
X51630000Y-52800000D01*
X51630000Y-52800000D02*
X57630000Y-52800000D01*
X51630000Y-51120000D02*
X51630000Y-50260000D01*
X51630000Y-50260000D02*
X57630000Y-50260000D01*
X57630000Y-63820000D02*
X51630000Y-63820000D01*
X51630000Y-62960000D01*
X57630000Y-62960000D01*
X57630000Y-63820000D01*
G36*
X57630000Y-63820000D02*
G01*
X51630000Y-63820000D01*
X51630000Y-62960000D01*
X57630000Y-62960000D01*
X57630000Y-63820000D01*
G37*
%TO.C,U2*%
X107125000Y-48460000D02*
G75*
G02*
X105125000Y-48460000I-1000000J0D01*
G01*
X108775000Y-66360000D02*
X108775000Y-48460000D01*
X108775000Y-48460000D02*
X107125000Y-48460000D01*
X105125000Y-48460000D02*
X103475000Y-48460000D01*
X103475000Y-66360000D02*
X108775000Y-66360000D01*
X103475000Y-48460000D02*
X103475000Y-66360000D01*
%TO.C,R3*%
X67560000Y-70570000D02*
X67560000Y-64030000D01*
X67560000Y-64030000D02*
X67230000Y-64030000D01*
X67230000Y-70570000D02*
X67560000Y-70570000D01*
X65150000Y-70570000D02*
X64820000Y-70570000D01*
X64820000Y-70570000D02*
X64820000Y-64030000D01*
X64820000Y-64030000D02*
X65150000Y-64030000D01*
%TO.C,R5*%
X71190000Y-70580000D02*
X71190000Y-64040000D01*
X71190000Y-64040000D02*
X70860000Y-64040000D01*
X70860000Y-70580000D02*
X71190000Y-70580000D01*
X68780000Y-70580000D02*
X68450000Y-70580000D01*
X68450000Y-70580000D02*
X68450000Y-64040000D01*
X68450000Y-64040000D02*
X68780000Y-64040000D01*
D13*
%TO.C,G\u002A\u002A\u002A*%
G36*
X91540026Y-76126539D02*
G01*
X91573687Y-76133235D01*
X91829408Y-76177439D01*
X92023846Y-76187333D01*
X92188076Y-76162707D01*
X92292604Y-76128377D01*
X92350045Y-76121560D01*
X92374516Y-76175463D01*
X92378747Y-76272604D01*
X92381718Y-76389267D01*
X92406327Y-76437881D01*
X92476118Y-76429077D01*
X92608151Y-76376195D01*
X92785169Y-76302232D01*
X92753663Y-76499257D01*
X92742258Y-76621701D01*
X92751679Y-76690771D01*
X92759658Y-76696414D01*
X92814354Y-76726289D01*
X92917483Y-76803531D01*
X93016719Y-76885879D01*
X93174810Y-77048558D01*
X93240076Y-77183540D01*
X93241763Y-77200480D01*
X93276611Y-77318826D01*
X93355891Y-77453196D01*
X93377788Y-77480890D01*
X93478882Y-77634356D01*
X93553173Y-77804103D01*
X93558640Y-77822873D01*
X93617368Y-77970132D01*
X93695693Y-78087242D01*
X93707609Y-78099000D01*
X93792597Y-78207835D01*
X93790878Y-78294847D01*
X93730934Y-78339075D01*
X93694770Y-78396303D01*
X93718868Y-78502435D01*
X93790450Y-78640360D01*
X93896739Y-78792972D01*
X94024957Y-78943161D01*
X94162327Y-79073819D01*
X94296069Y-79167837D01*
X94374774Y-79201133D01*
X94620717Y-79220376D01*
X94867920Y-79151504D01*
X95099606Y-79003185D01*
X95298994Y-78784086D01*
X95357271Y-78693605D01*
X95449641Y-78480072D01*
X95526750Y-78186681D01*
X95556315Y-78025544D01*
X95593237Y-77816742D01*
X95630410Y-77639054D01*
X95661976Y-77519275D01*
X95673298Y-77490439D01*
X95810593Y-77324969D01*
X95995524Y-77240326D01*
X96217411Y-77238016D01*
X96465575Y-77319549D01*
X96553332Y-77366224D01*
X96814891Y-77549900D01*
X97099597Y-77803563D01*
X97389715Y-78107643D01*
X97667507Y-78442569D01*
X97915234Y-78788771D01*
X98065266Y-79034459D01*
X98134400Y-79162028D01*
X98159102Y-79220843D01*
X98136733Y-79208397D01*
X98064657Y-79122181D01*
X97940234Y-78959688D01*
X97827142Y-78808067D01*
X97587851Y-78509052D01*
X97331516Y-78230170D01*
X97071472Y-77982868D01*
X96821055Y-77778590D01*
X96593599Y-77628784D01*
X96402441Y-77544894D01*
X96341055Y-77532564D01*
X96155113Y-77533257D01*
X96012700Y-77588744D01*
X95904803Y-77709597D01*
X95822410Y-77906392D01*
X95756511Y-78189701D01*
X95749973Y-78226084D01*
X95652152Y-78609931D01*
X95503860Y-78915350D01*
X95297950Y-79152315D01*
X95027274Y-79330802D01*
X94925062Y-79377510D01*
X94640797Y-79447531D01*
X94360584Y-79425011D01*
X94094641Y-79315665D01*
X93853187Y-79125208D01*
X93646441Y-78859355D01*
X93508390Y-78585207D01*
X93449474Y-78433195D01*
X93427840Y-78344713D01*
X93441532Y-78293001D01*
X93484189Y-78254497D01*
X93541629Y-78199275D01*
X93516513Y-78149835D01*
X93491104Y-78127783D01*
X93428107Y-78039657D01*
X93371069Y-77903684D01*
X93361525Y-77871296D01*
X93293394Y-77707811D01*
X93189767Y-77544681D01*
X93163797Y-77513110D01*
X93071143Y-77382240D01*
X93044257Y-77282645D01*
X93047662Y-77268702D01*
X93031376Y-77179730D01*
X92935833Y-77055147D01*
X92769306Y-76904409D01*
X92648062Y-76812046D01*
X92555790Y-76733854D01*
X92539334Y-76677597D01*
X92563340Y-76642221D01*
X92629469Y-76547234D01*
X92612541Y-76497936D01*
X92520716Y-76502974D01*
X92454166Y-76526506D01*
X92305968Y-76582020D01*
X92228571Y-76585744D01*
X92205088Y-76530648D01*
X92215726Y-76427211D01*
X92243413Y-76256591D01*
X92077263Y-76304942D01*
X91940367Y-76325751D01*
X91762546Y-76314245D01*
X91538662Y-76273496D01*
X91348528Y-76234508D01*
X91220676Y-76218505D01*
X91121209Y-76227441D01*
X91016231Y-76263269D01*
X90912047Y-76309622D01*
X90773310Y-76382841D01*
X90680574Y-76450810D01*
X90656880Y-76487076D01*
X90609312Y-76529937D01*
X90473294Y-76548114D01*
X90437884Y-76548607D01*
X90259669Y-76573272D01*
X90132239Y-76637599D01*
X90068461Y-76727088D01*
X90081205Y-76827236D01*
X90135045Y-76889883D01*
X90201502Y-76918237D01*
X90252901Y-76862107D01*
X90283642Y-76820545D01*
X90330317Y-76804657D01*
X90415252Y-76815665D01*
X90560771Y-76854791D01*
X90660334Y-76884410D01*
X90886887Y-76961334D01*
X91023374Y-77030647D01*
X91077361Y-77097386D01*
X91065281Y-77153881D01*
X91003305Y-77177973D01*
X90883978Y-77182364D01*
X90851158Y-77179938D01*
X90737894Y-77176414D01*
X90685072Y-77189515D01*
X90685318Y-77196338D01*
X90757632Y-77244879D01*
X90890656Y-77288947D01*
X91046781Y-77319030D01*
X91188394Y-77325617D01*
X91194623Y-77325142D01*
X91307352Y-77330412D01*
X91400230Y-77381831D01*
X91506988Y-77496940D01*
X91640044Y-77733627D01*
X91690137Y-78005137D01*
X91655860Y-78291153D01*
X91576224Y-78498484D01*
X91392320Y-78771504D01*
X91137510Y-79023870D01*
X90839226Y-79230269D01*
X90713725Y-79294361D01*
X90468262Y-79377220D01*
X90181537Y-79428672D01*
X89888536Y-79446090D01*
X89624248Y-79426848D01*
X89468689Y-79387822D01*
X89106459Y-79203283D01*
X88795313Y-78938184D01*
X88531991Y-78589357D01*
X88401510Y-78350747D01*
X88324374Y-78186526D01*
X88268194Y-78055444D01*
X88244083Y-77983589D01*
X88243864Y-77980667D01*
X88212580Y-77920245D01*
X88132990Y-77819003D01*
X88078071Y-77758119D01*
X87902429Y-77622480D01*
X87711335Y-77577615D01*
X87496036Y-77623204D01*
X87293040Y-77729284D01*
X87021796Y-77935599D01*
X86738898Y-78210596D01*
X86465263Y-78530053D01*
X86221808Y-78869747D01*
X86044793Y-79174722D01*
X85963128Y-79322726D01*
X85914833Y-79385535D01*
X85900899Y-79370927D01*
X85922316Y-79286681D01*
X85980076Y-79140576D01*
X86027309Y-79037472D01*
X86219967Y-78689445D01*
X86459300Y-78344034D01*
X86728440Y-78020260D01*
X87010519Y-77737142D01*
X87288667Y-77513700D01*
X87480879Y-77398535D01*
X87708312Y-77300649D01*
X87887144Y-77262593D01*
X88043759Y-77280408D01*
X88110325Y-77304041D01*
X88234247Y-77374013D01*
X88335524Y-77479505D01*
X88425359Y-77638082D01*
X88514951Y-77867312D01*
X88563380Y-78014621D01*
X88730009Y-78426308D01*
X88942436Y-78754517D01*
X89198603Y-78997436D01*
X89496456Y-79153251D01*
X89833939Y-79220148D01*
X89932623Y-79222721D01*
X90278660Y-79181592D01*
X90603697Y-79071455D01*
X90894117Y-78903580D01*
X91136302Y-78689237D01*
X91316635Y-78439698D01*
X91421498Y-78166231D01*
X91442750Y-77972891D01*
X91421687Y-77750999D01*
X91349664Y-77598559D01*
X91210797Y-77493035D01*
X91063145Y-77434309D01*
X90884327Y-77364467D01*
X90706544Y-77275659D01*
X90552853Y-77181855D01*
X90446313Y-77097025D01*
X90409755Y-77038424D01*
X90443696Y-77013386D01*
X90495898Y-77032189D01*
X90578328Y-77063263D01*
X90691638Y-77094300D01*
X90803763Y-77118340D01*
X90882635Y-77128426D01*
X90898414Y-77119544D01*
X90844319Y-77091991D01*
X90726931Y-77042797D01*
X90619478Y-77000895D01*
X90361565Y-76903032D01*
X90265426Y-77033474D01*
X90169288Y-77163917D01*
X90063315Y-77059405D01*
X89974151Y-76914738D01*
X89949279Y-76744176D01*
X89988867Y-76584130D01*
X90060701Y-76493111D01*
X90191687Y-76424046D01*
X90309130Y-76400932D01*
X90444854Y-76364930D01*
X90534388Y-76300747D01*
X90621720Y-76234814D01*
X90688115Y-76224760D01*
X90762794Y-76219513D01*
X90779443Y-76203221D01*
X90876611Y-76132461D01*
X91048261Y-76094993D01*
X91275648Y-76092469D01*
X91540026Y-76126539D01*
G37*
D12*
%TO.C,R2*%
X68440000Y-58450000D02*
X68770000Y-58450000D01*
X71180000Y-58450000D02*
X70850000Y-58450000D01*
X68440000Y-51910000D02*
X68440000Y-58450000D01*
X68770000Y-51910000D02*
X68440000Y-51910000D01*
X70850000Y-51910000D02*
X71180000Y-51910000D01*
X71180000Y-51910000D02*
X71180000Y-58450000D01*
%TO.C,R7*%
X87425000Y-50430000D02*
X87425000Y-56970000D01*
X87425000Y-56970000D02*
X87755000Y-56970000D01*
X87755000Y-50430000D02*
X87425000Y-50430000D01*
X89835000Y-50430000D02*
X90165000Y-50430000D01*
X90165000Y-50430000D02*
X90165000Y-56970000D01*
X90165000Y-56970000D02*
X89835000Y-56970000D01*
%TO.C,R1*%
X64820000Y-51860000D02*
X64820000Y-58400000D01*
X64820000Y-58400000D02*
X65150000Y-58400000D01*
X65150000Y-51860000D02*
X64820000Y-51860000D01*
X67230000Y-51860000D02*
X67560000Y-51860000D01*
X67560000Y-51860000D02*
X67560000Y-58400000D01*
X67560000Y-58400000D02*
X67230000Y-58400000D01*
%TO.C,R4*%
X91220000Y-66740000D02*
X91550000Y-66740000D01*
X93960000Y-66740000D02*
X93630000Y-66740000D01*
X91220000Y-60200000D02*
X91220000Y-66740000D01*
X91550000Y-60200000D02*
X91220000Y-60200000D01*
X93630000Y-60200000D02*
X93960000Y-60200000D01*
X93960000Y-60200000D02*
X93960000Y-66740000D01*
%TO.C,R10*%
X89310000Y-69660000D02*
X95850000Y-69660000D01*
X89310000Y-69990000D02*
X89310000Y-69660000D01*
X89310000Y-72070000D02*
X89310000Y-72400000D01*
X89310000Y-72400000D02*
X95850000Y-72400000D01*
X95850000Y-69660000D02*
X95850000Y-69990000D01*
X95850000Y-72400000D02*
X95850000Y-72070000D01*
%TO.C,R6*%
X87490000Y-60220000D02*
X87820000Y-60220000D01*
X87490000Y-66760000D02*
X87490000Y-60220000D01*
X87820000Y-66760000D02*
X87490000Y-66760000D01*
X89900000Y-66760000D02*
X90230000Y-66760000D01*
X90230000Y-60220000D02*
X89900000Y-60220000D01*
X90230000Y-66760000D02*
X90230000Y-60220000D01*
%TO.C,C3*%
X120890000Y-59770000D02*
G75*
G02*
X112650000Y-59770000I-4120000J0D01*
G01*
X112650000Y-59770000D02*
G75*
G02*
X120890000Y-59770000I4120000J0D01*
G01*
%TO.C,C1*%
X99280000Y-47800000D02*
G75*
G02*
X91040000Y-47800000I-4120000J0D01*
G01*
X91040000Y-47800000D02*
G75*
G02*
X99280000Y-47800000I4120000J0D01*
G01*
%TO.C,R9*%
X75640000Y-72180000D02*
X82180000Y-72180000D01*
X75640000Y-72510000D02*
X75640000Y-72180000D01*
X75640000Y-74590000D02*
X75640000Y-74920000D01*
X75640000Y-74920000D02*
X82180000Y-74920000D01*
X82180000Y-72180000D02*
X82180000Y-72510000D01*
X82180000Y-74920000D02*
X82180000Y-74590000D01*
%TO.C,R12*%
X100780000Y-69550000D02*
X107320000Y-69550000D01*
X100780000Y-69880000D02*
X100780000Y-69550000D01*
X100780000Y-71960000D02*
X100780000Y-72290000D01*
X100780000Y-72290000D02*
X107320000Y-72290000D01*
X107320000Y-69550000D02*
X107320000Y-69880000D01*
X107320000Y-72290000D02*
X107320000Y-71960000D01*
%TO.C,C2*%
X120890000Y-50370000D02*
G75*
G02*
X112650000Y-50370000I-4120000J0D01*
G01*
X112650000Y-50370000D02*
G75*
G02*
X120890000Y-50370000I4120000J0D01*
G01*
%TO.C,R11*%
X95920000Y-54520000D02*
X95920000Y-61060000D01*
X95920000Y-61060000D02*
X96250000Y-61060000D01*
X96250000Y-54520000D02*
X95920000Y-54520000D01*
X98330000Y-54520000D02*
X98660000Y-54520000D01*
X98660000Y-54520000D02*
X98660000Y-61060000D01*
X98660000Y-61060000D02*
X98330000Y-61060000D01*
%TO.C,U1*%
X76335000Y-48460000D02*
X76335000Y-66360000D01*
X76335000Y-66360000D02*
X81635000Y-66360000D01*
X77985000Y-48460000D02*
X76335000Y-48460000D01*
X81635000Y-48460000D02*
X79985000Y-48460000D01*
X81635000Y-66360000D02*
X81635000Y-48460000D01*
X79985000Y-48460000D02*
G75*
G02*
X77985000Y-48460000I-1000000J0D01*
G01*
%TO.C,R8*%
X75540000Y-67860000D02*
X82080000Y-67860000D01*
X75540000Y-68190000D02*
X75540000Y-67860000D01*
X75540000Y-70270000D02*
X75540000Y-70600000D01*
X75540000Y-70600000D02*
X82080000Y-70600000D01*
X82080000Y-67860000D02*
X82080000Y-68190000D01*
X82080000Y-70600000D02*
X82080000Y-70270000D01*
%TO.C,C4*%
X120890000Y-69170000D02*
G75*
G02*
X112650000Y-69170000I-4120000J0D01*
G01*
X112650000Y-69170000D02*
G75*
G02*
X120890000Y-69170000I4120000J0D01*
G01*
%TO.C,R13*%
X100730000Y-73400000D02*
X107270000Y-73400000D01*
X100730000Y-73730000D02*
X100730000Y-73400000D01*
X100730000Y-75810000D02*
X100730000Y-76140000D01*
X100730000Y-76140000D02*
X107270000Y-76140000D01*
X107270000Y-73400000D02*
X107270000Y-73730000D01*
X107270000Y-76140000D02*
X107270000Y-75810000D01*
%TD*%
M02*
