%TF.GenerationSoftware,KiCad,Pcbnew,9.0.4*%
%TF.CreationDate,2025-11-14T19:48:19-06:00*%
%TF.ProjectId,instrument_amplifier,696e7374-7275-46d6-956e-745f616d706c,rev?*%
%TF.SameCoordinates,Original*%
%TF.FileFunction,Soldermask,Bot*%
%TF.FilePolarity,Negative*%
%FSLAX46Y46*%
G04 Gerber Fmt 4.6, Leading zero omitted, Abs format (unit mm)*
G04 Created by KiCad (PCBNEW 9.0.4) date 2025-11-14 19:48:19*
%MOMM*%
%LPD*%
G01*
G04 APERTURE LIST*
G04 Aperture macros list*
%AMRoundRect*
0 Rectangle with rounded corners*
0 $1 Rounding radius*
0 $2 $3 $4 $5 $6 $7 $8 $9 X,Y pos of 4 corners*
0 Add a 4 corners polygon primitive as box body*
4,1,4,$2,$3,$4,$5,$6,$7,$8,$9,$2,$3,0*
0 Add four circle primitives for the rounded corners*
1,1,$1+$1,$2,$3*
1,1,$1+$1,$4,$5*
1,1,$1+$1,$6,$7*
1,1,$1+$1,$8,$9*
0 Add four rect primitives between the rounded corners*
20,1,$1+$1,$2,$3,$4,$5,0*
20,1,$1+$1,$4,$5,$6,$7,0*
20,1,$1+$1,$6,$7,$8,$9,0*
20,1,$1+$1,$8,$9,$2,$3,0*%
G04 Aperture macros list end*
%ADD10R,1.700000X1.700000*%
%ADD11C,1.700000*%
%ADD12C,1.600000*%
%ADD13RoundRect,0.250000X-0.550000X-0.550000X0.550000X-0.550000X0.550000X0.550000X-0.550000X0.550000X0*%
%ADD14C,5.000000*%
G04 APERTURE END LIST*
D10*
%TO.C,J1*%
X61780000Y-63390000D03*
D11*
X61780000Y-60850000D03*
X61780000Y-58310000D03*
X61780000Y-55770000D03*
X61780000Y-53230000D03*
X61780000Y-50690000D03*
%TD*%
D12*
%TO.C,U2*%
X109935000Y-49790000D03*
X109935000Y-52330000D03*
X109935000Y-54870000D03*
X109935000Y-57410000D03*
X109935000Y-59950000D03*
X109935000Y-62490000D03*
X109935000Y-65030000D03*
X102315000Y-65030000D03*
X102315000Y-62490000D03*
X102315000Y-59950000D03*
X102315000Y-57410000D03*
X102315000Y-54870000D03*
X102315000Y-52330000D03*
D13*
X102315000Y-49790000D03*
%TD*%
D14*
%TO.C,H4*%
X54800000Y-77370000D03*
%TD*%
%TO.C,H3*%
X120370000Y-77410000D03*
%TD*%
%TO.C,H2*%
X120390000Y-43840000D03*
%TD*%
%TO.C,H1*%
X54810000Y-43780000D03*
%TD*%
D12*
%TO.C,R3*%
X66190000Y-63490000D03*
X66190000Y-71110000D03*
%TD*%
%TO.C,R5*%
X69820000Y-63500000D03*
X69820000Y-71120000D03*
%TD*%
%TO.C,R2*%
X69810000Y-51370000D03*
X69810000Y-58990000D03*
%TD*%
%TO.C,R7*%
X88795000Y-49890000D03*
X88795000Y-57510000D03*
%TD*%
%TO.C,R1*%
X66190000Y-51320000D03*
X66190000Y-58940000D03*
%TD*%
%TO.C,R4*%
X92590000Y-59660000D03*
X92590000Y-67280000D03*
%TD*%
%TO.C,R10*%
X88770000Y-71030000D03*
X96390000Y-71030000D03*
%TD*%
%TO.C,R6*%
X88860000Y-67300000D03*
X88860000Y-59680000D03*
%TD*%
%TO.C,C3*%
X115020000Y-59770000D03*
X118520000Y-59770000D03*
%TD*%
%TO.C,C1*%
X93410000Y-47800000D03*
X96910000Y-47800000D03*
%TD*%
%TO.C,R9*%
X75100000Y-73550000D03*
X82720000Y-73550000D03*
%TD*%
%TO.C,R12*%
X100240000Y-70920000D03*
X107860000Y-70920000D03*
%TD*%
%TO.C,C2*%
X115020000Y-50370000D03*
X118520000Y-50370000D03*
%TD*%
%TO.C,R11*%
X97290000Y-53980000D03*
X97290000Y-61600000D03*
%TD*%
D13*
%TO.C,U1*%
X75175000Y-49790000D03*
D12*
X75175000Y-52330000D03*
X75175000Y-54870000D03*
X75175000Y-57410000D03*
X75175000Y-59950000D03*
X75175000Y-62490000D03*
X75175000Y-65030000D03*
X82795000Y-65030000D03*
X82795000Y-62490000D03*
X82795000Y-59950000D03*
X82795000Y-57410000D03*
X82795000Y-54870000D03*
X82795000Y-52330000D03*
X82795000Y-49790000D03*
%TD*%
%TO.C,R8*%
X75000000Y-69230000D03*
X82620000Y-69230000D03*
%TD*%
%TO.C,C4*%
X115020000Y-69170000D03*
X118520000Y-69170000D03*
%TD*%
%TO.C,R13*%
X100190000Y-74770000D03*
X107810000Y-74770000D03*
%TD*%
M02*
